<?xml version="1.0" encoding="UTF-8"?>
<svg id="Layer_1" data-name="Layer 1" xmlns="http://www.w3.org/2000/svg" xmlns:xlink="http://www.w3.org/1999/xlink" viewBox="0 0 4000 4000">
  <defs>
    <style>
      .cls-1 {
        fill: #fefefe;
      }

      .cls-1, .cls-2, .cls-3, .cls-4, .cls-5, .cls-6, .cls-7, .cls-8, .cls-9, .cls-10, .cls-11, .cls-12, .cls-13 {
        stroke-width: 0px;
      }

      .cls-2 {
        fill: #4d5a6a;
      }

      .cls-3 {
        fill: url(#linear-gradient-2);
        opacity: .5;
      }

      .cls-4 {
        fill: #fdbd91;
      }

      .cls-14 {
        opacity: .2;
      }

      .cls-5 {
        fill: #ac3d50;
      }

      .cls-15 {
        opacity: .4;
      }

      .cls-6, .cls-8 {
        fill: #fff;
      }

      .cls-16 {
        opacity: .75;
      }

      .cls-17 {
        opacity: .3;
      }

      .cls-7 {
        fill: #3d3144;
      }

      .cls-8, .cls-12 {
        fill-rule: evenodd;
      }

      .cls-9 {
        fill: #61ed46;
      }

      .cls-18 {
        opacity: .55;
      }

      .cls-10 {
        fill: url(#linear-gradient);
        mix-blend-mode: multiply;
      }

      .cls-11 {
        fill: #c6d3e3;
      }

      .cls-19 {
        filter: url(#luminosity-noclip);
      }

      .cls-20 {
        mask: url(#mask-1);
      }

      .cls-21 {
        mask: url(#mask);
      }

      .cls-12, .cls-13 {
        fill: #000072;
      }
    </style>
    <filter id="luminosity-noclip" x="884.29" y="1929.94" width="2259.39" height="1723.3" color-interpolation-filters="sRGB" filterUnits="userSpaceOnUse">
      <feFlood flood-color="#fff" result="bg"/>
      <feBlend in="SourceGraphic" in2="bg"/>
    </filter>
    <filter id="luminosity-noclip-2" x="884.29" y="-10192" width="2259.39" height="32766" color-interpolation-filters="sRGB" filterUnits="userSpaceOnUse">
      <feFlood flood-color="#fff" result="bg"/>
      <feBlend in="SourceGraphic" in2="bg"/>
    </filter>
    <mask id="mask-1" x="884.29" y="-10192" width="2259.39" height="32766" maskUnits="userSpaceOnUse"/>
    <linearGradient id="linear-gradient" x1="2014" y1="1937.78" x2="2002.05" y2="3657.81" gradientUnits="userSpaceOnUse">
      <stop offset="0" stop-color="#000"/>
      <stop offset="1" stop-color="#fff"/>
    </linearGradient>
    <mask id="mask" x="884.29" y="1929.94" width="2259.39" height="1723.3" maskUnits="userSpaceOnUse">
      <g class="cls-19">
        <g class="cls-20">
          <polygon class="cls-10" points="2687.93 3653.21 1344.52 3653.24 884.29 1929.94 3143.68 1949.63 2687.93 3653.21"/>
        </g>
      </g>
    </mask>
    <linearGradient id="linear-gradient-2" x1="2014" y1="1937.78" x2="2002.05" y2="3657.81" gradientUnits="userSpaceOnUse">
      <stop offset="0" stop-color="#40e6ff"/>
      <stop offset="1" stop-color="#40e6ff"/>
    </linearGradient>
  </defs>
  <circle class="cls-7" cx="2000" cy="1645.63" r="1486.83"/>
  <g>
    <path class="cls-9" d="m3146.07,1033.62h-286.24c-11.03,0-19.97-8.94-19.97-19.97s8.94-19.97,19.97-19.97h286.24c11.03,0,19.97,8.94,19.97,19.97s-8.94,19.97-19.97,19.97Z"/>
    <path class="cls-9" d="m2583.57,1033.62h-1172.01c-11.03,0-19.97-8.94-19.97-19.97s8.94-19.97,19.97-19.97h1172.01c11.03,0,19.97,8.94,19.97,19.97s-8.94,19.97-19.97,19.97Z"/>
    <path class="cls-9" d="m1226.67,1033.62h-323.96c-11.03,0-19.97-8.94-19.97-19.97s8.94-19.97,19.97-19.97h323.96c11.03,0,19.97,8.94,19.97,19.97s-8.94,19.97-19.97,19.97Z"/>
    <path class="cls-9" d="m3146.07,1200.04h-246.3c-11.03,0-19.97-8.94-19.97-19.97s8.94-19.97,19.97-19.97h246.3c11.03,0,19.97,8.94,19.97,19.97s-8.94,19.97-19.97,19.97Z"/>
    <path class="cls-9" d="m2748.88,1200.04h-1471.88c-11.03,0-19.97-8.94-19.97-19.97s8.94-19.97,19.97-19.97h1471.88c11.03,0,19.97,8.94,19.97,19.97s-8.94,19.97-19.97,19.97Z"/>
    <path class="cls-9" d="m1072.73,1200.04h-170.02c-11.03,0-19.97-8.94-19.97-19.97s8.94-19.97,19.97-19.97h170.02c11.03,0,19.97,8.94,19.97,19.97s-8.94,19.97-19.97,19.97Z"/>
    <path class="cls-9" d="m3146.07,1366.46H902.71c-11.03,0-19.97-8.94-19.97-19.97s8.94-19.97,19.97-19.97h2243.36c11.03,0,19.97,8.94,19.97,19.97s-8.94,19.97-19.97,19.97Z"/>
    <path class="cls-9" d="m3146.07,1532.88h-1897.2c-11.03,0-19.97-8.94-19.97-19.97s8.94-19.97,19.97-19.97h1897.2c11.03,0,19.97,8.94,19.97,19.97s-8.94,19.97-19.97,19.97Z"/>
    <path class="cls-9" d="m1072.73,1532.88h-170.02c-11.03,0-19.97-8.94-19.97-19.97s8.94-19.97,19.97-19.97h170.02c11.03,0,19.97,8.94,19.97,19.97s-8.94,19.97-19.97,19.97Z"/>
    <path class="cls-9" d="m3146.07,1699.3h-143.12c-11.03,0-19.97-8.94-19.97-19.97s8.94-19.97,19.97-19.97h143.12c11.03,0,19.97,8.94,19.97,19.97s-8.94,19.97-19.97,19.97Z"/>
    <path class="cls-9" d="m2859.83,1699.3H902.71c-11.03,0-19.97-8.94-19.97-19.97s8.94-19.97,19.97-19.97h1957.12c11.03,0,19.97,8.94,19.97,19.97s-8.94,19.97-19.97,19.97Z"/>
    <path class="cls-9" d="m3146.07,1865.73H902.71c-11.03,0-19.97-8.94-19.97-19.97s8.94-19.97,19.97-19.97h2243.36c11.03,0,19.97,8.94,19.97,19.97s-8.94,19.97-19.97,19.97Z"/>
    <path class="cls-9" d="m3146.07,2032.15h-161.53c-11.03,0-19.97-8.94-19.97-19.97s8.94-19.97,19.97-19.97h161.53c11.03,0,19.97,8.94,19.97,19.97s-8.94,19.97-19.97,19.97Z"/>
    <path class="cls-9" d="m2815,2032.15h-1477.37c-11.03,0-19.97-8.94-19.97-19.97s8.94-19.97,19.97-19.97h1477.37c11.03,0,19.97,8.94,19.97,19.97s-8.94,19.97-19.97,19.97Z"/>
    <path class="cls-9" d="m1093.54,2032.15h-190.83c-11.03,0-19.97-8.94-19.97-19.97s8.94-19.97,19.97-19.97h190.83c11.03,0,19.97,8.94,19.97,19.97s-8.94,19.97-19.97,19.97Z"/>
    <path class="cls-9" d="m3146.07,2198.57h-360.36c-11.03,0-19.97-8.94-19.97-19.97s8.94-19.97,19.97-19.97h360.36c11.03,0,19.97,8.94,19.97,19.97s-8.94,19.97-19.97,19.97Z"/>
    <path class="cls-9" d="m2504.79,2198.57H902.71c-11.03,0-19.97-8.94-19.97-19.97s8.94-19.97,19.97-19.97h1602.09c11.03,0,19.97,8.94,19.97,19.97s-8.94,19.97-19.97,19.97Z"/>
  </g>
  <g class="cls-17">
    <path class="cls-13" d="m589.99,3826.29c473.43,122.28,2346.45,122.28,2819.88,0,43.79-11.31,33.11-62.04-13.01-62.04H603c-46.12,0-56.8,50.73-13.01,62.04Z"/>
  </g>
  <path class="cls-13" d="m722.52,3757.49c53.23-10.4,106.45-13.17,159.68-14.3,53.22-1.45,106.45-.68,159.68.11,53.23.62,106.45.77,159.68.67h1756.44l79.84-.02c26.61.02,53.23-.91,79.84-1.34,53.23-.24,106.45.37,159.68,14.88,3.73,1.02,5.93,4.87,4.91,8.6-.67,2.48-2.61,4.28-4.91,4.91-53.23,14.51-106.45,15.12-159.68,14.88-26.61-.43-53.23-1.36-79.84-1.34l-79.84-.02h-1756.44c-53.23-.1-106.45.06-159.68.67-53.23.79-106.45,1.56-159.68.11-53.23-1.13-106.45-3.9-159.68-14.3-3.73-.73-6.16-4.35-5.44-8.08.55-2.83,2.77-4.91,5.44-5.44Z"/>
  <g>
    <g>
      <path class="cls-2" d="m2658.31,3619.92l8.41-1c234.51-27.88,395.03-250.34,347.56-481.68l-88.11-429.38c-40.21-195.94-212.65-336.59-412.67-336.59h-512.66,14.51-512.66c-200.02,0-372.47,140.65-412.67,336.59l-88.11,429.38c-47.47,231.34,113.05,453.8,347.56,481.68l8.41,1h1300.43Z"/>
      <path class="cls-13" d="m2658.49,3623.14h-1300.62l-8.79-1.02c-112.68-13.4-215.37-73.85-281.76-165.86-66.38-92.01-91.38-208.52-68.57-319.67l88.1-429.38c40.33-196.52,215.21-339.16,415.84-339.16h1010.8c200.62,0,375.5,142.64,415.83,339.16l88.11,429.38c22.81,111.15-2.2,227.66-68.58,319.67-66.39,92.01-169.09,152.46-281.76,165.86l-8.6,1.02Zm-1155.81-1248.65c-197.58,0-369.81,140.48-409.52,334.02l-88.1,429.38c-22.45,109.38,2.15,224.05,67.49,314.6,65.33,90.55,166.41,150.05,277.29,163.23l8.41,1,1299.86-.02,8.22-.98c110.88-13.18,211.95-72.68,277.28-163.23,65.34-90.55,89.94-205.22,67.49-314.61l-88.11-429.38c-39.71-193.54-211.94-334.02-409.51-334.02h-1010.8Z"/>
    </g>
    <g class="cls-17">
      <path class="cls-13" d="m2666.72,3618.95l-8.39.98h-1300.45l-8.39-.98c-150.05-17.82-269.76-115.38-324.2-243.83,59.54,53.53,135.65,89.94,221.75,100.22l8.39.98h1300.45l8.39-.98c234.54-27.88,395.07-250.33,347.55-481.66l-88.06-429.38c-5.94-28.86-14.75-56.47-26.07-82.68,63.88,58.29,110.07,136.42,128.45,226.22l88.13,429.38c47.45,231.33-113.08,453.84-347.55,481.73Z"/>
    </g>
    <g class="cls-18">
      <path class="cls-6" d="m2721.37,2426.13c-48.01-18.94-100.15-29.21-154.31-29.21h-1010.77c-200.02,0-372.5,140.61-412.68,336.57l-88.13,429.38c-36.2,176.46,48.57,347.69,194.91,431.41-178.49-69.47-288.91-260.05-248.52-457.06l88.13-429.38c40.18-195.89,212.67-336.57,412.68-336.57h1010.77c75.06,0,146.2,19.78,207.91,54.86Z"/>
    </g>
    <path class="cls-13" d="m2658.31,3640.89h-1300.43c-.82,0-1.65-.05-2.47-.14l-8.41-1c-117.6-13.98-224.77-77.07-294.06-173.1-69.29-96.03-95.37-217.62-71.57-333.62l88.1-429.38c42.01-204.74,224.21-353.34,433.22-353.34h1010.8c209,0,391.2,148.6,433.21,353.34l88.11,429.38c23.8,116-2.29,237.6-71.58,333.62-69.29,96.03-176.46,159.12-294.05,173.1l-8.41,1c-.82.1-1.65.14-2.47.14Zm-1299.19-41.93h1297.95l7.18-.85c105.96-12.6,202.55-69.46,264.99-155.99,62.44-86.54,85.95-196.12,64.5-300.66l-88.11-429.38c-38.03-185.33-202.94-319.84-392.13-319.84h-1010.8c-189.19,0-354.11,134.51-392.14,319.84l-88.1,429.38c-21.45,104.53,2.05,214.12,64.49,300.65,62.45,86.54,159.03,143.4,265,156l7.17.85Z"/>
    <g>
      <path class="cls-2" d="m2754.71,2054.12c-1.26,4.89-2.59,9.85-3.91,14.68-1.05,3.7-2.1,7.34-3.14,10.97-.42,1.4-.77,2.73-1.26,4.12-.84,3.01-1.82,6.01-2.73,8.95-1.19,3.84-2.45,7.62-3.7,11.39-.56,1.68-1.12,3.35-1.68,4.96-1.82,5.45-3.7,10.83-5.73,16.14-2.1,5.87-4.33,11.67-6.64,17.4-2.24,5.8-4.61,11.53-7.06,17.26-2.38,5.66-4.89,11.39-7.48,16.98-2.45,5.45-4.96,10.83-7.55,16.21-.35.7-.7,1.4-1.05,2.1-2.38,5.03-4.89,9.99-7.48,14.96-.07.14-.14.28-.21.42-2.8,5.52-5.66,10.9-8.6,16.35-3.49,6.43-7.06,12.79-10.76,19.08-2.52,4.4-5.1,8.74-7.69,13.07-.14.14-.21.28-.21.35-3.21,5.31-6.5,10.55-9.85,15.79-5.59,8.74-11.32,17.4-17.26,26-2.59,3.77-5.24,7.48-7.9,11.18-2.24,3.14-4.47,6.22-6.78,9.36-3.42,4.68-6.92,9.3-10.41,13.91-3.42,4.47-6.85,8.81-10.34,13.21-1.96,2.45-3.91,4.89-5.87,7.27-1.26,1.54-2.52,3.08-3.77,4.61-2.38,2.8-4.68,5.59-7.06,8.39-6.43,7.55-13,15.03-19.71,22.43-3.21,3.63-6.57,7.2-9.92,10.76-2.45,2.59-4.89,5.24-7.34,7.83-3.49,3.63-6.92,7.2-10.48,10.69-5.03,5.1-10.2,10.2-15.38,15.24-4.19,4.05-8.39,8.04-12.65,11.95-.63.63-1.26,1.26-1.89,1.75-4.33,4.12-8.74,8.11-13.21,12.09-8.18,7.34-16.49,14.47-24.95,21.53-2.1,1.75-4.19,3.49-6.36,5.31-4.26,3.49-8.6,6.99-13,10.48-15.24,12.09-30.82,23.76-46.75,35.01-.28.21-.63.42-.91.63-62.13,43.75-129.71,76.25-199.88,97.56-24.32,7.41-48.99,13.49-73.87,18.24-110.21,20.97-224.41,15.45-332.52-16.42-72.68-21.39-142.64-54.72-206.86-100.01-5.03-3.56-10.06-7.2-15.1-10.83-.49-.42-.98-.77-1.54-1.12-4.96-3.7-9.92-7.41-14.82-11.11-5.1-3.91-10.2-7.9-15.31-11.95h-.07c-5.03-4.05-9.99-8.11-14.96-12.16-5.03-4.12-9.92-8.32-14.82-12.51-4.89-4.19-9.71-8.39-14.47-12.65-4.82-4.33-9.57-8.6-14.26-13-4.68-4.33-9.3-8.74-13.91-13.21-4.61-4.4-9.16-8.88-13.63-13.42-4.47-4.54-8.95-9.09-13.35-13.7-4.4-4.68-8.81-9.36-13.21-14.12-4.19-4.61-8.32-9.23-12.44-13.98-3.21-3.63-6.43-7.34-9.57-11.04-9.16-10.83-18.1-21.87-26.77-33.13-3.49-4.61-7.06-9.23-10.41-13.91-.49-.56-.91-1.19-1.33-1.75-2.38-3.14-4.68-6.36-6.92-9.57-5.17-7.27-10.2-14.54-15.1-21.94-2.73-4.05-5.45-8.18-8.04-12.3-3.98-6.22-7.9-12.44-11.74-18.8-2.66-4.47-5.38-9.02-8.04-13.56-3.63-6.36-7.2-12.86-10.76-19.36-2.59-4.89-5.17-9.78-7.69-14.68-2.59-4.96-5.1-9.99-7.48-15.03-.42-.7-.77-1.4-1.05-2.1-5.31-10.83-10.27-21.8-14.89-32.85-.28-.49-.49-.91-.63-1.4-2.31-5.45-4.54-10.9-6.71-16.42-2.31-5.73-4.54-11.53-6.64-17.4-2.17-5.8-4.26-11.67-6.22-17.54-1.47-4.33-2.94-8.74-4.33-13.14-1.12-3.49-2.17-6.99-3.21-10.48-.49-1.54-.98-3.14-1.4-4.68-1.05-3.42-2.03-6.78-2.94-10.2-1.4-5.03-2.73-10.06-4.05-15.17-52.28-369,283.25-778.23,618.5-953.71,85.26-44.66,187.3-44.66,272.56,0,7.55,3.91,15.03,8.11,22.57,12.44l.07.07c327.56,188.27,646.94,580.52,595.85,941.2Z"/>
      <g class="cls-15">
        <path class="cls-13" d="m2128.87,2650.02c9.5-2.47,18.97-5.07,28.37-7.93,70.17-21.32,137.75-53.81,199.88-97.56.28-.21.63-.42.91-.63,15.93-11.25,31.52-22.92,46.75-35.01,4.4-3.49,8.74-6.99,13-10.48,2.17-1.82,4.26-3.56,6.36-5.31,8.46-7.06,16.77-14.19,24.95-21.53,4.47-3.99,8.88-7.97,13.21-12.09.63-.49,1.26-1.12,1.89-1.75,4.26-3.91,8.46-7.9,12.65-11.95,5.17-5.03,10.34-10.13,15.37-15.23,3.57-3.49,6.99-7.06,10.48-10.69,2.45-2.58,4.89-5.24,7.34-7.82,3.35-3.57,6.71-7.13,9.92-10.76,6.71-7.41,13.28-14.89,19.71-22.43,2.38-2.79,4.68-5.59,7.06-8.39,1.26-1.54,2.51-3.07,3.77-4.61,1.96-2.38,3.91-4.82,5.87-7.27,3.49-4.41,6.92-8.74,10.34-13.21,3.49-4.61,6.99-9.23,10.41-13.91,2.31-3.14,4.55-6.22,6.78-9.36,2.65-3.7,5.31-7.41,7.9-11.18,5.94-8.6,11.67-17.26,17.26-26,3.35-5.24,6.64-10.48,9.85-15.8,0-.07.07-.21.21-.35,2.58-4.33,5.17-8.67,7.69-13.07,3.7-6.29,7.27-12.65,10.76-19.08,2.93-5.45,5.8-10.83,8.59-16.35.07-.14.14-.28.21-.42,2.59-4.96,5.1-9.93,7.48-14.96.35-.7.7-1.4,1.05-2.1,2.59-5.38,5.1-10.76,7.55-16.22,2.59-5.59,5.1-11.32,7.48-16.98,2.44-5.73,4.82-11.46,7.06-17.26,2.31-5.73,4.55-11.53,6.64-17.4,2.03-5.31,3.91-10.69,5.73-16.14.56-1.61,1.12-3.29,1.68-4.97,1.26-3.77,2.51-7.54,3.7-11.39.91-2.93,1.89-5.94,2.73-8.94.49-1.4.84-2.73,1.26-4.13,1.05-3.63,2.1-7.27,3.14-10.97,1.33-4.82,2.65-9.78,3.91-14.68,50.46-356.26-260.52-743.32-583.81-934.19,227.43,206.86,399.51,496.69,361.02,768.63-1.26,4.89-2.59,9.86-3.91,14.68-1.05,3.71-2.1,7.34-3.15,10.97-.42,1.4-.77,2.73-1.26,4.13-.84,3-1.82,6.01-2.73,8.94-1.19,3.85-2.45,7.62-3.71,11.39-.56,1.68-1.12,3.35-1.68,4.97-1.82,5.45-3.7,10.83-5.73,16.14-2.1,5.87-4.33,11.67-6.64,17.4-2.24,5.8-4.61,11.53-7.06,17.26-2.38,5.66-4.89,11.39-7.48,16.98-2.45,5.45-4.96,10.83-7.55,16.21-.35.7-.7,1.4-1.05,2.1-2.38,5.03-4.89,9.99-7.48,14.96-.07.14-.14.28-.21.42-2.79,5.52-5.66,10.9-8.6,16.36-3.49,6.43-7.06,12.79-10.76,19.08-2.51,4.4-5.1,8.74-7.69,13.07-.14.14-.21.28-.21.35-3.21,5.31-6.5,10.55-9.85,15.79-5.59,8.74-11.32,17.4-17.26,26-2.59,3.77-5.24,7.48-7.9,11.18-2.24,3.14-4.47,6.22-6.78,9.36-3.43,4.68-6.92,9.3-10.41,13.91-3.42,4.47-6.85,8.8-10.34,13.21-1.96,2.45-3.91,4.89-5.87,7.27-1.26,1.54-2.51,3.07-3.77,4.61-2.38,2.79-4.68,5.59-7.06,8.39-6.43,7.54-13,15.02-19.71,22.43-3.22,3.63-6.57,7.2-9.93,10.76-2.45,2.58-4.89,5.24-7.34,7.82-3.49,3.63-6.92,7.2-10.48,10.69-5.03,5.1-10.2,10.2-15.38,15.23-4.19,4.05-8.38,8.04-12.65,11.95-.63.63-1.26,1.26-1.88,1.75-4.33,4.12-8.74,8.1-13.21,12.09-8.18,7.34-16.49,14.47-24.95,21.53-2.1,1.75-4.19,3.49-6.36,5.31-4.27,3.49-8.6,6.99-13,10.48-15.23,12.09-30.82,23.76-46.75,35.01-.28.21-.63.42-.91.63-62.13,43.75-129.71,76.24-199.88,97.56-24.32,7.41-48.99,13.49-73.87,18.24-41.33,7.86-83.22,12-125.14,12.42,41.92-.42,83.81-4.56,125.14-12.42,1.19-.23,2.38-.49,3.57-.73-15.07,3.91-30.24,7.39-45.5,10.31-91.18,17.35-185.08,16.51-276.02-2.33-1.06-.83-2.12-1.64-3.18-2.48,5.01,3.97,10.02,7.89,15.02,11.73,4.89,3.71,9.86,7.41,14.82,11.11.56.35,1.05.7,1.54,1.12,5.03,3.63,10.06,7.27,15.09,10.83,64.23,45.29,134.18,78.62,206.87,100.01,108.12,31.87,222.31,37.39,332.52,16.42,13-2.48,25.95-5.35,38.82-8.56-11.69,2.9-23.45,5.51-35.25,7.83Z"/>
      </g>
      <g class="cls-18">
        <path class="cls-6" d="m2278.71,1195.46c-25.79-17.47-51.86-33.76-77.92-48.78l-.07-.07c-7.55-4.33-15.03-8.53-22.57-12.44-85.26-44.66-187.3-44.66-272.56,0-335.25,175.49-670.77,584.74-618.5,953.75,1.33,5.1,2.66,10.13,4.05,15.17.91,3.42,1.89,6.78,2.94,10.2.42,1.54.91,3.14,1.4,4.68,1.05,3.49,2.1,6.99,3.21,10.48,1.4,4.4,2.87,8.81,4.33,13.14,1.96,5.87,4.05,11.74,6.22,17.54,2.1,5.87,4.33,11.67,6.64,17.4,2.17,5.52,4.4,10.97,6.71,16.42.14.49.35.91.63,1.4,4.61,11.04,9.57,22.01,14.89,32.85.28.7.63,1.4,1.05,2.1,2.38,5.03,4.89,10.06,7.48,15.03,2.52,4.89,5.1,9.78,7.69,14.68,3.56,6.5,7.13,13,10.76,19.36,2.66,4.54,5.38,9.09,8.04,13.56,3.84,6.36,7.76,12.58,11.74,18.8,2.59,4.12,5.31,8.25,8.04,12.3,4.89,7.41,9.92,14.68,15.1,21.94,2.24,3.21,4.54,6.43,6.92,9.57.42.56.84,1.19,1.33,1.75,3.35,4.68,6.92,9.3,10.41,13.91,8.67,11.25,17.61,22.29,26.77,33.13,3.15,3.7,6.36,7.41,9.57,11.04,4.12,4.75,8.25,9.36,12.44,13.98,4.4,4.75,8.81,9.43,13.21,14.12,4.4,4.61,8.88,9.16,13.35,13.7,4.47,4.54,9.02,9.02,13.63,13.42,4.61,4.47,9.23,8.88,13.91,13.21,4.68,4.4,9.43,8.67,14.26,13,4.75,4.26,9.57,8.46,14.47,12.65,4.89,4.19,9.78,8.39,14.82,12.51,4.96,4.05,9.92,8.11,14.96,12.16h.07c5.1,4.05,10.2,8.04,15.31,11.95,4.54,3.42,9.16,6.85,13.77,10.34-5.8-3.77-11.53-7.69-17.26-11.74-5.03-3.56-10.06-7.2-15.1-10.83-.49-.42-.98-.77-1.54-1.12-4.96-3.7-9.92-7.41-14.82-11.11-5.1-3.91-10.2-7.9-15.31-11.95h-.07c-5.03-4.05-9.99-8.11-14.96-12.16-5.03-4.12-9.92-8.32-14.82-12.51-4.89-4.19-9.71-8.39-14.47-12.65-4.82-4.33-9.57-8.6-14.26-13-4.68-4.33-9.3-8.74-13.91-13.21-4.61-4.4-9.16-8.88-13.63-13.42-4.47-4.54-8.95-9.09-13.35-13.7-4.4-4.68-8.81-9.36-13.21-14.12-4.19-4.61-8.32-9.23-12.44-13.98-3.21-3.63-6.43-7.34-9.57-11.04-9.16-10.83-18.1-21.87-26.77-33.13-3.49-4.61-7.06-9.23-10.41-13.91-.49-.56-.91-1.19-1.33-1.75-2.38-3.14-4.68-6.36-6.92-9.57-5.17-7.27-10.2-14.54-15.1-21.94-2.73-4.05-5.45-8.18-8.04-12.3-3.98-6.22-7.9-12.44-11.74-18.8-2.66-4.47-5.38-9.02-8.04-13.56-3.63-6.36-7.2-12.86-10.76-19.36-2.59-4.89-5.17-9.78-7.69-14.68-2.59-4.96-5.1-9.99-7.48-15.03-.42-.7-.77-1.4-1.05-2.1-5.31-10.83-10.27-21.8-14.89-32.85-.28-.49-.49-.91-.63-1.4-2.31-5.45-4.54-10.9-6.71-16.42-2.31-5.73-4.54-11.53-6.64-17.4-2.17-5.8-4.26-11.67-6.22-17.54-1.47-4.33-2.94-8.74-4.33-13.14-1.12-3.49-2.17-6.99-3.21-10.48-.49-1.54-.98-3.15-1.4-4.68-1.05-3.42-2.03-6.78-2.94-10.2-1.4-5.03-2.73-10.06-4.05-15.17-52.28-369,283.25-778.26,618.5-953.75,85.26-44.66,187.3-44.66,272.56,0,7.55,3.91,15.03,8.11,22.57,12.44l.07.07c37.95,21.8,75.76,46.33,112.87,73.24Z"/>
      </g>
      <path class="cls-13" d="m1999.93,2684.05c-146.92,0-293.8-44.2-419.1-132.6-5.12-3.62-10.21-7.3-15.29-10.97-.26-.19-.52-.39-.77-.59-.35-.23-.69-.47-1.03-.72-5.27-3.94-10.14-7.57-14.93-11.2-4.95-3.8-9.82-7.6-14.68-11.45-.41-.28-.8-.57-1.18-.88-4.91-3.96-9.76-7.91-14.61-11.87-5.64-4.62-10.65-8.91-15.66-13.21-5.02-4.3-9.96-8.6-14.83-12.97l-.69-.62c-4.71-4.23-9.35-8.41-13.93-12.72-4.68-4.33-9.41-8.84-14.14-13.43-4.64-4.43-9.35-9.06-13.97-13.76-4.74-4.81-9.19-9.34-13.58-13.94-4.54-4.83-8.97-9.54-13.41-14.33-4.44-4.89-8.68-9.62-12.91-14.49-3.18-3.59-6.49-7.41-9.73-11.23-9.6-11.35-18.8-22.74-27.39-33.88l-2.31-3.05c-2.74-3.6-5.47-7.21-8.11-10.86-.48-.6-.94-1.22-1.38-1.83-2.59-3.43-5.05-6.87-7.45-10.31-5.61-7.89-10.69-15.26-15.38-22.37-2.76-4.1-5.61-8.41-8.31-12.72-3.98-6.21-7.99-12.59-11.93-19.11l-2.47-4.14c-1.91-3.21-3.84-6.44-5.73-9.67-3.61-6.31-7.05-12.57-10.48-18.84l-.55-1.01c-2.79-5.26-5.41-10.23-7.96-15.19-2.53-4.86-5.05-9.88-7.44-14.91-.58-1.05-1.11-2.11-1.56-3.18-5.64-11.67-10.47-22.31-14.74-32.47-.41-.82-.86-1.79-1.26-2.91-2.27-5.39-4.48-10.78-6.62-16.23-2.33-5.81-4.68-11.87-6.87-18.01-2.15-5.75-4.32-11.85-6.36-17.96-1.48-4.37-2.99-8.9-4.43-13.42-1.14-3.58-2.22-7.19-3.31-10.79-.48-1.51-1.04-3.39-1.54-5.18-.96-3.1-2.01-6.7-2.98-10.38-1.36-4.89-2.72-10.03-4.07-15.24-.2-.77-.36-1.55-.47-2.34-31.65-223.46,73.62-430.26,167.51-564.39,118.65-169.51,287.05-319.25,462.02-410.84,91.42-47.88,200.58-47.88,292.01,0,174.97,91.59,343.37,241.34,462.02,410.84,93.89,134.14,199.17,340.93,167.51,564.39-.11.77-.26,1.53-.46,2.28-1.28,5-2.64,10.08-4,15.01l-3.59,12.51c-.31,1.09-.63,2.15-.99,3.25-.63,2.21-1.32,4.41-2,6.59l-.72,2.31c-1.15,3.72-2.35,7.35-3.56,10.99l-.28.82c-.6,1.8-1.19,3.57-1.78,5.26-1.82,5.47-3.81,11.13-5.94,16.72-2.03,5.71-4.37,11.78-6.78,17.77-2.2,5.73-4.68,11.69-7.21,17.64-2.44,5.79-5.05,11.75-7.74,17.56-2.42,5.39-5.01,10.94-7.68,16.5l-1.21,2.43c-2.26,4.81-4.9,10.02-7.62,15.24-2.96,5.87-5.92,11.41-8.93,17.01-3.64,6.71-7.33,13.28-11.15,19.78-2.45,4.29-5.11,8.74-7.76,13.18-.03.05-.06.09-.09.14-.06.11-.13.21-.19.32-3.3,5.46-6.68,10.85-10.13,16.24-6.15,9.61-11.93,18.31-17.67,26.62-2.62,3.83-5.37,7.66-8.11,11.48-2.26,3.17-4.54,6.31-6.9,9.53-3.5,4.78-7.05,9.48-10.62,14.18-3.57,4.66-7.07,9.09-10.65,13.6-2.06,2.58-4.08,5.1-6.1,7.55l-11.04,13.25c-6.58,7.72-13.35,15.43-20.14,22.92-3.08,3.5-6.49,7.13-9.91,10.75l-7.68,8.18c-3.83,3.98-7.36,7.65-11.03,11.25-4.88,4.95-10.15,10.15-15.43,15.29-4.27,4.13-8.49,8.14-12.79,12.09-.8.79-1.61,1.55-2.42,2.24-4.34,4.12-8.74,8.1-13.22,12.09-8.68,7.72-17.24,15.11-25.45,21.96l-6.31,5.28c-4.54,3.72-8.96,7.29-13.44,10.85-15.44,12.26-31.5,24.28-47.7,35.72-.13.09-.54.37-.77.53-.06.04-.11.08-.17.12-125.1,87.97-271.66,131.95-418.18,131.95Zm-409.31-177.19c4.8,3.47,9.61,6.94,14.41,10.34,235.81,166.37,552.87,166.61,788.96.59h0c.33-.23.68-.48.89-.61,15.56-10.99,30.97-22.53,45.8-34.3,4.31-3.42,8.56-6.85,12.74-10.27l6.22-5.19c7.87-6.57,16.1-13.67,24.45-21.1,4.29-3.82,8.53-7.64,12.69-11.6.36-.35.74-.68,1.13-1l.39-.39c.21-.21.43-.42.65-.62,4.13-3.79,8.19-7.65,12.25-11.57,5.02-4.89,10.09-9.89,15.01-14.88,3.63-3.56,6.87-6.93,10.17-10.36l7.34-7.83c3.37-3.58,6.48-6.88,9.46-10.25,6.68-7.38,13.17-14.77,19.46-22.15l10.53-12.64c1.97-2.39,3.86-4.76,5.76-7.13,3.38-4.25,6.73-8.49,10.07-12.86,3.35-4.43,6.78-8.96,10.14-13.55,2.25-3.06,4.43-6.07,6.61-9.14,2.61-3.64,5.18-7.22,7.68-10.87,5.51-7.97,11.02-16.27,16.9-25.45,3.25-5.08,6.44-10.17,9.57-15.33.05-.08.1-.17.15-.25h0c2.52-4.22,5.04-8.44,7.49-12.73,3.71-6.31,7.16-12.46,10.53-18.68,2.81-5.22,5.6-10.45,8.31-15.81.04-.08.28-.57.33-.65,2.45-4.71,4.85-9.43,7.1-14.21l1.29-2.6c2.33-4.85,4.77-10.06,7.13-15.34,2.59-5.6,5.01-11.1,7.29-16.53,2.39-5.6,4.67-11.11,6.82-16.68,2.32-5.77,4.46-11.31,6.46-16.92,2.08-5.46,3.87-10.56,5.59-15.73l1.94-5.76c1.12-3.37,2.24-6.73,3.3-10.16l.77-2.48c.61-1.95,1.23-3.92,1.79-5.9.12-.45.26-.89.42-1.32.2-.59.36-1.15.52-1.73l3.49-12.14c1.15-4.19,2.35-8.64,3.49-13.05,22.78-163.52-34.2-352.86-160.51-533.31-114.93-164.18-277.89-309.16-447.12-397.74-79.24-41.51-173.86-41.51-253.1,0-169.23,88.58-332.2,233.55-447.12,397.74-126.3,180.44-183.27,369.77-160.51,533.29,1.2,4.59,2.4,9.13,3.66,13.67.91,3.42,1.82,6.53,2.79,9.69.52,1.87.93,3.21,1.33,4.49,1.1,3.66,2.12,7.04,3.2,10.43,1.37,4.3,2.8,8.57,4.22,12.78,1.91,5.73,3.92,11.36,6,16.93,2.11,5.89,4.25,11.44,6.45,16.92,2.16,5.52,4.34,10.8,6.57,16.08.04.1.08.2.12.3.2.39.38.79.54,1.18,4.12,9.87,8.84,20.27,14.42,31.8.13.28.26.56.38.84.26.47.52.94.74,1.43,2.27,4.79,4.66,9.58,7.12,14.3,2.54,4.93,5.08,9.75,7.63,14.57l.4.72c3.33,6.06,6.65,12.11,10.04,18.04,1.72,2.95,3.59,6.07,5.44,9.18l2.42,4.07c3.67,6.07,7.49,12.14,11.37,18.2,2.57,4.1,5.17,8.04,7.78,11.91,4.52,6.84,9.33,13.82,14.78,21.48,2.21,3.17,4.35,6.16,6.56,9.08.09.13.52.71.62.85l-.28-.31c.47.53.91,1.09,1.32,1.66,2.52,3.53,5.17,7,7.82,10.48l2.26,2.98c8.09,10.5,16.9,21.4,26.07,32.25,3.03,3.57,6.15,7.16,9.26,10.69,4.15,4.79,8.17,9.28,12.26,13.77,4.23,4.56,8.6,9.21,12.96,13.86,4.13,4.33,8.43,8.69,12.74,13.06,4.6,4.67,8.99,8.99,13.44,13.24,4.62,4.48,9.11,8.77,13.67,12.99,4.47,4.21,8.88,8.17,13.35,12.19l.67.61c4.63,4.15,9.33,8.24,14.1,12.33,4.77,4.09,9.55,8.18,14.46,12.21,4.85,3.96,9.33,7.61,13.83,11.25.32.23.64.47.95.71,5.01,3.98,10.01,7.89,15.03,11.73,4.56,3.45,9.29,6.99,14.03,10.53.83.55,1.6,1.11,2.37,1.72Zm-26.4,32.57s.01,0,.02.02c0,0-.01-.01-.02-.02Zm934.16-106.12c-.05.04-.1.08-.15.12.05-.04.1-.08.15-.12Zm-1197.55-279.88s0,.02.01.03c0,0,0-.02-.01-.03Zm-1.28-3.18s0,0,.01.02c0,0,0-.01-.01-.02Zm1455.17-96.13h.06-.06Z"/>
      <g>
        <g>
          <path class="cls-4" d="m2587.23,2160.03c-1.29,3.93-2.69,7.91-4.15,12-38.86,99.53-115.07,152.58-161.22,92.52l27.53-135.2,18.73-91.91c72-49.18,168-27.08,119.1,122.58Z"/>
          <path class="cls-13" d="m2468.02,2292.39c-18.31,0-34.83-8.98-48.14-26.31l-.69-.9,46.69-229.21.84-.57c39.31-26.85,83.55-31.5,110.07-11.6,17.27,12.96,41.91,47.99,12.81,137.02h0c-1.29,3.95-2.7,7.95-4.17,12.06-25.97,66.53-68.8,113.18-109.13,118.92-2.79.4-5.56.6-8.28.6Zm-43.48-28.47c14.01,17.76,31.61,25.68,51.05,22.92,38.58-5.5,79.86-50.92,105.16-115.73,1.43-4,2.83-7.96,4.1-11.87h0c20.84-63.79,16.91-110.47-11.07-131.47-24.63-18.49-66.1-13.97-103.41,11.16l-45.83,224.97Z"/>
        </g>
        <g class="cls-17">
          <path class="cls-13" d="m2587.23,2160.03c-1.29,3.93-2.69,7.91-4.15,12-38.86,99.53-115.07,152.58-161.22,92.52l27.53-135.2c6.45-.5,10.32-.79,10.32-.79,27.98,87.53,68.64,95.33,121.96,23.33,0,0,2.02,2.97,5.55,8.13Z"/>
        </g>
        <path class="cls-13" d="m2468.13,2306.69c-22.72,0-43.6-11.08-59.59-31.88-2.98-3.87-4.12-8.83-3.15-13.61l46.26-227.1c.87-4.29,3.38-8.07,6.99-10.53,44.91-30.67,96.21-34.92,127.62-10.56,21.08,16.34,50.75,59.47,12.64,164.75-28.36,72.66-74.5,121.64-120.57,128.2-3.44.49-6.84.73-10.21.73Zm-28.14-46.79c9.9,10.37,20.97,14.54,33.6,12.75,33.03-4.71,70.73-47.61,93.82-106.74,22.38-61.87,21.8-108.06-1.76-126.32-18.42-14.28-51.65-10.79-82.44,8.13l-43.22,212.18Z"/>
        <g>
          <path class="cls-4" d="m1412.77,2160.03c1.29,3.93,2.69,7.91,4.15,12,38.86,99.53,115.07,152.58,161.22,92.52l-27.53-135.2-18.73-91.91c-72-49.18-168-27.08-119.1,122.58Z"/>
          <path class="cls-13" d="m1531.99,2293.39c-2.77,0-5.58-.2-8.43-.61-40.68-5.79-83.82-52.69-109.89-119.48-1.51-4.22-2.92-8.23-4.22-12.18h0c-29.28-89.62-4.32-125.01,13.17-138.13,26.86-20.16,71.56-15.51,111.22,11.58l1.17.8,46.87,230.05-.98,1.26c-13.52,17.59-30.29,26.7-48.92,26.7Zm-115.9-134.44c1.28,3.9,2.67,7.85,4.12,11.91,25.13,64.38,66.1,109.56,104.33,115,19.18,2.72,35.93-4.73,49.85-22.19l-45.66-224.12c-36.88-24.71-77.71-29.14-101.92-10.97-27.61,20.72-31.42,67.01-10.72,130.36h0Z"/>
        </g>
        <g class="cls-18">
          <path class="cls-6" d="m1515.95,2288.24c-35.61-11.89-72.34-54.84-95.66-114.56-1.46-4.09-2.86-8.07-4.15-12-48.9-149.66,47.1-171.76,119.1-122.58l.34,1.68c-65.1-24.62-130.77,9.53-88.6,138.67,1.29,3.93,2.69,7.91,4.15,12,16.54,42.45,39.93,76.43,64.82,96.79Z"/>
        </g>
        <path class="cls-13" d="m1531.88,2306.69c-3.37,0-6.77-.24-10.21-.73-46.06-6.57-92.21-55.54-120.42-127.81-38.26-105.68-8.58-148.81,12.49-165.15,31.42-24.35,82.7-20.11,127.62,10.56,3.61,2.47,6.12,6.25,6.99,10.53l46.27,227.1c.98,4.78-.17,9.74-3.15,13.61-16,20.8-36.87,31.88-59.59,31.88Zm-68.34-275.86c-11.45,0-21.58,2.87-29.19,8.76-23.56,18.26-24.15,64.45-1.61,126.72,22.94,58.74,60.64,101.64,93.67,106.35,12.65,1.79,23.69-2.38,33.6-12.75l-43.23-212.18c-18.07-11.11-36.99-16.89-53.25-16.89Z"/>
        <g>
          <path class="cls-4" d="m2457.98,2132.78v77.72c0,133.68-63.98,260.47-174.17,336.17-1.57,1.07-3.14,2.07-4.65,3.14-168.06,112.65-388.09,112.65-556.15.06-1.51-1.07-3.08-2.13-4.65-3.2-110.24-75.64-174.22-202.43-174.22-336.17v-77.72s.28-4.99.84-13.96c4.15-70.93,22.93-389.22,25.96-397.35,100.04-269.27,1100.19-203.27,887.05,411.31Z"/>
          <path class="cls-13" d="m2001.02,2638.23c-97.47,0-194.92-28.49-279.96-85.47-1.42-1-2.81-1.95-4.22-2.9-110.51-75.82-176.21-202.58-176.21-339.37v-77.72c0-.2.29-5.19.85-14.18,6.84-117,23.08-390.06,26.18-398.35,26.25-70.68,115.28-123.05,244.23-143.68,124.48-19.91,269.47-6.42,387.86,36.09,118.2,42.45,380.19,178.13,261.73,520.7v77.13c0,136.72-65.67,263.47-175.68,339.05l-1.81,1.21c-.95.63-1.89,1.26-2.81,1.91-85.09,57.04-182.62,85.57-280.14,85.57Zm-71.15-1063.7c-39.97,0-79.36,2.94-116.88,8.94-126.4,20.21-213.43,70.95-238.78,139.21-2.42,8.95-15.39,219.12-25.76,396.33-.56,8.96-.84,13.95-.84,13.95v77.52c0,134.49,64.57,259.08,172.72,333.29,1.88,1.28,3.31,2.25,4.69,3.22,167.69,112.35,384.47,112.32,552.19-.1.91-.64,1.89-1.3,2.89-1.96l1.74-1.17c108.1-74.26,172.64-198.86,172.64-333.28l.19-78.86c116.91-337.08-140.98-470.62-257.29-512.39-81.64-29.32-176.06-44.71-267.51-44.71Z"/>
        </g>
        <g class="cls-17">
          <path class="cls-13" d="m2457.98,2132.78v77.72c0,133.68-63.98,260.47-174.17,336.17-1.57,1.07-3.14,2.07-4.65,3.14-168.06,112.65-388.09,112.65-556.15.06-1.51-1.07-3.08-2.13-4.65-3.2-3.48-2.41-6.95-4.88-10.37-7.4,158.13,76.88,347.66,65.44,496.43-34.32,1.51-1.07,3.08-2.07,4.65-3.14,110.19-75.7,174.17-202.49,174.17-336.17l6.65-97.97c72.34-208.54-1.71-333.64-126.2-424.14,169.4,83.5,280.04,241.96,194.3,489.25Z"/>
        </g>
        <g class="cls-17">
          <path class="cls-13" d="m2457.98,2132.78v31.57c-50.24-74.02-59.94-276-59.94-276-43.93,47.7-290.63,102.7-463.77,10.73-9.34-4.96-19.59,4.96-14.9,14.44,2.11,4.27,2.97,5.71,2.97,5.71-22.77,14.1-130.04.36-188.23-33.5-16.18-9.42-36.82.78-39.72,19.28-13.04,83.19-54.46,141.11-143.08,227.77-2.19-4.65-4.32-9.31-6.34-13.96,4.15-70.93,22.93-389.22,25.96-397.35,100.04-269.27,1100.19-203.27,887.05,411.31Z"/>
        </g>
        <g class="cls-18">
          <path class="cls-6" d="m2190.67,2596.96c-151.96,62.3-327.81,46.6-467.66-47.1-1.51-1.07-3.08-2.13-4.65-3.2-110.24-75.64-174.22-202.43-174.22-336.17v-77.72s23.38-402.17,26.8-411.31c21.03-56.58,81.76-98.36,162.67-123.36-60.84,25.4-105.53,62.13-122.97,109.01-3.42,9.2-26.8,411.31-26.8,411.31v77.72c0,133.74,63.98,260.52,174.22,336.23,1.57,1.01,3.3,1.87,4.71,3.14,109.12,98.8,285.7,106.15,427.91,61.46Z"/>
        </g>
        <path class="cls-13" d="m2001.06,2651.58c-100.05,0-200.09-29.25-287.39-87.76-1.61-1.08-3.22-2.17-4.83-3.27-113.67-78-181.53-208.86-181.53-350.06v-77.72c0-.33,0-.65.03-.98,23.52-404.37,26.77-413.35,27.83-416.21h0c61.56-165.64,408.38-201.92,649.14-115.45,114.68,41.19,201.51,106.52,251.12,188.91,58.37,96.97,64.89,213.55,19.38,346.54v74.9c0,141.16-67.84,272.02-181.49,350.03l-4.79,3.25c-87.31,58.54-187.39,87.81-287.46,87.81Zm-440.11-518.32v77.23c0,130.1,62.41,250.6,166.93,322.33,1.5,1.03,3,2.04,4.51,3.05,163.25,109.41,374.18,109.39,537.38-.03l4.49-3.05c104.51-71.75,166.9-192.23,166.9-322.3v-77.72c0-1.88.31-3.74.93-5.51,113.02-325.81-136.6-455.03-249.16-495.46-243.97-87.62-554.44-39.1-605.76,94.29-3.11,21.73-17.29,253.84-26.22,407.17Zm25.76-405.95h0,0Zm.12-.33c-.04.1-.08.22-.11.31.03-.09.07-.2.11-.31Zm-15.89-5.53h.06-.06Z"/>
        <g>
          <path class="cls-5" d="m2452.71,1556.61c126.17,161.22,110.47,441.76,4.21,588.79-81.31-44.86-86.69-257.05-86.69-257.05-192.45,52.37-387.2,20.41-563.78-131.72-3.76,59.78,46.32,115.23,46.32,115.23-22.71-.67-43.07-3.98-61.35-9.48-63.87-19.12-101.89-65.38-125.16-123.53-22.43,201.87-23.83,246.73-122.13,393.93-98.13-210.28-116.19-469.63,47.38-547.18-228.06-78.5-143.94-237.42,52.32-96.28-96.28-138.34,25.23-191.66,50.47-39.25,141.93-259.23,765.42-168.22,849.93,126.17l-91.29-19.57c-.17-.06-.22-.06-.22-.06Z"/>
          <path class="cls-13" d="m2457.93,2149.95l-2.71-1.49c-76.52-42.21-87.08-223.91-88.35-255.59-204.43,54.33-391.81,11.01-557.14-128.83.54,54.84,45.15,104.96,45.62,105.48l5.48,6.07-8.17-.24c-22.25-.66-43.2-3.89-62.26-9.62-55.24-16.54-95.31-53.64-122.14-113.22l-1.23,11.07c-19.95,180.76-25.31,229.34-120.01,371.14l-3.45,5.16-2.62-5.62c-98.83-211.8-115.26-465.8,41.63-548.11-92.12-33.44-128.34-78.49-131.34-110.06-1.57-16.49,5.51-30.13,19.94-38.41,27.03-15.52,82.63-12.74,159.94,38.6-32.39-52.99-31.48-91.35-19.78-108.93,6.85-10.3,17.6-14.75,29.36-12.21,19.68,4.23,43.98,28.84,55.3,84.91,78.05-129.67,266.35-158.35,418.82-141.4,181.68,20.19,385.94,113.55,432.75,276.61l1.6,5.6-87.98-18.86c122.42,165.59,101.16,443.43-1.47,585.43l-1.81,2.5Zm-84.33-266.14l.11,4.45c.06,2.08,6.12,205.94,82.21,252.52,101.15-142.95,120.22-420.78-5.96-582.02l-4.42-5.65,8.54.25,85.11,18.22c-48.97-156.47-247.88-246.27-425.12-265.97-153.42-17.06-343.46,12.38-416.7,146.14l-4.86,8.88-1.65-9.98c-9.83-59.37-33.94-84.86-51.6-88.65-8.97-1.92-16.81,1.35-22.07,9.25-11.56,17.38-10.77,58.2,29.52,116.09l11.65,16.74-16.56-11.91c-82.39-59.25-141.54-63.11-167.12-48.41-11.91,6.83-17.75,18.09-16.46,31.69,2.75,28.89,39.6,74.22,134.44,106.86l8.11,2.79-7.75,3.67c-159.24,75.5-144.88,326.09-48.33,536.88,90.42-136.39,95.86-185.64,115.41-362.82l4.24-38.2,5.18,12.94c25.91,64.74,66.11,104.48,122.91,121.49,16.22,4.87,33.88,7.89,52.58,8.98-12.94-16.26-45.16-62.06-42.04-111.61l.44-7.02,5.32,4.59c165.97,142.98,354.56,187.07,560.58,130.99l4.3-1.17Z"/>
        </g>
        <g class="cls-17">
          <path class="cls-13" d="m1642.91,1703.71c8.36,16.14,15.99,34.33,21.04,55.89-20.36,184.43-25.01,231.14-119.83,373.18-11.1-23.83-21.2-48.22-30.06-72.95,77.86-120.78,86.96-189,104.95-351.72,1.38-12.51,18.11-15.57,23.9-4.4Z"/>
        </g>
        <g class="cls-18">
          <path class="cls-6" d="m1606.76,1465.37c-123.48-52.32-168.17,38.13-47.89,107.55-173.61-75.7-111.7-198.95,47.89-107.55Z"/>
        </g>
        <g class="cls-18">
          <path class="cls-6" d="m1587.58,1587.56c.11.05.23.1.35.16,15.54,6.87,18.83,27.27,5.75,38.12-111.72,92.63-107.47,301.06-33.74,482.77-4.93,7.74-10.21,15.81-15.81,24.17-97.35-208.6-115.91-465.42,43.46-545.22Z"/>
        </g>
        <g class="cls-18">
          <path class="cls-6" d="m1636.14,1487.07l-.38-.21c-65.16-100.32-5.87-158.09,33.72-111.83-21.87,3.23-34.85,37.04-10.57,90.55,6.44,14.19-9.09,28.96-22.77,21.49Z"/>
        </g>
        <g class="cls-18">
          <path class="cls-6" d="m2420.46,1424.83c-107.44-49.57-251.33-82.71-381.93-83.33-20.13,38.64-87.98,36.73-116.52,9.25-73.46,13.18-135.65,40.99-174.45,87.36-11.1,13.29-32.8,12.39-41.55-2.58-.5-.79-.95-1.63-1.35-2.58,121.68-155.16,532.15-167.94,715.8-8.13Z"/>
        </g>
        <path class="cls-13" d="m2456.9,2162.22c-2.76,0-5.55-.68-8.11-2.1-74.19-40.93-90.76-192.06-94.41-250.33-191.53,46.45-368.07,8.36-525.72-113.33,11.4,35.68,36.28,63.77,36.62,64.14,4.49,5.01,5.58,12.23,2.74,18.33-2.77,5.95-8.72,9.74-15.25,9.74-.17,0-.34,0-.52,0-77.24-2.37-136.02-33.56-175.37-92.88-17.77,158.64-27.88,210.25-118.76,346.33-3.37,5.05-9.16,7.88-15.27,7.43-6.06-.46-11.4-4.15-13.96-9.66-96.43-206.65-115.04-453.1,24.03-551.2-79.54-34.56-111.85-78.93-114.93-111.33-2.06-21.68,7.63-40.35,26.58-51.23,25.46-14.62,72.24-15.69,135.04,16.23-13.85-37.68-10.23-66.01.67-82.38,9.91-14.87,26.1-21.55,43.25-17.86,24.71,5.31,45.21,29.39,57.89,66.6,88.95-114.23,268.21-139.59,414.9-123.3,186.1,20.68,395.58,117.19,444.08,286.18,1.64,5.68.16,11.8-3.87,16.12-4.03,4.32-10.03,6.2-15.83,4.97l-50.05-10.74c45.54,74.7,69.53,170.49,68.15,274.6-1.52,114.33-33.68,223.2-88.25,298.71-3.27,4.52-8.4,6.97-13.65,6.97Zm-86.69-290.69c3.58,0,7.11,1.14,10.05,3.33,4.14,3.08,6.64,7.9,6.77,13.06,1.35,52.27,15.95,188.09,65.7,233.78,91.65-142.01,106.14-402.13-13.27-554.72-4.37-5.58-4.77-13.29-1.01-19.29,3.75-6.01,10.84-9.01,17.79-7.53l62.09,13.32c-58.3-137.15-241.44-216.36-405.74-234.62-187.43-20.82-345.81,33.85-403.53,139.29-3.45,6.3-10.51,9.71-17.58,8.51-7.07-1.2-12.6-6.76-13.78-13.84-9.36-56.54-31.08-75.61-41.25-77.8-2.5-.54-5.42-.54-8.18,3.6-6.93,10.41-9.71,44.94,29.36,101.09,4.68,6.73,3.83,15.85-2,21.6-5.85,5.74-14.98,6.45-21.63,1.67-72.29-51.99-128.79-61.39-152.7-47.67-7.41,4.25-10.63,10.42-9.82,18.86,2.55,26.92,42.36,66.9,125.51,95.52,6.47,2.22,10.94,8.14,11.32,14.97.38,6.83-3.41,13.21-9.59,16.14-87.98,41.71-109.59,136.8-112.22,209.22-3.12,85.86,18.77,189.27,60.46,287.74,75.8-118.18,81.17-166.85,99.89-336.41l2.69-24.36c.86-7.67,6.82-13.77,14.46-14.81,7.66-1.04,15.02,3.27,17.88,10.42,27.09,67.74,71.55,106.84,135.38,118.69-14.46-23.88-29.93-58.69-27.6-95.72.4-6.37,4.37-11.97,10.26-14.45,5.88-2.48,12.67-1.42,17.51,2.76,162.41,139.91,346.89,183.06,548.38,128.23,1.45-.4,2.94-.59,4.41-.59Z"/>
        <path class="cls-13" d="m2370.21,1905.17c-7.42,0-14.22-4.95-16.23-12.46-2.42-8.97,2.9-18.2,11.87-20.62,20.89-5.62,42.02-12.37,62.79-20.06,8.72-3.22,18.39,1.22,21.62,9.94,3.22,8.71-1.23,18.39-9.94,21.62-21.74,8.05-43.85,15.11-65.74,20.99-1.46.39-2.93.58-4.38.58Z"/>
        <g class="cls-17">
          <path class="cls-13" d="m2456.91,2145.39c-81.31-44.86-86.69-257.05-86.69-257.05-192.45,52.37-387.2,20.41-563.78-131.72-3.76,59.78,46.32,115.23,46.32,115.23-22.71-.67-43.07-3.98-61.35-9.48-92.07-151.74-52.88-187.51,79.51-140.86,367.4,118.54,634.88,137.1,581.78-164.92,126.17,161.22,110.47,441.76,4.21,588.79Z"/>
        </g>
        <g class="cls-14">
          <path class="cls-1" d="m2363.64,1696.81c0,25.48-49.89,46.14-111.44,46.14s-111.44-20.66-111.44-46.14,49.89-26.14,111.44-26.14,111.44.66,111.44,26.14Z"/>
        </g>
        <path class="cls-13" d="m2060.01,2443.85s-24.13,15.41-87.01,15.41c-13.64.94-52.68-1.2-102.02-46.25,0,0,22.79,65.69,100.55,65.69,0,0,44.24,4.02,88.48-34.86Z"/>
        <path class="cls-13" d="m1702.98,2151.91c5.28-17.16,17.92-31.43,33.5-41.15,15.66-9.7,34.42-14.67,53.02-14.47,18.62.13,37.12,5.47,52.61,15.12,15.42,9.68,28.07,23.55,33.98,40.5-16.92-5.81-31.34-10.46-45.56-13.45-14.13-3.05-27.76-4.56-41.36-4.75-13.61-.14-27.19,1.06-41.19,4.04-14.1,2.91-28.34,7.67-44.99,14.16Z"/>
        <path class="cls-13" d="m2305.88,2151.91c-16.64-6.49-30.89-11.25-44.99-14.16-14.01-2.98-27.59-4.18-41.19-4.04-13.61.19-27.23,1.7-41.36,4.75-14.23,2.99-28.64,7.63-45.56,13.45,5.91-16.95,18.56-30.83,33.98-40.5,15.48-9.65,33.98-14.99,52.61-15.12,18.61-.2,37.37,4.77,53.02,14.47,15.58,9.71,28.21,23.99,33.5,41.15Z"/>
        <ellipse class="cls-13" cx="1806.44" cy="2254.39" rx="57.83" ry="76.29"/>
        <g>
          <ellipse class="cls-6" cx="1821.21" cy="2236.69" rx="17.47" ry="25.62"/>
          <path class="cls-13" d="m1821.22,2265.81c-11.76,0-20.97-12.79-20.97-29.11s9.21-29.11,20.97-29.11,20.96,12.79,20.96,29.11-9.21,29.11-20.96,29.11Zm0-51.23c-7.58,0-13.98,10.13-13.98,22.12s6.41,22.12,13.98,22.12,13.98-10.13,13.98-22.12-6.4-22.12-13.98-22.12Z"/>
        </g>
        <ellipse class="cls-13" cx="2206.3" cy="2254.39" rx="57.83" ry="76.29"/>
        <g>
          <ellipse class="cls-6" cx="2191.53" cy="2236.69" rx="17.47" ry="25.62"/>
          <path class="cls-13" d="m2191.53,2265.81c-11.76,0-20.97-12.79-20.97-29.11s9.21-29.11,20.97-29.11,20.96,12.79,20.96,29.11-9.21,29.11-20.96,29.11Zm0-51.23c-7.58,0-13.98,10.13-13.98,22.12s6.41,22.12,13.98,22.12,13.98-10.13,13.98-22.12-6.4-22.12-13.98-22.12Z"/>
        </g>
      </g>
    </g>
    <g class="cls-21">
      <polygon class="cls-3" points="2687.93 3653.21 1344.52 3653.24 884.29 1929.94 3143.68 1949.63 2687.93 3653.21"/>
    </g>
    <g>
      <g>
        <path class="cls-11" d="m2845.55,3611.68c-8.97,44.34-32.96,82.5-66.05,109.59-33.09,27.03-75.26,42.98-120.53,42.98h-1285.49c-90.54,0-168.59-63.82-186.58-152.57h1658.66Z"/>
        <path class="cls-13" d="m2658.96,3767.74h-1285.49c-91.84,0-171.76-65.34-190.01-155.37l-.85-4.19h1667.21l-.85,4.19c-8.84,43.68-32.72,83.32-67.26,111.6-34.56,28.23-78.15,43.77-122.75,43.77Zm-1467.76-152.57c19.19,84.61,95.16,145.58,182.26,145.58h1285.49c42.99,0,85.01-14.98,118.33-42.19,32.18-26.36,54.77-62.94,63.94-103.38h-1650.02Z"/>
      </g>
      <path class="cls-13" d="m2658.99,3785.21h-1285.5c-100.13,0-187.23-71.22-207.12-169.35-1.25-6.16.33-12.56,4.32-17.43,3.98-4.87,9.94-7.69,16.23-7.69h1658.65c6.29,0,12.25,2.82,16.23,7.69,3.98,4.87,5.57,11.27,4.32,17.44-19.89,98.13-107,169.35-207.12,169.35Zm-1444.36-152.55c24.27,65.4,87.43,110.62,158.86,110.62h1285.5c71.43,0,134.59-45.22,158.87-110.62h-1603.23Z"/>
      <g class="cls-17">
        <path class="cls-13" d="m2845.55,3611.68c-8.97,44.34-32.96,82.5-66.05,109.59-33.09,27.03-75.26,42.98-120.53,42.98h-795.13c130.68-6.18,246.51-42.24,346.2-111.01,0,0,6.87-16.76,22.08-41.56h613.43Z"/>
      </g>
      <g>
        <path class="cls-11" d="m2845.05,2805.6l-67.1,765.14c-4.08,46.69-43.17,82.5-90.05,82.5h-1343.38c-46.82,0-85.9-35.81-90.05-82.5l-67.04-765.14c-6.62-75.14,52.63-139.83,128.02-139.83h1401.51c24.68,0,47.62,6.93,67.1,18.86,40.07,24.61,65.43,70.44,60.98,120.97Z"/>
        <path class="cls-13" d="m2687.9,3656.73h-1343.37c-48.98,0-89.2-36.84-93.53-85.69l-67.04-765.14c-3.24-36.79,9.21-73.52,34.16-100.77,24.95-27.24,60.43-42.86,97.33-42.86h1401.51c24.4,0,48.23,6.7,68.93,19.38,43.06,26.45,67.06,74.06,62.63,124.26h0s-67.1,765.13-67.1,765.13c-4.27,48.85-44.47,85.69-93.53,85.69Zm-1372.44-987.47c-34.96,0-68.56,14.79-92.18,40.6-23.64,25.8-35.43,60.59-32.36,95.43l67.04,765.14c4.01,45.22,41.23,79.31,86.57,79.31h1343.37c45.4,0,82.61-34.1,86.57-79.31l67.1-765.14c4.19-47.53-18.54-92.63-59.33-117.68-19.59-12-42.16-18.34-65.27-18.34h-1401.51Z"/>
      </g>
      <g class="cls-16">
        <path class="cls-6" d="m2823.65,2722.55c-16.39-7.67-34.69-11.94-54.11-11.94h-1401.51c-75.39,0-134.63,64.69-128.02,139.83l67.04,765.14c1.05,11.94,4.39,23.13,9.59,33.21-33.64-10.88-58.88-41.06-62.15-78.05l-67.04-765.14c-6.62-75.14,52.63-139.83,128.02-139.83h1401.51c44.65,0,83.68,22.7,106.68,56.77Z"/>
      </g>
      <path class="cls-13" d="m2687.93,3674.18h-1343.39c-58.15,0-105.84-43.69-110.93-101.62l-67.09-765.15c-3.65-41.66,10.45-83.23,38.7-114.07,28.25-30.83,68.44-48.52,110.25-48.52h1401.51c41.82,0,82,17.68,110.25,48.52,28.25,30.84,42.35,72.41,38.7,114.07l-67.09,765.14c-5.08,57.94-52.77,101.63-110.93,101.63Zm-1372.45-987.43c-30.53,0-58.71,12.4-79.34,34.91-20.62,22.51-30.51,51.66-27.85,82.08l67.09,765.14c3.17,36.12,32.9,63.36,69.15,63.36h1343.39c36.26,0,65.99-27.24,69.15-63.36l67.09-765.14c2.67-30.42-7.22-59.57-27.85-82.08-20.63-22.51-48.8-34.91-79.34-34.91h-1401.51Z"/>
      <g class="cls-17">
        <path class="cls-13" d="m2845.05,2805.6l-67.1,765.14c-4.08,46.69-43.17,82.5-90.05,82.5h-1211.78c745.66-58.69,1207.01-359.93,1307.7-968.67l.25.06c40.07,24.61,65.43,70.44,60.98,120.97Z"/>
      </g>
      <g class="cls-17">
        <path class="cls-6" d="m1525.54,3308l-84.15,7.88c-21.82,2.04-41.17-13.99-43.21-35.81l-28.91-308.9c-2.04-21.82,13.99-41.17,35.81-43.21l84.15-7.88c21.82-2.04,41.17,13.99,43.21,35.81l28.91,308.9c2.04,21.82-13.99,41.17-35.81,43.21Z"/>
      </g>
      <g>
        <path class="cls-8" d="m2132.48,3328.65l-15.38,12.34-1.84,39c-.5,10.5-9.87,18.71-20.94,18.42h-.09c-11.06-.29-19.75-8.97-19.42-19.46l.53-16.5c.1-3.22-2.56-5.91-5.95-5.99h0c-3.39-.08-6.21,2.46-6.29,5.69l-.45,16.49c-.29,10.49-9.47,18.69-20.51,18.41h0c-11.03-.29-19.86-8.96-19.73-19.44l.17-13.78c.06-4.71-3.9-8.64-8.85-8.76h0c-4.95-.12-8.98,3.6-9,8.31l-.08,13.78c-.06,10.48-9.04,18.68-20.04,18.39h0c-11-.29-19.99-8.95-20.08-19.42l-.15-16.47c-.03-3.22-2.78-5.9-6.15-5.98h0c-3.37-.08-6.06,2.46-6.02,5.68l.22,16.46c.14,10.47-8.65,18.66-19.62,18.38h-.09c-10.97-.29-20.1-8.94-20.39-19.4l-1.11-38.87-14.97-13.01c-38.88-33.77-63.18-82.55-66.05-134.61-5.92-107.38,77.52-199.52,186.91-197.8,110.01,1.73,193.01,97.41,184.96,205.57-3.9,52.41-29.53,100.47-69.58,132.59h0Z"/>
        <path class="cls-13" d="m2014.09,2990.48c1,0,2,0,3.01.02,110.01,1.73,193.01,97.41,184.96,205.57-3.9,52.4-29.53,100.47-69.58,132.59l-15.37,12.34-1.84,39c-.48,10.32-9.55,18.43-20.37,18.43-.19,0-.38,0-.57,0h-.09c-11.06-.29-19.75-8.97-19.41-19.46l.53-16.5c.1-3.22-2.56-5.91-5.95-5.99h0c-.06,0-.11,0-.16,0-3.31,0-6.04,2.52-6.13,5.69l-.45,16.49c-.28,10.31-9.16,18.41-19.94,18.41-.19,0-.38,0-.57,0-11.03-.29-19.87-8.96-19.73-19.44l.18-13.78c.06-4.7-3.91-8.63-8.85-8.76-.08,0-.16,0-.25,0-4.83,0-8.73,3.68-8.75,8.31l-.08,13.78c-.06,10.3-8.73,18.39-19.48,18.39-.19,0-.38,0-.57,0-11-.29-19.99-8.95-20.08-19.42l-.15-16.47c-.03-3.22-2.78-5.9-6.15-5.98-.05,0-.11,0-.16,0-3.29,0-5.9,2.51-5.86,5.68l.22,16.47c.14,10.29-8.35,18.38-19.06,18.38-.19,0-.37,0-.56,0h-.09c-10.98-.29-20.1-8.94-20.4-19.4l-1.11-38.87-14.97-13.01c-38.88-33.77-63.18-82.55-66.06-134.61-5.87-106.39,75.99-197.82,183.91-197.82m0-33.89h0c-60.22,0-116.11,24.02-157.37,67.62-41.75,44.12-63.75,104.61-60.37,165.96,3.35,60.66,31.66,118.37,77.67,158.33l3.74,3.25.69,24.01c.81,28.57,24.25,51.55,53.38,52.31.57.02,1.05.02,1.53.02,8.68,0,17.01-2,24.45-5.79,7.63,4.32,16.46,6.88,25.91,7.12.48.01.96.02,1.45.02,10.02,0,19.43-2.75,27.46-7.51,8.23,5.43,18.05,8.72,28.62,8.99.48.02.97.02,1.45.02,8.97,0,17.41-2.11,24.82-5.85,7.75,4.46,16.56,6.94,25.83,7.19.56.02,1.04.02,1.53.02,29.07,0,52.89-22.28,54.22-50.73l1.12-23.72,3.46-2.78c47.65-38.21,77.6-95.26,82.16-156.49,4.63-62.14-16.78-124.09-58.71-169.98-41.54-45.46-98.19-71.02-159.51-71.99-1.19-.02-2.36-.03-3.54-.03h0Z"/>
        <g>
          <path class="cls-12" d="m1943.05,3143.99c-29.1-.15-51.49,23.64-50.06,52.75,1.4,28.48,25.35,51.39,53.52,51.6,28.21.21,50.73-22.41,50.24-50.95-.5-29.17-24.56-53.25-53.7-53.4h0Z"/>
          <path class="cls-12" d="m2088.29,3142.52c-29.33-.15-53.2,23.73-53.34,52.94-.13,28.59,22.76,51.58,51.15,51.79,28.43.21,52.36-22.48,53.43-51.13,1.09-29.28-21.87-53.45-51.24-53.6h0Z"/>
        </g>
      </g>
    </g>
  </g>
</svg>