<?xml version="1.0" encoding="UTF-8"?>
<svg id="OBJECTS" xmlns="http://www.w3.org/2000/svg" xmlns:xlink="http://www.w3.org/1999/xlink" viewBox="0 0 500 500">
  <defs>
    <style>
      .cls-1 {
        fill: url(#Degradado_sin_nombre_91-3);
      }

      .cls-1, .cls-2, .cls-3, .cls-4, .cls-5, .cls-6, .cls-7, .cls-8, .cls-9, .cls-10, .cls-11, .cls-12 {
        stroke-width: 0px;
      }

      .cls-2 {
        fill: url(#Degradado_sin_nombre_72);
      }

      .cls-3 {
        fill: url(#Degradado_sin_nombre_88-3);
      }

      .cls-4 {
        fill: url(#Degradado_sin_nombre_88-4);
      }

      .cls-5 {
        fill: url(#Degradado_sin_nombre_88);
      }

      .cls-6 {
        fill: url(#Degradado_sin_nombre_91);
      }

      .cls-7 {
        fill: url(#Degradado_sin_nombre_88-2);
      }

      .cls-8 {
        fill: url(#Degradado_sin_nombre_88-6);
      }

      .cls-9 {
        fill: url(#Degradado_sin_nombre_72-2);
      }

      .cls-10 {
        fill: url(#Degradado_sin_nombre_91-2);
      }

      .cls-11 {
        fill: url(#Degradado_sin_nombre_88-5);
      }

      .cls-12 {
        fill: url(#Degradado_sin_nombre_91-4);
      }
    </style>
    <linearGradient id="Degradado_sin_nombre_72" data-name="Degradado sin nombre 72" x1="142.27" y1="279.2" x2="357.73" y2="279.2" gradientUnits="userSpaceOnUse">
      <stop offset="0" stop-color="#33b1e7"/>
      <stop offset=".48" stop-color="#3ad2db"/>
      <stop offset="1" stop-color="#43fbcd"/>
    </linearGradient>
    <linearGradient id="Degradado_sin_nombre_88" data-name="Degradado sin nombre 88" x1="63.18" y1="161.82" x2="122.76" y2="352.17" gradientUnits="userSpaceOnUse">
      <stop offset="0" stop-color="#ffd025"/>
      <stop offset="1" stop-color="#ff484b"/>
    </linearGradient>
    <linearGradient id="Degradado_sin_nombre_88-2" data-name="Degradado sin nombre 88" x1="66.03" y1="154.12" x2="88.73" y2="226.66" xlink:href="#Degradado_sin_nombre_88"/>
    <linearGradient id="Degradado_sin_nombre_88-3" data-name="Degradado sin nombre 88" x1="72.6" y1="258.22" x2="104.36" y2="359.71" xlink:href="#Degradado_sin_nombre_88"/>
    <linearGradient id="Degradado_sin_nombre_72-2" data-name="Degradado sin nombre 72" x1="196.95" y1="243.21" x2="211.54" y2="295.94" xlink:href="#Degradado_sin_nombre_72"/>
    <linearGradient id="Degradado_sin_nombre_88-4" data-name="Degradado sin nombre 88" x1="301.34" y1="91.46" x2="360.92" y2="281.81" gradientTransform="translate(738.16 429.64) rotate(-180)" xlink:href="#Degradado_sin_nombre_88"/>
    <linearGradient id="Degradado_sin_nombre_88-5" data-name="Degradado sin nombre 88" x1="304.19" y1="83.76" x2="326.9" y2="156.3" gradientTransform="translate(738.16 429.64) rotate(-180)" xlink:href="#Degradado_sin_nombre_88"/>
    <linearGradient id="Degradado_sin_nombre_88-6" data-name="Degradado sin nombre 88" x1="310.77" y1="187.86" x2="342.53" y2="289.35" gradientTransform="translate(738.16 429.64) rotate(-180)" xlink:href="#Degradado_sin_nombre_88"/>
    <linearGradient id="Degradado_sin_nombre_91" data-name="Degradado sin nombre 91" x1="203.7" y1="192.93" x2="214.81" y2="241.07" gradientUnits="userSpaceOnUse">
      <stop offset="0" stop-color="#5632bd"/>
      <stop offset="1" stop-color="#ff6ae3"/>
    </linearGradient>
    <linearGradient id="Degradado_sin_nombre_91-2" data-name="Degradado sin nombre 91" x1="230.87" y1="233.87" x2="203.47" y2="189.19" xlink:href="#Degradado_sin_nombre_91"/>
    <linearGradient id="Degradado_sin_nombre_91-3" data-name="Degradado sin nombre 91" x1="286.7" y1="192.93" x2="297.81" y2="241.07" xlink:href="#Degradado_sin_nombre_91"/>
    <linearGradient id="Degradado_sin_nombre_91-4" data-name="Degradado sin nombre 91" x1="313.87" y1="233.87" x2="286.46" y2="189.19" xlink:href="#Degradado_sin_nombre_91"/>
  </defs>
  <path class="cls-2" d="m305.13,265.26c-17.42,4.6-35.79,6.9-55.13,6.9s-37.71-2.3-55.13-6.9c-17.42-4.6-34.94-11.89-52.6-21.86v41.89c13.81,9.51,29.96,16.84,48.45,21.98,18.5,5.14,38.26,7.72,59.28,7.72,11.2,0,22.05-.73,32.53-2.2,9.19-1.28,18.12-3.13,26.74-5.52,18.5-5.14,34.65-12.47,48.46-21.98v-41.89c-17.64,9.98-35.18,17.26-52.6,21.86Z"/>
  <g>
    <path class="cls-5" d="m93.36,240.91c2.68-4.38,4.02-10.78,4.02-19.23v-29.47c0-5.36,1.38-9.47,4.15-12.31,2.75-2.84,6.9-4.27,12.42-4.27h3.22v-33.37h-14.96c-15.96,0-28.05,3.87-36.25,11.62-8.22,7.75-12.32,18.83-12.32,33.25v35.69c0,3.54-.87,6.15-2.64,7.82-1.78,1.69-4.2,2.53-7.25,2.53h-7.82v33.62h7.82c3.06,0,5.48.84,7.25,2.52,1.76,1.7,2.64,4.31,2.64,7.84v35.67c0,14.43,4.11,25.52,12.32,33.27,8.2,7.75,20.29,11.62,36.25,11.62h14.96v-33.37h-3.22c-5.52,0-9.67-1.43-12.42-4.27-2.77-2.83-4.15-6.93-4.15-12.31v-29.47c0-8.43-1.34-14.86-4.02-19.23-2.69-4.37-7.11-7.4-13.24-9.09,6.13-1.69,10.55-4.72,13.24-9.09Z"/>
    <path class="cls-7" d="m117.17,142.27s-36.08,11.65-36.08,41.95-7.88,67.09-45.17,48.97h7.82c3.06,0,5.48-.84,7.25-2.53,1.76-1.68,2.64-4.28,2.64-7.82v-35.69c0-14.42,4.11-25.5,12.32-33.25,8.2-7.75,20.29-11.62,36.25-11.62h14.96Z"/>
    <path class="cls-3" d="m117.17,324.36v33.37c-48.63-2.1-56.84-42.23-40.62-63.55,16.21-21.31,3.57-44.18,3.57-44.18,6.13,1.69,10.55,4.72,13.24,9.09,2.68,4.37,4.02,10.79,4.02,19.23v29.47c0,5.37,1.38,9.48,4.15,12.31,2.75,2.84,6.9,4.27,12.42,4.27h3.22Z"/>
  </g>
  <path class="cls-9" d="m282.52,312.79c-10.47,1.47-21.32,2.2-32.53,2.2-21.02,0-40.78-2.58-59.28-7.72-18.48-5.14-34.64-12.47-48.45-21.98v-41.89s36.04,62.94,140.25,69.39Z"/>
  <g>
    <path class="cls-4" d="m406.64,259.09c-2.68,4.38-4.02,10.78-4.02,19.23v29.47c0,5.36-1.38,9.47-4.15,12.31-2.75,2.84-6.9,4.27-12.42,4.27h-3.22v33.37h14.96c15.96,0,28.05-3.87,36.25-11.62,8.22-7.75,12.32-18.83,12.32-33.25v-35.69c0-3.54.87-6.15,2.64-7.82,1.78-1.69,4.2-2.53,7.25-2.53h7.82v-33.62h-7.82c-3.06,0-5.48-.84-7.25-2.52-1.76-1.7-2.64-4.31-2.64-7.84v-35.67c0-14.43-4.11-25.52-12.32-33.27-8.2-7.75-20.29-11.62-36.25-11.62h-14.96v33.37h3.22c5.52,0,9.67,1.43,12.42,4.27,2.77,2.83,4.15,6.93,4.15,12.31v29.47c0,8.43,1.34,14.86,4.02,19.23,2.69,4.37,7.11,7.4,13.24,9.09-6.13,1.69-10.55,4.72-13.24,9.09Z"/>
    <path class="cls-11" d="m382.83,357.73s36.08-11.65,36.08-41.95,7.88-67.09,45.17-48.97h-7.82c-3.06,0-5.48.84-7.25,2.53-1.76,1.68-2.64,4.28-2.64,7.82v35.69c0,14.42-4.11,25.5-12.32,33.25-8.2,7.75-20.29,11.62-36.25,11.62h-14.96Z"/>
    <path class="cls-8" d="m382.83,175.64v-33.37c48.63,2.1,56.84,42.23,40.62,63.55-16.21,21.31-3.57,44.18-3.57,44.18-6.13-1.69-10.55-4.72-13.24-9.09-2.68-4.37-4.02-10.79-4.02-19.23v-29.47c0-5.37-1.38-9.48-4.15-12.31-2.75-2.84-6.9-4.27-12.42-4.27h-3.22Z"/>
  </g>
  <g>
    <g>
      <path class="cls-6" d="m229.85,192.19c-5.67-5.54-12.79-8.3-21.35-8.3-3.04,0-5.91.35-8.59,1.06-4.85,1.25-9.1,3.67-12.76,7.24-5.67,5.55-8.49,12.73-8.49,21.54s2.83,15.93,8.49,21.35c5.67,5.42,12.79,8.13,21.35,8.13,4.41,0,8.43-.71,12.07-2.16,3.44-1.34,6.53-3.34,9.28-5.97,5.67-5.42,8.51-12.53,8.51-21.35s-2.84-15.99-8.51-21.54Zm-11.59,31.2c-2.59,2.48-5.84,3.71-9.76,3.71s-7.17-1.24-9.76-3.71c-1.69-1.62-2.83-3.55-3.41-5.83-.32-1.21-.48-2.52-.48-3.93,0-4.03,1.3-7.31,3.89-9.85,2.59-2.53,5.84-3.8,9.76-3.8,2.26,0,4.28.41,6.09,1.27.04.01.1.03.15.06,1.3.61,2.46,1.44,3.52,2.48,2.59,2.53,3.89,5.81,3.89,9.85s-1.3,7.28-3.89,9.76Z"/>
      <path class="cls-10" d="m238.35,213.73c0,8.83-2.84,15.93-8.51,21.35-2.75,2.64-5.84,4.63-9.28,5.97,13.4-18.05,4.31-36.04-5.84-39.75-.04-.03-.1-.04-.15-.06-1.81-.86-3.83-1.27-6.09-1.27-3.92,0-7.17,1.27-9.76,3.8-2.59,2.53-3.89,5.81-3.89,9.85,0,1.41.16,2.72.48,3.93-6.79-15.38,4.3-32.22,4.57-32.61,2.68-.71,5.55-1.06,8.59-1.06,8.56,0,15.69,2.77,21.35,8.3,5.67,5.55,8.51,12.73,8.51,21.54Z"/>
    </g>
    <g>
      <path class="cls-1" d="m312.84,192.19c-5.67-5.54-12.79-8.3-21.35-8.3-3.04,0-5.91.35-8.59,1.06-4.85,1.25-9.1,3.67-12.76,7.24-5.67,5.55-8.49,12.73-8.49,21.54s2.83,15.93,8.49,21.35c5.67,5.42,12.79,8.13,21.35,8.13,4.41,0,8.43-.71,12.07-2.16,3.44-1.34,6.53-3.34,9.28-5.97,5.67-5.42,8.51-12.53,8.51-21.35s-2.84-15.99-8.51-21.54Zm-11.59,31.2c-2.59,2.48-5.84,3.71-9.76,3.71s-7.17-1.24-9.76-3.71c-1.69-1.62-2.83-3.55-3.41-5.83-.32-1.21-.48-2.52-.48-3.93,0-4.03,1.3-7.31,3.89-9.85,2.59-2.53,5.84-3.8,9.76-3.8,2.26,0,4.28.41,6.09,1.27.04.01.1.03.15.06,1.3.61,2.46,1.44,3.52,2.48,2.59,2.53,3.89,5.81,3.89,9.85s-1.3,7.28-3.89,9.76Z"/>
      <path class="cls-12" d="m321.35,213.73c0,8.83-2.84,15.93-8.51,21.35-2.75,2.64-5.84,4.63-9.28,5.97,13.4-18.05,4.31-36.04-5.84-39.75-.04-.03-.1-.04-.15-.06-1.81-.86-3.83-1.27-6.09-1.27-3.92,0-7.17,1.27-9.76,3.8-2.59,2.53-3.89,5.81-3.89,9.85,0,1.41.16,2.72.48,3.93-6.79-15.38,4.3-32.22,4.57-32.61,2.68-.71,5.55-1.06,8.59-1.06,8.56,0,15.69,2.77,21.35,8.3,5.67,5.55,8.51,12.73,8.51,21.54Z"/>
    </g>
  </g>
</svg>