<?xml version="1.0" encoding="UTF-8"?>
<svg xmlns="http://www.w3.org/2000/svg" viewBox="0 0 1920 1080">
  <defs>
    <style>
      .cls-1 {
        fill: #999;
      }

      .cls-1, .cls-2, .cls-3, .cls-4, .cls-5, .cls-6, .cls-7, .cls-8, .cls-9, .cls-10, .cls-11, .cls-12, .cls-13, .cls-14, .cls-15, .cls-16, .cls-17, .cls-18, .cls-19, .cls-20, .cls-21, .cls-22, .cls-23, .cls-24, .cls-25, .cls-26, .cls-27, .cls-28, .cls-29, .cls-30, .cls-31, .cls-32, .cls-33, .cls-34, .cls-35, .cls-36, .cls-37, .cls-38, .cls-39, .cls-40, .cls-41, .cls-42, .cls-43, .cls-44, .cls-45, .cls-46, .cls-47, .cls-48, .cls-49 {
        stroke-width: 0px;
      }

      .cls-1, .cls-5, .cls-8, .cls-50, .cls-51, .cls-13, .cls-52, .cls-53, .cls-37, .cls-54 {
        mix-blend-mode: screen;
      }

      .cls-2 {
        fill: #4fb083;
      }

      .cls-3 {
        fill: #543a20;
      }

      .cls-4 {
        fill: #454545;
      }

      .cls-5 {
        fill: #333;
      }

      .cls-6, .cls-12 {
        fill: #f5f5f5;
      }

      .cls-6, .cls-14, .cls-17, .cls-20, .cls-34, .cls-44, .cls-55, .cls-47, .cls-49 {
        mix-blend-mode: multiply;
      }

      .cls-7 {
        fill: #90c6e8;
      }

      .cls-8 {
        fill: #303030;
      }

      .cls-9 {
        fill: #bababa;
      }

      .cls-56 {
        isolation: isolate;
      }

      .cls-50 {
        stroke-dasharray: 0 12.34;
        stroke-width: 2.96px;
      }

      .cls-50, .cls-51, .cls-53, .cls-54, .cls-57 {
        stroke-linecap: round;
        stroke-linejoin: round;
      }

      .cls-50, .cls-58, .cls-53, .cls-54 {
        fill: none;
      }

      .cls-50, .cls-53 {
        stroke: #7d7d7d;
      }

      .cls-10, .cls-14 {
        fill: #e0e0e0;
      }

      .cls-11 {
        fill: #d9a931;
      }

      .cls-51 {
        fill: #4f4f4f;
      }

      .cls-51, .cls-54 {
        stroke: #4f4f4f;
        stroke-width: 3.13px;
      }

      .cls-13 {
        fill: #171717;
      }

      .cls-58 {
        stroke: #575757;
        stroke-miterlimit: 10;
        stroke-width: .7px;
      }

      .cls-15 {
        fill: gray;
      }

      .cls-16 {
        fill: #b3b3b3;
      }

      .cls-17, .cls-48 {
        fill: #f2f2f2;
      }

      .cls-18 {
        fill: #2b2b2b;
      }

      .cls-19 {
        fill: #3b3b3b;
      }

      .cls-20, .cls-28 {
        fill: #dedede;
      }

      .cls-21 {
        fill: #64a3e3;
      }

      .cls-22 {
        fill: #7a7a7a;
      }

      .cls-23 {
        fill: #4c96e0;
      }

      .cls-24 {
        fill: #fadab4;
      }

      .cls-25, .cls-57 {
        fill: #fff;
      }

      .cls-26 {
        fill: #815932;
      }

      .cls-27 {
        fill: #b0b0b0;
      }

      .cls-53 {
        stroke-dasharray: 0 11.49;
        stroke-width: 2.76px;
      }

      .cls-29 {
        fill: #595959;
      }

      .cls-30 {
        fill: #ffd633;
      }

      .cls-31 {
        fill: #858585;
      }

      .cls-32 {
        fill: #575757;
      }

      .cls-33 {
        fill: #d1d1d1;
      }

      .cls-34 {
        fill: #f7f7f7;
      }

      .cls-35 {
        fill: #ff836e;
      }

      .cls-36 {
        fill: #d9d9d9;
      }

      .cls-37 {
        fill: #666;
      }

      .cls-38, .cls-44 {
        fill: #ebebeb;
      }

      .cls-39 {
        fill: #825024;
      }

      .cls-54 {
        stroke-dasharray: 0 13.52;
      }

      .cls-57 {
        stroke: #fff;
        stroke-width: 8px;
      }

      .cls-40 {
        fill: #d6d6d6;
      }

      .cls-41, .cls-47 {
        fill: #e8e8e8;
      }

      .cls-42 {
        fill: #ff7761;
      }

      .cls-43 {
        fill: #ebcea9;
      }

      .cls-45 {
        fill: #525252;
      }

      .cls-46 {
        fill: #636363;
      }

      .cls-49 {
        fill: #ededed;
      }
    </style>
  </defs>
  <g class="cls-56">
    <g id="Layer_1" data-name="Layer 1">
      <rect class="cls-7" width="1920" height="1080"/>
      <g>
        <g>
          <g class="cls-52">
            <path class="cls-18" d="m93.02,167.89c0,6.42-5.14,11.56-13.87,11.56-7.45,0-11.3-4.62-11.3-4.62l3.08-4.88s2.83,3.34,7.7,3.34c4.62,0,6.93-2.31,6.93-5.39,0-6.42-16.18-3.08-16.18-15.66,0-5.91,4.88-10.79,12.33-10.79s10.53,4.11,10.53,4.11l-2.82,4.88s-2.82-2.83-7.19-2.83c-3.34,0-5.39,2.05-5.39,4.62,0,6.68,16.18,3.59,16.18,15.66Z"/>
            <path class="cls-18" d="m106.63,178.42h-7.19v-35.95h7.19v16.18h.31l11.51-16.18h7.96l-10.79,15.15,11.56,20.8h-7.7l-8.22-14.9-4.62,6.42v8.47Z"/>
            <path class="cls-18" d="m131.8,142.46h23.63v5.91h-16.44v9.24h11.04v5.91h-11.04v8.99h16.69v5.91h-23.88v-35.95Z"/>
            <path class="cls-18" d="m183.93,142.46v5.91h-9.25v30.05h-7.19v-30.05h-9.25v-5.91h25.68Z"/>
            <path class="cls-18" d="m203.45,141.44c6.42,0,9.76,3.34,9.76,3.34l-3.08,4.88s-2.31-2.05-6.16-2.05c-5.39,0-9.24,3.85-9.24,12.84s3.85,12.84,9.24,12.84c4.37,0,6.68-2.57,6.68-2.57l3.08,4.88s-3.6,3.85-10.27,3.85c-9.24,0-16.18-6.93-16.18-19s6.93-19,16.18-19Z"/>
            <path class="cls-18" d="m246.34,142.46v35.95h-7.19v-14.9h-12.58v14.9h-7.19v-35.95h7.19v15.15h12.58v-15.15h7.19Z"/>
          </g>
          <g class="cls-52">
            <path class="cls-18" d="m416.3,84.09v7.42h-11.61v37.74h-9.03v-37.74h-11.61v-7.42h32.26Z"/>
            <path class="cls-18" d="m439.85,84.09c10,0,15.81,5.81,15.81,14.84,0,10-7.1,12.9-7.1,12.9v.32l10.32,17.1h-10l-9.03-15.48h-7.42v15.48h-9.03v-45.16h16.45Zm-7.42,22.26h7.42c3.55,0,6.45-2.9,6.45-7.42s-2.9-7.42-6.45-7.42h-7.42v14.84Z"/>
            <path class="cls-18" d="m465.65,84.09h29.68v7.42h-20.65v11.61h13.87v7.42h-13.87v11.29h20.97v7.42h-30v-45.16Z"/>
            <path class="cls-18" d="m528.56,111.83v-27.74h9.03v45.16h-9.55l-15.29-27.74h-.32v27.74h-9.03v-45.16h9.55l15.29,27.74h.32Z"/>
            <path class="cls-18" d="m563.72,129.25h-14.52v-45.16h14.52c11.29,0,19.68,8.39,19.68,22.58s-8.39,22.58-19.68,22.58Zm-5.48-37.74v30.32h5.48c5.81,0,10.32-4.52,10.32-15.16s-4.52-15.16-10.32-15.16h-5.48Z"/>
          </g>
          <g class="cls-52">
            <path class="cls-18" d="m1704.59,913.29v7.79h-12.18v39.6h-9.48v-39.6h-12.18v-7.79h33.85Z"/>
            <path class="cls-18" d="m1729.3,913.29c10.49,0,16.58,6.09,16.58,15.57,0,10.49-7.45,13.54-7.45,13.54v.34l10.83,17.94h-10.49l-9.48-16.25h-7.78v16.25h-9.48v-47.38h17.26Zm-7.78,23.35h7.78c3.72,0,6.77-3.05,6.77-7.79s-3.05-7.78-6.77-7.78h-7.78v15.57Z"/>
            <path class="cls-18" d="m1756.38,913.29h31.14v7.79h-21.66v12.18h14.55v7.78h-14.55v11.85h22v7.78h-31.48v-47.38Z"/>
            <path class="cls-18" d="m1822.38,942.39v-29.11h9.48v47.38h-10.02l-16.04-29.11h-.34v29.11h-9.48v-47.38h10.02l16.04,29.11h.34Z"/>
            <path class="cls-18" d="m1859.27,960.67h-15.23v-47.38h15.23c11.85,0,20.65,8.8,20.65,23.69s-8.8,23.69-20.65,23.69Zm-5.75-39.6v31.82h5.75c6.09,0,10.83-4.74,10.83-15.91s-4.74-15.91-10.83-15.91h-5.75Z"/>
          </g>
          <g class="cls-52">
            <path class="cls-18" d="m242.29,406.65h31.02c18.61,0,27.92,9.31,27.92,23.57s-11.79,17-11.79,17v.74s16.75,3.35,16.75,20.72c0,14.89-9.93,24.81-29.16,24.81h-34.74v-86.85Zm40.94,24.82c0-6.82-3.72-10.55-9.93-10.55h-13.65v21.09h13.65c6.2,0,9.93-3.72,9.93-10.55Zm-23.57,24.81v22.95h17.37c6.82,0,11.17-4.34,11.17-11.17,0-7.44-4.34-11.79-11.17-11.79h-17.37Z"/>
            <path class="cls-18" d="m353.34,406.65c19.23,0,30.4,11.17,30.4,28.54,0,19.23-13.65,24.82-13.65,24.82v.62l19.85,32.88h-19.23l-17.37-29.78h-14.27v29.78h-17.37v-86.85h31.64Zm-14.27,42.81h14.27c6.82,0,12.41-5.58,12.41-14.27s-5.58-14.27-12.41-14.27h-14.27v28.54Z"/>
            <path class="cls-18" d="m409.8,493.5h-17.99l27.92-86.85h21.71l27.92,86.85h-17.99l-5.58-17.37h-30.4l-5.58,17.37Zm21.09-63.9h-.62l-9.93,31.64h20.47l-9.93-31.64Z"/>
            <path class="cls-18" d="m528.91,460v-53.35h17.37v86.85h-18.36l-29.4-53.35h-.62v53.35h-17.37v-86.85h18.36l29.4,53.35h.62Z"/>
            <path class="cls-18" d="m596.53,493.5h-27.92v-86.85h27.92c21.71,0,37.84,16.13,37.84,43.43s-16.13,43.42-37.84,43.42Zm-10.55-72.58v58.31h10.55c11.17,0,19.85-8.69,19.85-29.16s-8.69-29.16-19.85-29.16h-10.55Z"/>
          </g>
          <g class="cls-52">
            <path class="cls-18" d="m20.46,786.26c0-8.19,4.26-12.44,4.26-12.44l6.22,3.93s-2.62,2.95-2.62,7.86c0,6.88,4.91,11.79,16.37,11.79s16.37-4.91,16.37-11.79c0-5.57-3.27-8.51-3.27-8.51l6.22-3.93s4.91,4.58,4.91,13.1c0,11.79-8.84,20.63-24.23,20.63s-24.23-8.84-24.23-20.63Z"/>
            <path class="cls-18" d="m68.92,748.94c0,11.13-8.84,19.97-24.23,19.97s-24.23-8.84-24.23-19.97,8.84-19.97,24.23-19.97,24.23,8.84,24.23,19.97Zm-40.6,0c0,5.57,4.91,10.48,16.37,10.48s16.37-4.91,16.37-10.48-4.91-10.48-16.37-10.48-16.37,4.91-16.37,10.48Z"/>
            <path class="cls-18" d="m49.93,694.58h-28.16v-9.17h45.84v9.69l-28.16,15.52v.33h28.16v9.17H21.77v-9.69l28.16-15.52v-.33Z"/>
            <path class="cls-18" d="m20.46,655.95c0-8.19,4.26-12.44,4.26-12.44l6.22,3.93s-2.62,2.95-2.62,7.86c0,6.88,4.91,11.79,16.37,11.79s16.37-4.91,16.37-11.79c0-5.57-3.27-8.51-3.27-8.51l6.22-3.93s4.91,4.58,4.91,13.1c0,11.79-8.84,20.63-24.23,20.63s-24.23-8.84-24.23-20.63Z"/>
            <path class="cls-18" d="m21.77,635.64v-30.12h7.53v20.95h11.79v-14.08h7.53v14.08h11.46v-21.28h7.53v30.45H21.77Z"/>
            <path class="cls-18" d="m67.61,588.17v9.17H21.77v-16.7c0-10.48,6.22-16.7,15.72-16.7s15.72,6.22,15.72,16.7v7.53h14.41Zm-38.31,0h16.37v-7.53c0-3.93-3.27-7.2-8.19-7.2s-8.18,3.27-8.18,7.2v7.53Z"/>
            <path class="cls-18" d="m21.77,527.59h7.53v11.79h38.31v9.17H29.3v11.79h-7.53v-32.74Z"/>
          </g>
          <g class="cls-52">
            <path class="cls-18" d="m1219.15,348.7h24.14v6.03h-16.79v9.44h11.28v6.03h-11.28v9.18h17.05v6.03h-24.4v-36.73Z"/>
            <path class="cls-18" d="m1270.31,371.26v-22.56h7.35v36.73h-7.77l-12.43-22.56h-.26v22.56h-7.35v-36.73h7.77l12.43,22.56h.26Z"/>
            <path class="cls-18" d="m1301.26,347.65c6.56,0,9.97,3.41,9.97,3.41l-3.15,4.98s-2.36-2.1-6.3-2.1c-5.51,0-9.44,3.94-9.44,13.12s3.94,13.12,9.44,13.12c1.84,0,3.41-.52,3.41-.52v-9.44h-4.98v-6.03h12.33v18.1s-4.2,4.2-11.28,4.2c-9.44,0-16.53-7.08-16.53-19.41s7.08-19.41,16.53-19.41Z"/>
            <path class="cls-18" d="m1328.02,385.43h-7.35v-36.73h7.35v36.73Z"/>
            <path class="cls-18" d="m1357.93,371.26v-22.56h7.35v36.73h-7.77l-12.43-22.56h-.26v22.56h-7.35v-36.73h7.77l12.43,22.56h.26Z"/>
            <path class="cls-18" d="m1374.72,348.7h24.14v6.03h-16.79v9.44h11.28v6.03h-11.28v9.18h17.05v6.03h-24.4v-36.73Z"/>
            <path class="cls-18" d="m1405.42,348.7h24.14v6.03h-16.79v9.44h11.28v6.03h-11.28v9.18h17.05v6.03h-24.4v-36.73Z"/>
            <path class="cls-18" d="m1449.49,348.7c8.13,0,12.85,4.72,12.85,12.07,0,8.13-5.77,10.49-5.77,10.49v.26l8.39,13.9h-8.13l-7.35-12.59h-6.03v12.59h-7.35v-36.73h13.38Zm-6.03,18.1h6.03c2.89,0,5.25-2.36,5.25-6.03s-2.36-6.03-5.25-6.03h-6.03v12.07Z"/>
            <path class="cls-18" d="m1477.82,385.43h-7.35v-36.73h7.35v36.73Z"/>
            <path class="cls-18" d="m1507.73,371.26v-22.56h7.35v36.73h-7.77l-12.43-22.56h-.26v22.56h-7.35v-36.73h7.77l12.43,22.56h.26Z"/>
            <path class="cls-18" d="m1538.69,347.65c6.56,0,9.97,3.41,9.97,3.41l-3.15,4.98s-2.36-2.1-6.3-2.1c-5.51,0-9.44,3.94-9.44,13.12s3.94,13.12,9.44,13.12c1.84,0,3.41-.52,3.41-.52v-9.44h-4.98v-6.03h12.33v18.1s-4.2,4.2-11.28,4.2c-9.44,0-16.53-7.08-16.53-19.41s7.08-19.41,16.53-19.41Z"/>
          </g>
          <g class="cls-52">
            <path class="cls-18" d="m1108.41,670.27h24.14v6.03h-16.79v9.44h11.28v6.03h-11.28v9.18h17.05v6.03h-24.4v-36.73Z"/>
            <path class="cls-18" d="m1159.56,692.83v-22.56h7.35v36.73h-7.77l-12.43-22.56h-.26v22.56h-7.35v-36.73h7.77l12.43,22.56h.26Z"/>
            <path class="cls-18" d="m1190.52,669.22c6.56,0,9.97,3.41,9.97,3.41l-3.15,4.98s-2.36-2.1-6.3-2.1c-5.51,0-9.44,3.94-9.44,13.12s3.94,13.12,9.44,13.12c1.84,0,3.41-.52,3.41-.52v-9.44h-4.98v-6.03h12.33v18.1s-4.2,4.2-11.28,4.2c-9.44,0-16.53-7.08-16.53-19.41s7.08-19.41,16.53-19.41Z"/>
            <path class="cls-18" d="m1217.28,707h-7.35v-36.73h7.35v36.73Z"/>
            <path class="cls-18" d="m1247.19,692.83v-22.56h7.35v36.73h-7.77l-12.43-22.56h-.26v22.56h-7.35v-36.73h7.77l12.43,22.56h.26Z"/>
            <path class="cls-18" d="m1263.98,670.27h24.14v6.03h-16.79v9.44h11.28v6.03h-11.28v9.18h17.05v6.03h-24.4v-36.73Z"/>
            <path class="cls-18" d="m1294.67,670.27h24.14v6.03h-16.79v9.44h11.28v6.03h-11.28v9.18h17.05v6.03h-24.4v-36.73Z"/>
            <path class="cls-18" d="m1338.75,670.27c8.13,0,12.85,4.72,12.85,12.07,0,8.13-5.77,10.49-5.77,10.49v.26l8.39,13.9h-8.13l-7.35-12.59h-6.03v12.59h-7.35v-36.73h13.38Zm-6.03,18.1h6.03c2.89,0,5.25-2.36,5.25-6.03s-2.36-6.03-5.25-6.03h-6.03v12.07Z"/>
            <path class="cls-18" d="m1367.08,707h-7.35v-36.73h7.35v36.73Z"/>
            <path class="cls-18" d="m1396.99,692.83v-22.56h7.35v36.73h-7.77l-12.43-22.56h-.26v22.56h-7.35v-36.73h7.77l12.43,22.56h.26Z"/>
            <path class="cls-18" d="m1427.95,669.22c6.56,0,9.97,3.41,9.97,3.41l-3.15,4.98s-2.36-2.1-6.3-2.1c-5.51,0-9.44,3.94-9.44,13.12s3.94,13.12,9.44,13.12c1.84,0,3.41-.52,3.41-.52v-9.44h-4.98v-6.03h12.33v18.1s-4.2,4.2-11.28,4.2c-9.44,0-16.53-7.08-16.53-19.41s7.08-19.41,16.53-19.41Z"/>
          </g>
          <g class="cls-52">
            <path class="cls-18" d="m163.12,551.53v9.56h-14.97v48.65h-11.64v-48.65h-14.97v-9.56h41.58Z"/>
            <path class="cls-18" d="m200.95,551.53h12.06l-18.29,39.91v18.29h-11.64v-18.29l-18.29-39.91h12.06l11.81,25.78h.5l11.81-25.78Z"/>
            <path class="cls-18" d="m232.14,609.74h-11.64v-58.21h21.2c13.3,0,21.2,7.9,21.2,19.96s-7.9,19.96-21.2,19.96h-9.56v18.29Zm0-48.65v20.79h9.56c4.99,0,9.15-4.16,9.15-10.39s-4.16-10.39-9.15-10.39h-9.56Z"/>
            <path class="cls-18" d="m294.92,611.4c-14.14,0-25.36-11.23-25.36-30.77s11.23-30.77,25.36-30.77,25.36,11.23,25.36,30.77-11.23,30.77-25.36,30.77Zm0-51.56c-7.07,0-13.3,6.24-13.3,20.79s6.24,20.79,13.3,20.79,13.3-6.24,13.3-20.79-6.24-20.79-13.3-20.79Z"/>
            <path class="cls-18" d="m353.97,549.87c10.39,0,15.8,5.41,15.8,5.41l-4.99,7.9s-3.74-3.33-9.98-3.33c-8.73,0-14.97,6.24-14.97,20.79s6.24,20.79,14.97,20.79c2.91,0,5.41-.83,5.41-.83v-14.97h-7.9v-9.56h19.54v28.69s-6.65,6.65-17.88,6.65c-14.97,0-26.19-11.23-26.19-30.77s11.23-30.77,26.19-30.77Z"/>
            <path class="cls-18" d="m405.94,551.53c12.89,0,20.37,7.48,20.37,19.13,0,12.89-9.15,16.63-9.15,16.63v.42l13.3,22.04h-12.89l-11.64-19.96h-9.56v19.96h-11.64v-58.21h21.2Zm-9.56,28.69h9.56c4.57,0,8.32-3.74,8.32-9.56s-3.74-9.56-8.32-9.56h-9.56v19.13Z"/>
            <path class="cls-18" d="m443.78,609.74h-12.06l18.71-58.21h14.55l18.71,58.21h-12.06l-3.74-11.64h-20.37l-3.74,11.64Zm14.14-42.82h-.42l-6.65,21.2h13.72l-6.65-21.2Z"/>
            <path class="cls-18" d="m502.82,609.74h-11.64v-58.21h21.2c13.3,0,21.2,7.9,21.2,19.96s-7.9,19.96-21.2,19.96h-9.56v18.29Zm0-48.65v20.79h9.56c4.99,0,9.15-4.16,9.15-10.39s-4.16-10.39-9.15-10.39h-9.56Z"/>
            <path class="cls-18" d="m587.64,551.53v58.21h-11.64v-24.12h-20.37v24.12h-11.64v-58.21h11.64v24.53h20.37v-24.53h11.64Z"/>
            <path class="cls-18" d="m631.3,551.53h12.06l-18.29,39.91v18.29h-11.64v-18.29l-18.29-39.91h12.06l11.81,25.78h.5l11.81-25.78Z"/>
          </g>
          <g class="cls-52">
            <path class="cls-18" d="m1882.12,679.63h4.14v6.48h21.07v5.04h-21.07v6.48h-4.14v-18.01Z"/>
            <path class="cls-18" d="m1882.12,663.24v-5.22l17.29,7.92h7.92v5.04h-7.92l-17.29,7.92v-5.22l11.17-5.11v-.22l-11.17-5.12Z"/>
            <path class="cls-18" d="m1907.33,649.73v5.04h-25.21v-9.19c0-5.76,3.42-9.19,8.64-9.19s8.64,3.42,8.64,9.19v4.14h7.92Zm-21.07,0h9.01v-4.14c0-2.16-1.8-3.96-4.5-3.96s-4.5,1.8-4.5,3.96v4.14Z"/>
            <path class="cls-18" d="m1908.05,622.53c0,6.12-4.86,10.99-13.33,10.99s-13.33-4.86-13.33-10.99,4.86-10.99,13.33-10.99,13.33,4.86,13.33,10.99Zm-22.33,0c0,3.06,2.7,5.76,9.01,5.76s9.01-2.7,9.01-5.76-2.7-5.76-9.01-5.76-9.01,2.7-9.01,5.76Z"/>
            <path class="cls-18" d="m1881.4,596.96c0-4.5,2.34-6.84,2.34-6.84l3.42,2.16s-1.44,1.62-1.44,4.32c0,3.78,2.7,6.48,9.01,6.48s9.01-2.7,9.01-6.48c0-1.26-.36-2.34-.36-2.34h-6.48v3.42h-4.14v-8.46h12.43s2.88,2.88,2.88,7.74c0,6.48-4.86,11.35-13.33,11.35s-13.33-4.86-13.33-11.35Z"/>
            <path class="cls-18" d="m1882.12,574.44c0-5.58,3.24-8.83,8.28-8.83,5.58,0,7.2,3.96,7.2,3.96h.18l9.55-5.76v5.58l-8.64,5.04v4.14h8.64v5.04h-25.21v-9.19Zm12.43,4.14v-4.14c0-1.98-1.62-3.6-4.14-3.6s-4.14,1.62-4.14,3.6v4.14h8.28Z"/>
            <path class="cls-18" d="m1907.33,558.05v5.22l-25.21-8.1v-6.3l25.21-8.1v5.22l-5.04,1.62v8.83l5.04,1.62Zm-18.55-6.12v.18l9.19,2.88v-5.94l-9.19,2.88Z"/>
            <path class="cls-18" d="m1907.33,532.48v5.04h-25.21v-9.19c0-5.76,3.42-9.19,8.64-9.19s8.64,3.42,8.64,9.19v4.14h7.92Zm-21.07,0h9.01v-4.14c0-2.16-1.8-3.96-4.5-3.96s-4.5,1.8-4.5,3.96v4.14Z"/>
            <path class="cls-18" d="m1882.12,495.73h25.21v5.04h-10.45v8.83h10.45v5.04h-25.21v-5.04h10.63v-8.83h-10.63v-5.04Z"/>
            <path class="cls-18" d="m1882.12,476.82v-5.22l17.29,7.92h7.92v5.04h-7.92l-17.29,7.92v-5.22l11.17-5.11v-.22l-11.17-5.11Z"/>
          </g>
          <g class="cls-52">
            <path class="cls-18" d="m625.86,343.37h11.64v48.65h24.53v9.56h-36.17v-58.21Z"/>
            <path class="cls-18" d="m675.76,401.58h-12.06l18.71-58.21h14.55l18.71,58.21h-12.06l-3.74-11.64h-20.37l-3.74,11.64Zm14.14-42.82h-.42l-6.65,21.2h13.72l-6.65-21.2Z"/>
            <path class="cls-18" d="m723.16,343.37h20.79c12.47,0,18.71,6.24,18.71,15.8s-7.9,11.39-7.9,11.39v.5s11.23,2.25,11.23,13.89c0,9.98-6.65,16.63-19.54,16.63h-23.28v-58.21Zm27.44,16.63c0-4.57-2.49-7.07-6.65-7.07h-9.15v14.14h9.15c4.16,0,6.65-2.5,6.65-7.07Zm-15.8,16.63v15.38h11.64c4.57,0,7.48-2.91,7.48-7.49,0-4.99-2.91-7.9-7.48-7.9h-11.64Z"/>
            <path class="cls-18" d="m776.38,343.37h38.25v9.56h-26.61v14.97h17.88v9.56h-17.88v14.55h27.03v9.56h-38.67v-58.21Z"/>
            <path class="cls-18" d="m825.03,343.37h11.64v48.65h24.53v9.56h-36.17v-58.21Z"/>
          </g>
          <g class="cls-52">
            <path class="cls-18" d="m11.95,900.39h8.99v37.56h18.94v7.38H11.95v-44.94Z"/>
            <path class="cls-18" d="m50.47,945.33h-9.31l14.45-44.94h11.24l14.45,44.94h-9.31l-2.89-8.99h-15.73l-2.89,8.99Zm10.91-33.06h-.32l-5.14,16.37h10.59l-5.14-16.37Z"/>
            <path class="cls-18" d="m87.07,900.39h16.05c9.63,0,14.45,4.82,14.45,12.2s-6.1,8.8-6.1,8.8v.39s8.67,1.73,8.67,10.72c0,7.7-5.14,12.84-15.09,12.84h-17.98v-44.94Zm21.19,12.84c0-3.53-1.93-5.46-5.14-5.46h-7.06v10.91h7.06c3.21,0,5.14-1.93,5.14-5.46Zm-12.2,12.84v11.88h8.99c3.53,0,5.78-2.25,5.78-5.78,0-3.85-2.25-6.1-5.78-6.1h-8.99Z"/>
            <path class="cls-18" d="m128.16,900.39h29.53v7.38h-20.54v11.56h13.8v7.38h-13.8v11.24h20.87v7.38h-29.85v-44.94Z"/>
            <path class="cls-18" d="m165.72,900.39h8.99v37.56h18.94v7.38h-27.93v-44.94Z"/>
          </g>
          <g class="cls-52">
            <path class="cls-18" d="m106.43,384.92v10.77l-51.99-16.71v-13l51.99-16.71v10.77l-10.4,3.34v18.2l10.4,3.34Zm-38.25-12.63v.37l18.94,5.94v-12.25l-18.94,5.94Z"/>
            <path class="cls-18" d="m54.44,323.64c0-11.51,6.68-18.2,17.08-18.2,11.51,0,14.85,8.17,14.85,8.17h.37l19.68-11.88v11.51l-17.82,10.4v8.54h17.82v10.4h-51.99v-18.94Zm25.62,8.54v-8.54c0-4.08-3.34-7.43-8.54-7.43s-8.54,3.34-8.54,7.43v8.54h17.08Z"/>
            <path class="cls-18" d="m54.44,262h8.54v13.37h43.45v10.4h-43.45v13.37h-8.54v-37.13Z"/>
          </g>
          <g class="cls-52">
            <path class="cls-18" d="m592.36,922.63h-9.82v-49.08h17.88c11.22,0,17.88,6.66,17.88,16.83s-6.66,16.83-17.88,16.83h-8.06v15.42Zm0-41.01v17.53h8.06c4.21,0,7.71-3.51,7.71-8.76s-3.51-8.76-7.71-8.76h-8.06Z"/>
            <path class="cls-18" d="m644.94,873.55c10.87,0,17.18,6.31,17.18,16.13,0,10.87-7.71,14.02-7.71,14.02v.35l11.22,18.58h-10.87l-9.82-16.83h-8.06v16.83h-9.82v-49.08h17.88Zm-8.06,24.19h8.06c3.86,0,7.01-3.16,7.01-8.06s-3.15-8.06-7.01-8.06h-8.06v16.13Z"/>
            <path class="cls-18" d="m691.22,924.03c-11.92,0-21.38-9.46-21.38-25.94s9.46-25.94,21.38-25.94,21.38,9.47,21.38,25.94-9.46,25.94-21.38,25.94Zm0-43.47c-5.96,0-11.22,5.26-11.22,17.53s5.26,17.53,11.22,17.53,11.22-5.26,11.22-17.53-5.26-17.53-11.22-17.53Z"/>
            <path class="cls-18" d="m733.64,881.61h-12.62v-8.06h22.44v34.35c0,9.82-6.31,16.13-16.48,16.13-7.01,0-10.52-3.15-10.52-3.15l3.86-7.01s2.1,1.75,5.96,1.75c4.21,0,7.36-3.16,7.36-7.71v-26.29Z"/>
            <path class="cls-18" d="m755.72,873.55h32.25v8.06h-22.44v12.62h15.07v8.06h-15.07v12.27h22.79v8.06h-32.6v-49.08Z"/>
            <path class="cls-18" d="m815.67,872.15c8.76,0,13.32,4.56,13.32,4.56l-4.21,6.66s-3.15-2.8-8.41-2.8c-7.36,0-12.62,5.26-12.62,17.53s5.26,17.53,12.62,17.53c5.96,0,9.11-3.51,9.11-3.51l4.21,6.66s-4.91,5.26-14.02,5.26c-12.62,0-22.08-9.46-22.08-25.94s9.47-25.94,22.08-25.94Z"/>
            <path class="cls-18" d="m867.55,873.55v8.06h-12.62v41.01h-9.82v-41.01h-12.62v-8.06h35.05Z"/>
          </g>
          <g class="cls-52">
            <path class="cls-18" d="m109.35,801.73h20.79c12.47,0,18.71,6.24,18.71,15.8s-7.9,11.39-7.9,11.39v.5s11.23,2.25,11.23,13.89c0,9.98-6.65,16.63-19.54,16.63h-23.28v-58.21Zm27.44,16.63c0-4.57-2.49-7.07-6.65-7.07h-9.15v14.14h9.15c4.16,0,6.65-2.5,6.65-7.07Zm-15.8,16.63v15.38h11.64c4.57,0,7.48-2.91,7.48-7.49,0-4.99-2.91-7.9-7.48-7.9h-11.64Z"/>
            <path class="cls-18" d="m167.14,859.94h-12.06l18.71-58.21h14.55l18.71,58.21h-12.06l-3.74-11.64h-20.37l-3.74,11.64Zm14.14-42.82h-.42l-6.65,21.2h13.72l-6.65-21.2Z"/>
            <path class="cls-18" d="m246.97,837.49v-35.76h11.64v58.21h-12.31l-19.71-35.76h-.42v35.76h-11.64v-58.21h12.31l19.71,35.76h.42Z"/>
            <path class="cls-18" d="m306.02,837.49v-35.76h11.64v58.21h-12.31l-19.71-35.76h-.42v35.76h-11.64v-58.21h12.31l19.71,35.76h.42Z"/>
            <path class="cls-18" d="m332.63,801.73h38.25v9.56h-26.61v14.97h17.88v9.56h-17.88v14.55h27.03v9.56h-38.67v-58.21Z"/>
            <path class="cls-18" d="m402.48,801.73c12.89,0,20.37,7.48,20.37,19.13,0,12.89-9.15,16.63-9.15,16.63v.42l13.3,22.04h-12.89l-11.64-19.96h-9.56v19.96h-11.64v-58.21h21.2Zm-9.56,28.69h9.56c4.57,0,8.32-3.74,8.32-9.56s-3.74-9.56-8.32-9.56h-9.56v19.13Z"/>
          </g>
          <g class="cls-52">
            <path class="cls-18" d="m1669.41,165.97h-8.64v-43.2h8.64v43.2Z"/>
            <path class="cls-18" d="m1694.41,165.97h-13.89v-43.2h13.89c10.8,0,18.82,8.02,18.82,21.6s-8.02,21.6-18.82,21.6Zm-5.25-36.1v29.01h5.25c5.55,0,9.87-4.32,9.87-14.5s-4.32-14.5-9.87-14.5h-5.25Z"/>
            <path class="cls-18" d="m1721.57,122.76h28.39v7.1h-19.75v11.11h13.27v7.1h-13.27v10.8h20.06v7.1h-28.7v-43.2Z"/>
            <path class="cls-18" d="m1761.07,165.97h-8.95l13.89-43.2h10.8l13.89,43.2h-8.95l-2.78-8.64h-15.12l-2.78,8.64Zm10.49-31.78h-.31l-4.94,15.74h10.18l-4.94-15.74Z"/>
          </g>
          <g class="cls-52">
            <path class="cls-18" d="m891.4,145.96c0,8.78-7.02,15.8-18.96,15.8-10.18,0-15.45-6.32-15.45-6.32l4.21-6.67s3.86,4.57,10.54,4.57c6.32,0,9.48-3.16,9.48-7.38,0-8.78-22.12-4.21-22.12-21.42,0-8.08,6.67-14.75,16.86-14.75s14.4,5.62,14.4,5.62l-3.86,6.67s-3.86-3.86-9.83-3.86c-4.57,0-7.37,2.81-7.37,6.32,0,9.13,22.12,4.92,22.12,21.42Z"/>
            <path class="cls-18" d="m930.38,111.19v8.08h-12.64v41.09h-9.83v-41.09h-12.64v-8.08h35.12Z"/>
            <path class="cls-18" d="m962.33,111.19h10.18l-15.45,33.71v15.45h-9.83v-15.45l-15.45-33.71h10.18l9.97,21.77h.42l9.97-21.77Z"/>
            <path class="cls-18" d="m978.84,111.19h9.83v41.09h20.72v8.08h-30.55v-49.16Z"/>
            <path class="cls-18" d="m1017.12,111.19h32.31v8.08h-22.47v12.64h15.1v8.08h-15.1v12.29h22.83v8.08h-32.66v-49.16Z"/>
          </g>
          <g class="cls-52">
            <path class="cls-18" d="m1104.63,328.92h-7.47v-37.36h13.61c8.54,0,13.61,5.07,13.61,12.81s-5.07,12.81-13.61,12.81h-6.14v11.74Zm0-31.22v13.34h6.14c3.2,0,5.87-2.67,5.87-6.67s-2.67-6.67-5.87-6.67h-6.14Z"/>
            <path class="cls-18" d="m1144.66,291.57c8.27,0,13.07,4.8,13.07,12.27,0,8.27-5.87,10.67-5.87,10.67v.27l8.54,14.14h-8.27l-7.47-12.81h-6.14v12.81h-7.47v-37.36h13.61Zm-6.14,18.41h6.14c2.93,0,5.34-2.4,5.34-6.14s-2.4-6.14-5.34-6.14h-6.14v12.27Z"/>
            <path class="cls-18" d="m1179.89,329.99c-9.07,0-16.28-7.2-16.28-19.75s7.2-19.75,16.28-19.75,16.28,7.2,16.28,19.75-7.2,19.75-16.28,19.75Zm0-33.09c-4.54,0-8.54,4-8.54,13.34s4,13.34,8.54,13.34,8.54-4,8.54-13.34-4-13.34-8.54-13.34Z"/>
            <path class="cls-18" d="m1215.38,328.92h-12.01v-37.36h12.01c9.34,0,16.28,6.94,16.28,18.68s-6.94,18.68-16.28,18.68Zm-4.54-31.22v25.08h4.54c4.8,0,8.54-3.74,8.54-12.54s-3.74-12.54-8.54-12.54h-4.54Z"/>
            <path class="cls-18" d="m1246.06,316.92c0,4.27,2.4,6.67,6.67,6.67s6.67-2.4,6.67-6.67v-25.35h7.47v25.35c0,7.47-5.6,13.08-14.14,13.08s-14.14-5.6-14.14-13.08v-25.35h7.47v25.35Z"/>
            <path class="cls-18" d="m1290.63,290.5c6.67,0,10.14,3.47,10.14,3.47l-3.2,5.07s-2.4-2.14-6.4-2.14c-5.6,0-9.61,4-9.61,13.34s4,13.34,9.61,13.34c4.54,0,6.94-2.67,6.94-2.67l3.2,5.07s-3.74,4-10.67,4c-9.61,0-16.81-7.2-16.81-19.75s7.2-19.75,16.81-19.75Z"/>
            <path class="cls-18" d="m1330.12,291.57v6.14h-9.61v31.22h-7.47v-31.22h-9.61v-6.14h26.68Z"/>
          </g>
          <g class="cls-52">
            <path class="cls-18" d="m324.7,225.83h-9.52v-47.62h17.35c10.88,0,17.35,6.46,17.35,16.33s-6.46,16.33-17.35,16.33h-7.82v14.97Zm0-39.8v17.01h7.82c4.08,0,7.48-3.4,7.48-8.5s-3.4-8.5-7.48-8.5h-7.82Z"/>
            <path class="cls-18" d="m375.72,178.21c10.54,0,16.67,6.12,16.67,15.65,0,10.54-7.48,13.61-7.48,13.61v.34l10.88,18.03h-10.54l-9.52-16.33h-7.82v16.33h-9.52v-47.62h17.35Zm-7.82,23.47h7.82c3.74,0,6.8-3.06,6.8-7.82s-3.06-7.82-6.8-7.82h-7.82v15.65Z"/>
            <path class="cls-18" d="m420.62,227.19c-11.57,0-20.75-9.18-20.75-25.17s9.18-25.17,20.75-25.17,20.75,9.18,20.75,25.17-9.18,25.17-20.75,25.17Zm0-42.18c-5.78,0-10.88,5.1-10.88,17.01s5.1,17.01,10.88,17.01,10.88-5.1,10.88-17.01-5.1-17.01-10.88-17.01Z"/>
            <path class="cls-18" d="m465.86,225.83h-15.31v-47.62h15.31c11.9,0,20.75,8.84,20.75,23.81s-8.84,23.81-20.75,23.81Zm-5.78-39.8v31.97h5.78c6.12,0,10.88-4.76,10.88-15.99s-4.76-15.99-10.88-15.99h-5.78Z"/>
            <path class="cls-18" d="m504.98,210.52c0,5.44,3.06,8.5,8.5,8.5s8.5-3.06,8.5-8.5v-32.31h9.52v32.31c0,9.52-7.14,16.67-18.03,16.67s-18.03-7.14-18.03-16.67v-32.31h9.52v32.31Z"/>
            <path class="cls-18" d="m561.79,176.85c8.5,0,12.93,4.42,12.93,4.42l-4.08,6.46s-3.06-2.72-8.16-2.72c-7.14,0-12.24,5.1-12.24,17.01s5.1,17.01,12.24,17.01c5.78,0,8.84-3.4,8.84-3.4l4.08,6.46s-4.76,5.1-13.61,5.1c-12.24,0-21.43-9.18-21.43-25.17s9.18-25.17,21.43-25.17Z"/>
            <path class="cls-18" d="m612.13,178.21v7.82h-12.24v39.8h-9.52v-39.8h-12.24v-7.82h34.01Z"/>
          </g>
          <g class="cls-52">
            <path class="cls-18" d="m764.06,434.45c12.28,0,18.66,6.39,18.66,6.39l-5.89,9.33s-4.42-3.93-11.79-3.93c-10.31,0-17.68,7.37-17.68,24.56s7.37,24.56,17.68,24.56c8.35,0,12.77-4.91,12.77-4.91l5.89,9.33s-6.88,7.37-19.65,7.37c-17.68,0-30.94-13.26-30.94-36.35s13.26-36.35,30.94-36.35Z"/>
            <path class="cls-18" d="m819.56,436.41c15.23,0,24.07,8.84,24.07,22.59,0,15.23-10.81,19.65-10.81,19.65v.49l15.72,26.03h-15.23l-13.75-23.58h-11.3v23.58h-13.75v-68.76h25.05Zm-11.3,33.89h11.3c5.4,0,9.82-4.42,9.82-11.3s-4.42-11.3-9.82-11.3h-11.3v22.59Z"/>
            <path class="cls-18" d="m858.86,436.41h45.19v11.3h-31.43v17.68h21.12v11.3h-21.12v17.19h31.93v11.3h-45.68v-68.76Z"/>
            <path class="cls-18" d="m921.73,505.18h-14.24l22.1-68.76h17.19l22.1,68.76h-14.24l-4.42-13.75h-24.07l-4.42,13.75Zm16.7-50.59h-.49l-7.86,25.05h16.21l-7.86-25.05Z"/>
            <path class="cls-18" d="m1019.97,436.41v11.3h-17.68v57.47h-13.75v-57.47h-17.68v-11.3h49.12Z"/>
            <path class="cls-18" d="m1044.53,505.18h-13.75v-68.76h13.75v68.76Z"/>
            <path class="cls-18" d="m1075.48,505.18l-21.12-68.76h14.74l14.74,49.61h.49l14.74-49.61h14.73l-21.12,68.76h-17.19Z"/>
            <path class="cls-18" d="m1123.61,436.41h45.19v11.3h-31.43v17.68h21.12v11.3h-21.12v17.19h31.93v11.3h-45.68v-68.76Z"/>
          </g>
          <g class="cls-52">
            <path class="cls-18" d="m644.13,146.68c4.75,0,7.21,2.47,7.21,2.47l-2.28,3.61s-1.71-1.52-4.56-1.52c-3.99,0-6.83,2.85-6.83,9.49s2.85,9.49,6.83,9.49c3.23,0,4.94-1.9,4.94-1.9l2.28,3.61s-2.66,2.85-7.59,2.85c-6.83,0-11.96-5.13-11.96-14.05s5.12-14.05,11.96-14.05Z"/>
            <path class="cls-18" d="m665.58,147.44c5.88,0,9.3,3.42,9.3,8.73,0,5.88-4.18,7.59-4.18,7.59v.19l6.07,10.06h-5.88l-5.32-9.11h-4.37v9.11h-5.32v-26.58h9.68Zm-4.37,13.1h4.37c2.09,0,3.8-1.71,3.8-4.37s-1.71-4.37-3.8-4.37h-4.37v8.73Z"/>
            <path class="cls-18" d="m680.77,147.44h17.46v4.37h-12.15v6.83h8.16v4.37h-8.16v6.64h12.34v4.37h-17.65v-26.58Z"/>
            <path class="cls-18" d="m705.07,174.02h-5.51l8.54-26.58h6.64l8.54,26.58h-5.51l-1.71-5.32h-9.3l-1.71,5.32Zm6.45-19.55h-.19l-3.04,9.68h6.26l-3.04-9.68Z"/>
            <path class="cls-18" d="m743.04,147.44v4.37h-6.83v22.21h-5.32v-22.21h-6.83v-4.37h18.98Z"/>
            <path class="cls-18" d="m752.53,174.02h-5.32v-26.58h5.32v26.58Z"/>
            <path class="cls-18" d="m764.49,174.02l-8.16-26.58h5.7l5.7,19.17h.19l5.69-19.17h5.69l-8.16,26.58h-6.64Z"/>
            <path class="cls-18" d="m783.09,147.44h17.46v4.37h-12.15v6.83h8.16v4.37h-8.16v6.64h12.34v4.37h-17.65v-26.58Z"/>
          </g>
          <g class="cls-52">
            <path class="cls-18" d="m464.58,945.6c5.48,0,8.32,2.85,8.32,2.85l-2.63,4.16s-1.97-1.75-5.26-1.75c-4.6,0-7.89,3.29-7.89,10.95s3.29,10.95,7.89,10.95c3.72,0,5.69-2.19,5.69-2.19l2.63,4.16s-3.07,3.29-8.76,3.29c-7.89,0-13.8-5.91-13.8-16.21s5.91-16.21,13.8-16.21Z"/>
            <path class="cls-18" d="m489.34,946.48c6.79,0,10.73,3.94,10.73,10.08,0,6.79-4.82,8.76-4.82,8.76v.22l7.01,11.61h-6.79l-6.13-10.51h-5.04v10.51h-6.13v-30.66h11.17Zm-5.04,15.11h5.04c2.41,0,4.38-1.97,4.38-5.04s-1.97-5.04-4.38-5.04h-5.04v10.08Z"/>
            <path class="cls-18" d="m506.86,946.48h20.15v5.04h-14.02v7.89h9.42v5.04h-9.42v7.67h14.24v5.04h-20.37v-30.66Z"/>
            <path class="cls-18" d="m534.9,977.14h-6.35l9.86-30.66h7.67l9.86,30.66h-6.35l-1.97-6.13h-10.73l-1.97,6.13Zm7.45-22.56h-.22l-3.5,11.17h7.23l-3.5-11.17Z"/>
            <path class="cls-18" d="m578.71,946.48v5.04h-7.89v25.63h-6.13v-25.63h-7.88v-5.04h21.9Z"/>
            <path class="cls-18" d="m589.66,977.14h-6.13v-30.66h6.13v30.66Z"/>
            <path class="cls-18" d="m603.46,977.14l-9.42-30.66h6.57l6.57,22.12h.22l6.57-22.12h6.57l-9.42,30.66h-7.67Z"/>
            <path class="cls-18" d="m624.92,946.48h20.15v5.04h-14.02v7.89h9.42v5.04h-9.42v7.67h14.24v5.04h-20.37v-30.66Z"/>
          </g>
          <g class="cls-52">
            <path class="cls-18" d="m1302.57,142.3h-12.06l18.71-58.21h14.55l18.71,58.21h-12.06l-3.74-11.64h-20.37l-3.74,11.64Zm14.14-42.82h-.42l-6.65,21.2h13.72l-6.65-21.2Z"/>
            <path class="cls-18" d="m1371.17,84.09c12.89,0,20.37,7.48,20.37,19.13,0,12.89-9.15,16.63-9.15,16.63v.42l13.3,22.04h-12.89l-11.64-19.96h-9.56v19.96h-11.64v-58.21h21.21Zm-9.56,28.69h9.56c4.57,0,8.32-3.74,8.32-9.56s-3.74-9.56-8.32-9.56h-9.56v19.13Z"/>
            <path class="cls-18" d="m1440.19,84.09v9.56h-14.97v48.65h-11.64v-48.65h-14.97v-9.56h41.58Z"/>
            <path class="cls-18" d="m1460.99,142.3h-11.64v-58.21h11.64v58.21Z"/>
            <path class="cls-18" d="m1511.29,125.25c0,10.39-8.32,18.71-22.45,18.71-12.06,0-18.29-7.48-18.29-7.48l4.99-7.9s4.57,5.41,12.47,5.41c7.48,0,11.23-3.74,11.23-8.73,0-10.39-26.19-4.99-26.19-25.36,0-9.56,7.9-17.46,19.96-17.46s17.05,6.65,17.05,6.65l-4.57,7.9s-4.57-4.57-11.64-4.57c-5.41,0-8.73,3.33-8.73,7.49,0,10.81,26.19,5.82,26.19,25.36Z"/>
            <path class="cls-18" d="m1557.45,84.09v9.56h-14.97v48.65h-11.64v-48.65h-14.97v-9.56h41.58Z"/>
          </g>
          <g class="cls-52">
            <path class="cls-18" d="m1264.24,429.26h11.64v48.65h24.53v9.56h-36.17v-58.21Z"/>
            <path class="cls-18" d="m1329.52,489.13c-14.14,0-25.36-11.23-25.36-30.77s11.23-30.77,25.36-30.77,25.36,11.23,25.36,30.77-11.23,30.77-25.36,30.77Zm0-51.56c-7.07,0-13.3,6.24-13.3,20.79s6.24,20.79,13.3,20.79,13.3-6.24,13.3-20.79-6.24-20.79-13.3-20.79Z"/>
            <path class="cls-18" d="m1388.56,427.59c10.39,0,15.8,5.41,15.8,5.41l-4.99,7.9s-3.74-3.33-9.98-3.33c-8.73,0-14.97,6.24-14.97,20.79s6.24,20.79,14.97,20.79c2.91,0,5.41-.83,5.41-.83v-14.97h-7.9v-9.56h19.54v28.69s-6.65,6.65-17.88,6.65c-14.97,0-26.19-11.23-26.19-30.77s11.23-30.77,26.19-30.77Z"/>
            <path class="cls-18" d="m1440.95,489.13c-14.14,0-25.36-11.23-25.36-30.77s11.23-30.77,25.36-30.77,25.36,11.23,25.36,30.77-11.23,30.77-25.36,30.77Zm0-51.56c-7.07,0-13.3,6.24-13.3,20.79s6.24,20.79,13.3,20.79,13.3-6.24,13.3-20.79-6.24-20.79-13.3-20.79Z"/>
          </g>
          <g class="cls-52">
            <path class="cls-18" d="m465.79,658.77h8.4v35.1h17.7v6.9h-26.1v-42Z"/>
            <path class="cls-18" d="m512.9,701.97c-10.2,0-18.3-8.1-18.3-22.2s8.1-22.2,18.3-22.2,18.3,8.1,18.3,22.2-8.1,22.2-18.3,22.2Zm0-37.2c-5.1,0-9.6,4.5-9.6,15s4.5,15,9.6,15,9.6-4.5,9.6-15-4.5-15-9.6-15Z"/>
            <path class="cls-18" d="m555.5,657.57c7.5,0,11.4,3.9,11.4,3.9l-3.6,5.7s-2.7-2.4-7.2-2.4c-6.3,0-10.8,4.5-10.8,15s4.5,15,10.8,15c2.1,0,3.9-.6,3.9-.6v-10.8h-5.7v-6.9h14.1v20.7s-4.8,4.8-12.9,4.8c-10.8,0-18.9-8.1-18.9-22.2s8.1-22.2,18.9-22.2Z"/>
            <path class="cls-18" d="m593.31,701.97c-10.2,0-18.3-8.1-18.3-22.2s8.1-22.2,18.3-22.2,18.3,8.1,18.3,22.2-8.1,22.2-18.3,22.2Zm0-37.2c-5.1,0-9.6,4.5-9.6,15s4.5,15,9.6,15,9.6-4.5,9.6-15-4.5-15-9.6-15Z"/>
          </g>
          <g class="cls-52">
            <path class="cls-18" d="m897.88,631.1h-16.02v-80.1h16.02v80.1Z"/>
            <path class="cls-18" d="m963.11,600.2v-49.2h16.02v80.1h-16.93l-27.12-49.2h-.57v49.2h-16.02v-80.1h16.93l27.12,49.2h.57Z"/>
            <path class="cls-18" d="m1048.93,551v13.16h-20.6v66.94h-16.02v-66.94h-20.6v-13.16h57.21Z"/>
            <path class="cls-18" d="m1061.52,551h52.64v13.16h-36.62v20.6h24.6v13.16h-24.6v20.03h37.19v13.16h-53.21v-80.1Z"/>
            <path class="cls-18" d="m1157.64,551c17.74,0,28.03,10.3,28.03,26.32,0,17.74-12.59,22.89-12.59,22.89v.57l18.31,30.32h-17.74l-16.02-27.46h-13.16v27.46h-16.02v-80.1h29.18Zm-13.16,39.48h13.16c6.29,0,11.44-5.15,11.44-13.16s-5.15-13.16-11.44-13.16h-13.16v26.32Z"/>
            <path class="cls-18" d="m1203.41,551h52.64v13.16h-36.62v24.14h24.6v13.05h-24.6v29.75h-16.02v-80.1Z"/>
            <path class="cls-18" d="m1268.07,631.1h-16.59l25.75-80.1h20.02l25.75,80.1h-16.59l-5.15-16.02h-28.03l-5.15,16.02Zm19.45-58.93h-.57l-9.15,29.18h18.88l-9.15-29.18Z"/>
            <path class="cls-18" d="m1361.9,548.71c14.3,0,21.74,7.44,21.74,7.44l-6.87,10.87s-5.15-4.58-13.73-4.58c-12.01,0-20.6,8.58-20.6,28.61s8.58,28.61,20.6,28.61c9.73,0,14.87-5.72,14.87-5.72l6.87,10.87s-8.01,8.58-22.88,8.58c-20.6,0-36.04-15.45-36.04-42.34s15.45-42.34,36.04-42.34Z"/>
            <path class="cls-18" d="m1397.37,551h52.64v13.16h-36.62v20.6h24.6v13.16h-24.6v20.03h37.19v13.16h-53.21v-80.1Z"/>
          </g>
          <g class="cls-52">
            <path class="cls-18" d="m814.36,991.62l-5.95-16.37h-.25l-1.98,21.33h-7.19l3.22-34.72h7.69l6.94,19.09h.25l6.94-19.09h7.69l3.22,34.72h-7.19l-1.98-21.33h-.25l-5.95,16.37h-5.21Z"/>
            <path class="cls-18" d="m855.28,997.57c-8.43,0-15.13-6.7-15.13-18.35s6.7-18.35,15.13-18.35,15.13,6.7,15.13,18.35-6.7,18.35-15.13,18.35Zm0-30.75c-4.22,0-7.94,3.72-7.94,12.4s3.72,12.4,7.94,12.4,7.94-3.72,7.94-12.4-3.72-12.4-7.94-12.4Z"/>
            <path class="cls-18" d="m888.26,996.58h-11.16v-34.72h11.16c8.68,0,15.13,6.45,15.13,17.36s-6.45,17.36-15.13,17.36Zm-4.22-29.01v23.31h4.22c4.46,0,7.94-3.47,7.94-11.66s-3.47-11.66-7.94-11.66h-4.22Z"/>
            <path class="cls-18" d="m910.09,961.86h22.81v5.7h-15.87v8.93h10.66v5.7h-10.66v8.68h16.12v5.7h-23.06v-34.72Z"/>
            <path class="cls-18" d="m951.75,961.86c7.69,0,12.15,4.46,12.15,11.41,0,7.69-5.46,9.92-5.46,9.92v.25l7.94,13.14h-7.69l-6.94-11.9h-5.7v11.9h-6.94v-34.72h12.65Zm-5.7,17.11h5.7c2.73,0,4.96-2.23,4.96-5.7s-2.23-5.7-4.96-5.7h-5.7v11.41Z"/>
            <path class="cls-18" d="m990.93,983.19v-21.33h6.94v34.72h-7.34l-11.75-21.33h-.25v21.33h-6.94v-34.72h7.34l11.75,21.33h.25Z"/>
          </g>
          <g class="cls-52">
            <path class="cls-18" d="m1169.42,954.05h-7.93v-39.63h7.93v39.63Z"/>
            <path class="cls-18" d="m1179.62,914.42h7.93v33.12h16.7v6.51h-24.63v-39.63Z"/>
            <path class="cls-18" d="m1209.06,914.42h7.93v33.12h16.7v6.51h-24.63v-39.63Z"/>
            <path class="cls-18" d="m1243.85,941.31c0,4.53,2.55,7.08,7.08,7.08s7.08-2.55,7.08-7.08v-26.89h7.93v26.89c0,7.93-5.94,13.87-15,13.87s-15-5.94-15-13.87v-26.89h7.93v26.89Z"/>
            <path class="cls-18" d="m1299.91,942.45c0,7.08-5.66,12.74-15.29,12.74-8.21,0-12.46-5.1-12.46-5.1l3.4-5.38s3.11,3.68,8.49,3.68c5.1,0,7.64-2.55,7.64-5.95,0-7.08-17.84-3.4-17.84-17.27,0-6.51,5.38-11.89,13.59-11.89s11.61,4.53,11.61,4.53l-3.11,5.38s-3.11-3.11-7.93-3.11c-3.68,0-5.94,2.27-5.94,5.1,0,7.36,17.84,3.96,17.84,17.27Z"/>
            <path class="cls-18" d="m1330.2,914.42v6.51h-10.19v33.12h-7.93v-33.12h-10.19v-6.51h28.31Z"/>
            <path class="cls-18" d="m1350.87,914.42c8.78,0,13.87,5.1,13.87,13.02,0,8.78-6.23,11.32-6.23,11.32v.28l9.06,15h-8.78l-7.93-13.59h-6.51v13.59h-7.93v-39.63h14.44Zm-6.51,19.53h6.51c3.11,0,5.66-2.55,5.66-6.51s-2.55-6.51-5.66-6.51h-6.51v13.02Z"/>
            <path class="cls-18" d="m1376.63,954.05h-8.21l12.74-39.63h9.91l12.74,39.63h-8.21l-2.55-7.93h-13.87l-2.55,7.93Zm9.63-29.16h-.28l-4.53,14.44h9.34l-4.53-14.44Z"/>
            <path class="cls-18" d="m1429.85,914.42v6.51h-10.19v33.12h-7.93v-33.12h-10.19v-6.51h28.31Z"/>
            <path class="cls-18" d="m1444.01,954.05h-7.93v-39.63h7.93v39.63Z"/>
            <path class="cls-18" d="m1468.92,955.18c-9.63,0-17.27-7.64-17.27-20.95s7.64-20.95,17.27-20.95,17.27,7.64,17.27,20.95-7.64,20.95-17.27,20.95Zm0-35.1c-4.81,0-9.06,4.25-9.06,14.16s4.25,14.15,9.06,14.15,9.06-4.25,9.06-14.15-4.25-14.16-9.06-14.16Z"/>
            <path class="cls-18" d="m1515.92,938.77v-24.35h7.93v39.63h-8.38l-13.42-24.35h-.28v24.35h-7.93v-39.63h8.38l13.42,24.35h.28Z"/>
          </g>
          <g class="cls-52">
            <path class="cls-18" d="m1493.25,577.25l-15.5-50.46h10.81l10.81,36.41h.36l10.81-36.41h10.81l-15.5,50.46h-12.62Z"/>
            <path class="cls-18" d="m1538.67,577.25h-10.09v-50.46h10.09v50.46Z"/>
            <path class="cls-18" d="m1582.29,562.47c0,9.01-7.21,16.22-19.46,16.22-10.45,0-15.86-6.49-15.86-6.49l4.33-6.85s3.96,4.69,10.81,4.69c6.49,0,9.73-3.24,9.73-7.57,0-9.01-22.71-4.32-22.71-21.99,0-8.29,6.85-15.14,17.3-15.14s14.78,5.77,14.78,5.77l-3.97,6.85s-3.96-3.97-10.09-3.97c-4.69,0-7.57,2.88-7.57,6.49,0,9.37,22.71,5.05,22.71,21.99Z"/>
            <path class="cls-18" d="m1601.03,561.03c0,5.77,3.24,9.01,9.01,9.01s9.01-3.24,9.01-9.01v-34.24h10.09v34.24c0,10.09-7.57,17.66-19.1,17.66s-19.1-7.57-19.1-17.66v-34.24h10.09v34.24Z"/>
            <path class="cls-18" d="m1644.29,577.25h-10.45l16.22-50.46h12.62l16.22,50.46h-10.45l-3.24-10.09h-17.66l-3.24,10.09Zm12.25-37.12h-.36l-5.77,18.38h11.89l-5.77-18.38Z"/>
            <path class="cls-18" d="m1685.38,526.79h10.09v42.17h21.27v8.29h-31.36v-50.46Z"/>
          </g>
          <g class="cls-52">
            <path class="cls-18" d="m688.55,688.86l-11.37-37.01h7.93l7.93,26.7h.26l7.93-26.7h7.93l-11.37,37.01h-9.25Z"/>
            <path class="cls-18" d="m721.86,688.86h-7.4v-37.01h7.4v37.01Z"/>
            <path class="cls-18" d="m753.84,678.02c0,6.61-5.29,11.9-14.27,11.9-7.67,0-11.63-4.76-11.63-4.76l3.17-5.02s2.91,3.44,7.93,3.44c4.76,0,7.14-2.38,7.14-5.55,0-6.61-16.65-3.17-16.65-16.12,0-6.08,5.02-11.1,12.69-11.1s10.84,4.23,10.84,4.23l-2.91,5.02s-2.91-2.91-7.4-2.91c-3.44,0-5.55,2.11-5.55,4.76,0,6.87,16.65,3.7,16.65,16.12Z"/>
            <path class="cls-18" d="m767.59,676.97c0,4.23,2.38,6.61,6.61,6.61s6.61-2.38,6.61-6.61v-25.11h7.4v25.11c0,7.4-5.55,12.95-14.01,12.95s-14.01-5.55-14.01-12.95v-25.11h7.4v25.11Z"/>
            <path class="cls-18" d="m799.31,688.86h-7.67l11.9-37.01h9.25l11.9,37.01h-7.67l-2.38-7.4h-12.95l-2.38,7.4Zm8.99-27.23h-.26l-4.23,13.48h8.72l-4.23-13.48Z"/>
            <path class="cls-18" d="m829.44,651.85h7.4v30.93h15.6v6.08h-23v-37.01Z"/>
          </g>
        </g>
        <ellipse class="cls-17" cx="941.27" cy="642.26" rx="777.47" ry="47.33"/>
        <g>
          <line class="cls-54" x1="1832.7" y1="707.75" x2="1832.7" y2="535.5"/>
          <circle class="cls-51" cx="1832.7" cy="523.27" r="9.61" transform="translate(-60.74 741.18) rotate(-22.5)"/>
        </g>
        <g>
          <line class="cls-54" x1="1321.41" y1="842.12" x2="1149.16" y2="842.12"/>
          <circle class="cls-51" cx="1136.92" cy="842.12" r="9.61"/>
        </g>
        <polyline class="cls-50" points="922.26 711.32 638.13 711.32 638.13 648.23"/>
        <polyline class="cls-50" points="535.11 284.78 1044.53 284.78 1044.53 327.25"/>
        <circle class="cls-53" cx="1012.79" cy="768.86" r="103.27" transform="translate(-247.02 941.35) rotate(-45)"/>
        <polyline class="cls-53" points="1340.01 331.86 1340.01 249.45 1433.33 249.45"/>
        <polyline class="cls-54" points="1119.21 781.39 1747.63 781.39 1747.63 698.93"/>
        <polyline class="cls-50" points="91.29 505.86 91.29 778.66 338.19 778.66"/>
        <g class="cls-52">
          <path class="cls-45" d="m1818.67,756.98c-9.55,16.17-4.19,37.03,11.99,46.58,16.17,9.55,37.03,4.19,46.58-11.99,9.55-16.17,4.19-37.03-11.99-46.58-16.17-9.55-37.03-4.19-46.58,11.99Zm46.84,27.67c-5.73,9.69-18.23,12.91-27.92,7.19-9.69-5.73-12.91-18.23-7.19-27.92,5.73-9.69,18.23-12.91,27.92-7.19,9.69,5.73,12.91,18.23,7.19,27.92Z"/>
          <path class="cls-45" d="m1825.66,753.15l-6.97,11.8-9.16-7.46c-.55-.45-.69-1.23-.33-1.84l3.73-6.32c.36-.61,1.11-.87,1.77-.6l10.95,4.42Z"/>
          <path class="cls-45" d="m1870.25,795.4l6.97-11.8,9.16,7.46c.55.45.69,1.23.33,1.84l-3.73,6.32c-.36.61-1.11.87-1.77.6l-10.95-4.42Z"/>
          <path class="cls-45" d="m1869.09,751.98l-11.8-6.97,7.46-9.16c.45-.55,1.23-.69,1.84-.33l6.32,3.73c.61.36.87,1.11.6,1.77l-4.42,10.95Z"/>
          <path class="cls-45" d="m1826.83,796.57l11.8,6.97-7.46,9.16c-.45.55-1.23.69-1.84.33l-6.32-3.73c-.61-.36-.87-1.11-.6-1.77l4.42-10.95Z"/>
          <path class="cls-45" d="m1839.21,744.83l-11.94,6.73-4.2-11.04c-.25-.66.02-1.41.64-1.76l6.39-3.61c.62-.35,1.4-.19,1.84.37l7.27,9.3Z"/>
          <path class="cls-45" d="m1856.7,803.72l11.94-6.73,4.2,11.04c.25.66-.02,1.41-.64,1.76l-6.39,3.61c-.62.35-1.4.19-1.84-.37l-7.27-9.3Z"/>
          <path class="cls-45" d="m1818.08,767.13l-.14,13.7-11.66-1.88c-.7-.11-1.21-.72-1.21-1.43l.07-7.34c0-.71.53-1.31,1.24-1.41l11.69-1.65Z"/>
          <path class="cls-45" d="m1877.83,781.42l.14-13.7,11.66,1.88c.7.11,1.21.72,1.21,1.43l-.07,7.34c0,.71-.53,1.31-1.24,1.41l-11.69,1.65Z"/>
          <path class="cls-45" d="m1855.11,744.4l-13.7-.14,1.88-11.66c.11-.7.72-1.21,1.43-1.21l7.34.07c.71,0,1.31.53,1.41,1.24l1.65,11.69Z"/>
          <path class="cls-45" d="m1840.81,804.15l13.7.14-1.88,11.66c-.11.7-.72,1.21-1.43,1.21l-7.34-.07c-.71,0-1.31-.53-1.41-1.24l-1.65-11.69Z"/>
          <path class="cls-45" d="m1825.24,794.96l-6.73-11.94-9.3,7.27c-.56.44-.71,1.22-.37,1.84l3.61,6.39c.35.62,1.1.89,1.76.64l11.04-4.2Z"/>
          <path class="cls-45" d="m1870.67,753.59l6.73,11.94,9.3-7.27c.56-.44.71-1.22.37-1.84l-3.61-6.39c-.35-.62-1.1-.89-1.76-.64l-11.04,4.2Z"/>
          <path class="cls-45" d="m1774.46,714.39l-3.94,2.79c-.38.27-.51.78-.3,1.2l2.46,4.88c-2.18,2.26-3.82,4.9-4.87,7.74l-5.46-.1c-.47,0-.87.33-.95.79l-.81,4.76c-.08.46.19.91.64,1.06l5.19,1.71c.05,3.03.72,6.06,2.03,8.91l-3.94,3.79c-.34.32-.39.85-.12,1.23l2.79,3.94c.27.38.78.51,1.2.3l4.88-2.46c2.26,2.18,4.9,3.82,7.74,4.87l-.1,5.46c0,.47.33.87.79.95l4.76.81c.46.08.91-.19,1.06-.64l1.71-5.19c3.03-.05,6.06-.72,8.91-2.03l3.79,3.94c.32.34.85.39,1.23.12l3.94-2.79c.38-.27.51-.78.3-1.2l-2.46-4.88c2.18-2.26,3.82-4.9,4.87-7.74l5.46.1c.47,0,.87-.33.95-.79l.81-4.76c.08-.46-.19-.91-.64-1.06l-5.19-1.71c-.05-3.03-.72-6.06-2.03-8.91l3.94-3.79c.34-.32.39-.85.12-1.23l-2.79-3.94c-.27-.38-.78-.51-1.2-.3l-4.88,2.46c-2.26-2.18-4.9-3.82-7.74-4.87l.1-5.46c0-.47-.33-.87-.79-.95l-4.76-.81c-.46-.08-.91.19-1.06.64l-1.71,5.19c-3.03.05-6.06.72-8.91,2.03l-3.79-3.94c-.32-.34-.85-.39-1.23-.12Zm23.79,16.75c4.62,5.72,3.19,14.15-3.07,18.01-5.16,3.19-12,2.02-15.81-2.69-4.62-5.72-3.19-14.15,3.07-18.01,5.16-3.19,12-2.02,15.81,2.69Z"/>
        </g>
        <g>
          <path class="cls-57" d="m376.31,636.59h-92.81v-288.75h92.81c72.19,0,125.81,53.63,125.81,144.38s-53.63,144.38-125.81,144.38Zm-35.06-241.32v193.88h35.06c37.13,0,66-28.88,66-96.94s-28.87-96.94-66-96.94h-35.06Z"/>
          <path class="cls-57" d="m546.73,347.83h189.75v47.44h-132v74.25h88.69v47.44h-88.69v72.19h134.06v47.44h-191.81v-288.75Z"/>
          <path class="cls-57" d="m985.28,552.02c0,51.56-41.25,92.81-111.37,92.81-59.81,0-90.75-37.12-90.75-37.12l24.75-39.19s22.69,26.81,61.87,26.81c37.12,0,55.69-18.56,55.69-43.31,0-51.56-129.94-24.75-129.94-125.81,0-47.44,39.19-86.63,99-86.63s84.56,33,84.56,33l-22.69,39.19s-22.69-22.69-57.75-22.69c-26.81,0-43.31,16.5-43.31,37.12,0,53.63,129.94,28.88,129.94,125.81Z"/>
          <path class="cls-57" d="m1087.64,636.59h-57.75v-288.75h57.75v288.75Z"/>
          <path class="cls-57" d="m1262.18,339.58c51.56,0,78.38,26.81,78.38,26.81l-24.75,39.19s-18.56-16.5-49.5-16.5c-43.31,0-74.25,30.94-74.25,103.13s30.94,103.13,74.25,103.13c14.44,0,26.81-4.13,26.81-4.13v-74.25h-39.19v-47.44h96.94v142.31s-33,33-88.69,33c-74.25,0-129.94-55.69-129.94-152.63s55.69-152.63,129.94-152.63Z"/>
          <path class="cls-57" d="m1556.36,525.21v-177.38h57.75v288.75h-61.05l-97.76-177.38h-2.06v177.38h-57.75v-288.75h61.05l97.76,177.38h2.06Z"/>
        </g>
        <g class="cls-52">
          <path class="cls-33" d="m267.09,265.05h20.16c12.1,0,18.14,6.05,18.14,15.32s-7.66,11.05-7.66,11.05v.48s10.89,2.18,10.89,13.47c0,9.68-6.45,16.13-18.95,16.13h-22.58v-56.45Zm26.61,16.13c0-4.44-2.42-6.85-6.45-6.85h-8.87v13.71h8.87c4.03,0,6.45-2.42,6.45-6.85Zm-15.32,16.13v14.92h11.29c4.44,0,7.26-2.82,7.26-7.26,0-4.84-2.82-7.66-7.26-7.66h-11.29Z"/>
          <path class="cls-33" d="m339.27,265.05c12.5,0,19.76,7.26,19.76,18.55,0,12.5-8.87,16.13-8.87,16.13v.4l12.9,21.37h-12.5l-11.29-19.35h-9.27v19.35h-11.29v-56.45h20.56Zm-9.27,27.82h9.27c4.44,0,8.06-3.63,8.06-9.27s-3.63-9.27-8.06-9.27h-9.27v18.55Z"/>
          <path class="cls-33" d="m375.96,321.5h-11.69l18.14-56.45h14.11l18.14,56.45h-11.69l-3.63-11.29h-19.76l-3.63,11.29Zm13.71-41.53h-.4l-6.45,20.56h13.31l-6.45-20.56Z"/>
          <path class="cls-33" d="m453.38,299.73v-34.68h11.29v56.45h-11.93l-19.11-34.68h-.4v34.68h-11.29v-56.45h11.94l19.11,34.68h.4Z"/>
          <path class="cls-33" d="m497.33,321.5h-18.14v-56.45h18.14c14.11,0,24.6,10.48,24.6,28.23s-10.48,28.22-24.6,28.22Zm-6.85-47.18v37.9h6.85c7.26,0,12.9-5.65,12.9-18.95s-5.65-18.95-12.9-18.95h-6.85Z"/>
        </g>
        <g class="cls-52">
          <path class="cls-33" d="m1796.6,674.12v11.99h-59.95v-21.84c0-13.7,8.14-21.84,20.55-21.84s20.55,8.14,20.55,21.84v9.85h18.84Zm-50.1,0h21.41v-9.85c0-5.14-4.28-9.42-10.71-9.42s-10.7,4.28-10.7,9.42v9.85Z"/>
          <path class="cls-33" d="m1736.65,609.88c0-13.27,7.71-20.98,19.7-20.98,13.27,0,17.13,9.42,17.13,9.42h.43l22.69-13.7v13.27l-20.55,11.99v9.85h20.55v11.99h-59.95v-21.84Zm29.55,9.85v-9.85c0-4.71-3.85-8.56-9.85-8.56s-9.85,3.85-9.85,8.56v9.85h19.7Z"/>
          <path class="cls-33" d="m1798.31,553.36c0,14.56-11.56,26.12-31.69,26.12s-31.69-11.56-31.69-26.12,11.56-26.12,31.69-26.12,31.69,11.56,31.69,26.12Zm-53.1,0c0,7.28,6.42,13.7,21.41,13.7s21.41-6.42,21.41-13.7-6.42-13.7-21.41-13.7-21.41,6.42-21.41,13.7Z"/>
          <path class="cls-33" d="m1746.5,501.54v15.42h-9.85v-27.41h41.96c11.99,0,19.7,7.71,19.7,20.13,0,8.56-3.85,12.85-3.85,12.85l-8.57-4.71s2.14-2.57,2.14-7.28c0-5.14-3.85-8.99-9.42-8.99h-32.12Z"/>
          <path class="cls-33" d="m1736.65,474.56v-39.4h9.85v27.41h15.42v-18.41h9.85v18.41h14.99v-27.83h9.85v39.82h-59.95Z"/>
          <path class="cls-33" d="m1734.94,401.33c0-10.71,5.57-16.27,5.57-16.27l8.14,5.14s-3.43,3.85-3.43,10.28c0,8.99,6.42,15.42,21.41,15.42s21.41-6.42,21.41-15.42c0-7.28-4.28-11.13-4.28-11.13l8.14-5.14s6.42,6,6.42,17.13c0,15.42-11.56,26.98-31.69,26.98s-31.69-11.56-31.69-26.98Z"/>
          <path class="cls-33" d="m1736.65,337.96h9.85v15.42h50.1v11.99h-50.1v15.42h-9.85v-42.82Z"/>
        </g>
        <g class="cls-52">
          <path class="cls-40" d="m833.55,270.33h-13.21v-66.04h13.21v66.04Z"/>
          <path class="cls-40" d="m864.86,270.33h-21.23v-66.04h21.23c16.51,0,28.77,12.26,28.77,33.02s-12.26,33.02-28.77,33.02Zm-8.02-55.19v44.34h8.02c8.49,0,15.09-6.6,15.09-22.17s-6.6-22.17-15.09-22.17h-8.02Z"/>
          <path class="cls-40" d="m903.71,204.29h43.4v10.85h-30.19v16.98h20.28v10.85h-20.28v16.51h30.66v10.85h-43.87v-66.04Z"/>
          <path class="cls-40" d="m971.34,270.33h-13.68l21.23-66.04h16.51l21.23,66.04h-13.68l-4.25-13.21h-23.11l-4.24,13.21Zm16.04-48.58h-.47l-7.55,24.06h15.57l-7.55-24.06Z"/>
        </g>
        <g class="cls-52">
          <path class="cls-27" d="m1495.36,280.82c0,14.61-11.69,26.29-31.55,26.29-16.95,0-25.71-10.52-25.71-10.52l7.01-11.1s6.43,7.6,17.53,7.6c10.52,0,15.78-5.26,15.78-12.27,0-14.61-36.81-7.01-36.81-35.64,0-13.44,11.1-24.54,28.05-24.54s23.96,9.35,23.96,9.35l-6.43,11.1s-6.43-6.43-16.36-6.43c-7.6,0-12.27,4.68-12.27,10.52,0,15.19,36.81,8.18,36.81,35.64Z"/>
          <path class="cls-27" d="m1560.22,222.97v13.44h-21.04v68.37h-16.36v-68.37h-21.04v-13.44h58.43Z"/>
          <path class="cls-27" d="m1613.4,222.97h16.94l-25.71,56.09v25.71h-16.36v-25.71l-25.71-56.09h16.95l16.59,36.23h.7l16.6-36.23Z"/>
          <path class="cls-27" d="m1640.87,222.97h16.36v68.37h34.47v13.44h-50.84v-81.81Z"/>
          <path class="cls-27" d="m1704.56,222.97h53.76v13.44h-37.4v21.04h25.13v13.44h-25.13v20.45h37.98v13.44h-54.34v-81.81Z"/>
        </g>
        <g class="cls-52">
          <path class="cls-41" d="m507.27,769.98c11.56,0,17.57,6.01,17.57,6.01l-5.55,8.78s-4.16-3.7-11.1-3.7c-9.71,0-16.64,6.94-16.64,23.12s6.94,23.12,16.64,23.12c7.86,0,12.02-4.62,12.02-4.62l5.55,8.78s-6.47,6.94-18.49,6.94c-16.65,0-29.13-12.48-29.13-34.21s12.48-34.21,29.13-34.21Z"/>
          <path class="cls-41" d="m559.52,771.83c14.33,0,22.66,8.32,22.66,21.27,0,14.33-10.17,18.49-10.17,18.49v.46l14.8,24.5h-14.33l-12.95-22.19h-10.63v22.19h-12.95v-64.73h23.58Zm-10.63,31.9h10.63c5.09,0,9.25-4.16,9.25-10.63s-4.16-10.63-9.25-10.63h-10.63v21.27Z"/>
          <path class="cls-41" d="m596.51,771.83h42.54v10.63h-29.59v16.64h19.88v10.63h-19.88v16.18h30.05v10.63h-43v-64.73Z"/>
          <path class="cls-41" d="m655.69,836.56h-13.41l20.81-64.73h16.18l20.81,64.73h-13.41l-4.16-12.95h-22.66l-4.16,12.95Zm15.72-47.62h-.46l-7.4,23.58h15.26l-7.4-23.58Z"/>
          <path class="cls-41" d="m748.16,771.83v10.63h-16.64v54.09h-12.95v-54.09h-16.64v-10.63h46.23Z"/>
          <path class="cls-41" d="m771.29,836.56h-12.95v-64.73h12.95v64.73Z"/>
          <path class="cls-41" d="m800.41,836.56l-19.88-64.73h13.87l13.87,46.7h.46l13.87-46.7h13.87l-19.88,64.73h-16.18Z"/>
          <path class="cls-41" d="m845.73,771.83h42.54v10.63h-29.59v16.64h19.88v10.63h-19.88v16.18h30.05v10.63h-43v-64.73Z"/>
        </g>
        <g class="cls-52">
          <path class="cls-27" d="m163.08,750.31l-20.85-67.87h14.54l14.54,48.96h.48l14.54-48.96h14.54l-20.85,67.87h-16.97Z"/>
          <path class="cls-27" d="m224.16,750.31h-13.57v-67.87h13.57v67.87Z"/>
          <path class="cls-27" d="m282.82,730.43c0,12.12-9.7,21.82-26.18,21.82-14.06,0-21.33-8.73-21.33-8.73l5.82-9.21s5.33,6.3,14.54,6.3c8.73,0,13.09-4.36,13.09-10.18,0-12.12-30.54-5.82-30.54-29.57,0-11.15,9.21-20.36,23.27-20.36s19.88,7.76,19.88,7.76l-5.33,9.21s-5.33-5.33-13.57-5.33c-6.3,0-10.18,3.88-10.18,8.73,0,12.6,30.54,6.79,30.54,29.57Z"/>
          <path class="cls-27" d="m308.03,728.49c0,7.76,4.36,12.12,12.12,12.12s12.12-4.36,12.12-12.12v-46.05h13.57v46.05c0,13.57-10.18,23.75-25.69,23.75s-25.69-10.18-25.69-23.75v-46.05h13.57v46.05Z"/>
          <path class="cls-27" d="m366.21,750.31h-14.06l21.82-67.87h16.97l21.82,67.87h-14.06l-4.36-13.57h-23.75l-4.36,13.57Zm16.48-49.93h-.48l-7.76,24.72h16l-7.76-24.72Z"/>
          <path class="cls-27" d="m421.48,682.44h13.57v56.72h28.6v11.15h-42.18v-67.87Z"/>
        </g>
        <g class="cls-52">
          <path class="cls-9" d="m1176.98,721.8c8.03,0,12.21,4.17,12.21,4.17l-3.85,6.1s-2.89-2.57-7.71-2.57c-6.74,0-11.56,4.82-11.56,16.06s4.82,16.06,11.56,16.06c2.25,0,4.17-.64,4.17-.64v-11.56h-6.1v-7.38h15.09v22.16s-5.14,5.14-13.81,5.14c-11.56,0-20.23-8.67-20.23-23.77s8.67-23.77,20.23-23.77Z"/>
          <path class="cls-9" d="m1217.14,723.09c9.96,0,15.74,5.78,15.74,14.78,0,9.95-7.07,12.85-7.07,12.85v.32l10.28,17.02h-9.96l-8.99-15.42h-7.38v15.42h-9v-44.96h16.38Zm-7.38,22.16h7.38c3.53,0,6.42-2.89,6.42-7.38s-2.89-7.39-6.42-7.39h-7.38v14.78Z"/>
          <path class="cls-9" d="m1246.4,768.05h-9.31l14.45-44.96h11.24l14.45,44.96h-9.31l-2.89-8.99h-15.74l-2.89,8.99Zm10.92-33.08h-.32l-5.14,16.38h10.6l-5.14-16.38Z"/>
          <path class="cls-9" d="m1292.02,768.05h-9v-44.96h16.38c10.28,0,16.38,6.1,16.38,15.42s-6.1,15.41-16.38,15.41h-7.38v14.13Zm0-37.58v16.06h7.38c3.85,0,7.07-3.21,7.07-8.03s-3.21-8.03-7.07-8.03h-7.38Z"/>
          <path class="cls-9" d="m1357.56,723.09v44.96h-8.99v-18.63h-15.74v18.63h-9v-44.96h9v18.95h15.74v-18.95h8.99Z"/>
          <path class="cls-9" d="m1378.14,768.05h-9v-44.96h9v44.96Z"/>
          <path class="cls-9" d="m1407.06,721.8c8.03,0,12.21,4.17,12.21,4.17l-3.85,6.1s-2.89-2.57-7.71-2.57c-6.74,0-11.56,4.82-11.56,16.06s4.82,16.06,11.56,16.06c5.46,0,8.35-3.21,8.35-3.21l3.85,6.1s-4.49,4.82-12.85,4.82c-11.56,0-20.23-8.67-20.23-23.77s8.67-23.77,20.23-23.77Z"/>
        </g>
        <g>
          <g>
            <rect class="cls-25" x="915.83" y="753.18" width="115.26" height="30.84" rx="4.65" ry="4.65" transform="translate(204.87 1742.07) rotate(-90)"/>
            <rect class="cls-10" x="915.83" y="753.18" width="115.26" height="30.84" rx="4.65" ry="4.65" transform="translate(204.87 1742.07) rotate(-90)"/>
            <rect class="cls-30" x="963.56" y="778.45" width="19.82" height="27.19" transform="translate(181.42 1765.51) rotate(-90)"/>
            <rect class="cls-30" x="963.56" y="757.26" width="19.82" height="27.19" transform="translate(202.61 1744.32) rotate(-90)"/>
            <rect class="cls-30" x="963.56" y="736.07" width="19.82" height="27.19" transform="translate(223.8 1723.13) rotate(-90)"/>
            <rect class="cls-30" x="963.56" y="714.88" width="19.82" height="27.19" transform="translate(244.99 1701.94) rotate(-90)"/>
            <rect class="cls-5" x="963.56" y="757.26" width="19.82" height="27.19" transform="translate(202.61 1744.32) rotate(-90)"/>
            <rect class="cls-37" x="963.56" y="736.07" width="19.82" height="27.19" transform="translate(223.8 1723.13) rotate(-90)"/>
            <rect class="cls-1" x="963.56" y="714.88" width="19.82" height="27.19" transform="translate(244.99 1701.94) rotate(-90)"/>
          </g>
          <g>
            <rect class="cls-38" x="939.62" y="755.33" width="115.26" height="30.84" rx="4.65" ry="4.65" transform="translate(-167.04 1253.46) rotate(-60.22)"/>
            <rect class="cls-2" x="975.69" y="777.51" width="19.82" height="27.19" transform="translate(-190.57 1253.59) rotate(-60.22)"/>
            <rect class="cls-2" x="986.22" y="759.12" width="19.82" height="27.19" transform="translate(-169.31 1253.47) rotate(-60.22)"/>
            <rect class="cls-2" x="996.74" y="740.73" width="19.82" height="27.19" transform="translate(-148.05 1253.35) rotate(-60.22)"/>
            <rect class="cls-2" x="1007.27" y="722.34" width="19.82" height="27.19" transform="translate(-126.78 1253.23) rotate(-60.22)"/>
            <rect class="cls-5" x="986.22" y="759.12" width="19.82" height="27.19" transform="translate(-169.31 1253.47) rotate(-60.22)"/>
            <rect class="cls-37" x="996.74" y="740.73" width="19.82" height="27.19" transform="translate(-148.05 1253.35) rotate(-60.22)"/>
            <rect class="cls-1" x="1007.27" y="722.34" width="19.82" height="27.19" transform="translate(-126.78 1253.23) rotate(-60.22)"/>
          </g>
          <g>
            <rect class="cls-12" x="955.68" y="771.81" width="115.26" height="30.84" rx="4.65" ry="4.65" transform="translate(-259.21 622.28) rotate(-30.46)"/>
            <rect class="cls-21" x="983.19" y="785.52" width="19.82" height="27.19" transform="translate(-268.03 613.67) rotate(-30.46)"/>
            <rect class="cls-21" x="1001.45" y="774.78" width="19.82" height="27.19" transform="translate(-260.06 621.45) rotate(-30.46)"/>
            <rect class="cls-21" x="1019.72" y="764.04" width="19.82" height="27.19" transform="translate(-252.1 629.22) rotate(-30.46)"/>
            <rect class="cls-21" x="1037.99" y="753.3" width="19.82" height="27.19" transform="translate(-244.13 637) rotate(-30.46)"/>
            <rect class="cls-5" x="1001.45" y="774.78" width="19.82" height="27.19" transform="translate(-260.06 621.45) rotate(-30.46)"/>
            <rect class="cls-37" x="1019.72" y="764.04" width="19.82" height="27.19" transform="translate(-252.1 629.22) rotate(-30.46)"/>
            <rect class="cls-1" x="1037.99" y="753.3" width="19.82" height="27.19" transform="translate(-244.13 637) rotate(-30.46)"/>
          </g>
          <g>
            <rect class="cls-25" x="961.25" y="795.6" width="115.26" height="30.84" rx="4.65" ry="4.65"/>
            <rect class="cls-35" x="985.52" y="797.43" width="19.82" height="27.19"/>
            <rect class="cls-35" x="1006.71" y="797.43" width="19.82" height="27.19"/>
            <rect class="cls-35" x="1027.9" y="797.43" width="19.82" height="27.19"/>
            <rect class="cls-35" x="1049.09" y="797.43" width="19.82" height="27.19"/>
            <rect class="cls-5" x="1006.71" y="797.43" width="19.82" height="27.19"/>
            <rect class="cls-37" x="1027.9" y="797.43" width="19.82" height="27.19"/>
            <rect class="cls-1" x="1049.09" y="797.43" width="19.82" height="27.19"/>
          </g>
        </g>
        <g>
          <rect class="cls-30" x="1091.64" y="199.47" width="8.76" height="37.88" rx="2.5" ry="2.5" transform="translate(1327.39 -874.95) rotate(90.68)"/>
          <rect class="cls-30" x="1113.68" y="141.31" width="8.76" height="37.88" rx="2.5" ry="2.5" transform="translate(1983.89 -565.05) rotate(131.89)"/>
          <rect class="cls-30" x="1233.2" y="142.69" width="8.76" height="37.88" rx="2.5" ry="2.5" transform="translate(555.32 -883.48) rotate(49.42)"/>
          <rect class="cls-30" x="1257.32" y="201.38" width="8.76" height="37.88" rx="2.5" ry="2.5" transform="translate(1496.85 -1038.7) rotate(90.67)"/>
          <path class="cls-30" d="m1179.96,160.96h0c-2.41-.03-4.36-2.02-4.33-4.43l.34-29.12c.03-2.41,2.02-4.35,4.43-4.33h0c2.41.03,4.35,2.02,4.33,4.43l-.34,29.12c-.03,2.41-2.02,4.35-4.43,4.33Z"/>
          <g>
            <path class="cls-30" d="m1232.32,234.1s1.24-5.08,1.31-11.27c.35-29.91-23.72-54.44-53.76-54.78-30.04-.35-54.66,23.62-55.01,53.53-.07,6.02,1.06,11.3,1.06,11.3,2.48,10.96,7.95,15.45,14.9,28,2.02,3.65,4.84,9.2,7.54,16.47,19.81.23,39.61.46,59.42.68,2.21-6.26,4.59-10.93,6.18-13.79,7.9-14.25,15.15-18.02,18.37-30.14Z"/>
            <path class="cls-25" d="m1184.72,276.37c-1.33-.02-2.41-1.11-2.39-2.45l.27-39.99-7.86-.1-.27,40c-.02,1.33-1.11,2.41-2.45,2.39-1.33-.02-2.41-1.11-2.39-2.45l.27-39.99h-.81c-1.14-.01-2.11-.01-2.82,0h-.25c-2.42-.03-4.39-.78-5.84-2.25-2.11-2.11-2.39-4.99-2.37-6.52.03-2.79.9-5.09,2.51-6.63,1.51-1.45,3.52-2.17,5.96-2.14h.33c6.46.19,8.23,3.99,8.26,5.98l-.08,6.78,7.86.1.07-6.11c.03-2.59,1.21-4.1,2.19-4.92,1.7-1.4,3.9-1.67,5.45-1.66.8,0,1.42.1,1.72.15,2.89.38,7.71,2.67,7.64,8.84-.07,6.27-5.27,8.41-8.01,8.66l-.18.02-4.1-.07-.27,39.97c-.02,1.33-1.11,2.41-2.45,2.39Zm-18.38-55.29c-1.21-.01-2.11.25-2.68.79-.65.63-1,1.73-1.02,3.2,0,.48.05,2.13.96,3.05.52.53,1.38.81,2.46.82h.17c.74,0,1.74,0,2.92,0h.8s.08-6.65.08-6.65l-.21-.23c-.25-.27-1.06-.91-3.34-.98h-.14Zm24.01.18c-.63,0-1.78.05-2.36.54-.18.15-.42.44-.43,1.24l-.07,6.13,3.84.06h.11c2.14-.34,3.43-1.79,3.45-3.89.03-2.17-1.27-3.66-3.46-3.99-.33-.05-.71-.09-1.08-.09Z"/>
            <g>
              <path class="cls-22" d="m1200.3,309.73l-43.25.13c-3.24,0-5.91-3.35-5.95-7.47v-.31c-.04-4.12,2.58-7.5,5.82-7.51l43.25-.13c3.24,0,5.91,3.35,5.95,7.47v.31c.04,4.12-2.58,7.5-5.82,7.51Z"/>
              <path class="cls-22" d="m1178.29,322.02c11.39-.03,20.57-4.94,20.52-10.95l-41.23.13c.05,6.02,9.32,10.86,20.71,10.83Z"/>
              <path class="cls-22" d="m1204.29,293.12l-51.76.16c-3.56.01-6.51-3.69-6.55-8.23h0c-.04-4.54,2.85-8.26,6.41-8.27l51.76-.16c3.56-.01,6.51,3.69,6.55,8.23h0c.04,4.54-2.84,8.26-6.41,8.27Z"/>
            </g>
          </g>
        </g>
        <g>
          <path class="cls-35" d="m178.43,443.02c-1.03,14.99-1.54,30.5-1.58,46.02.01,21.2.93,42.4,2.85,62.27,1.88,19.87,4.68,38.42,7.88,54.32,3.18,15.9,6.78,29.15,9.69,38.42,1.44,4.64,8.84,4.64,10.28,0,2.91-9.27,6.51-22.52,9.69-38.42,3.2-15.9,6-34.45,7.88-54.32,1.92-19.87,2.84-41.07,2.85-62.27-.04-15.51-.55-31.02-1.58-46.02h-47.97Z"/>
          <path class="cls-48" d="m207.53,334.03c-1.43-4.64-8.79-4.64-10.22,0-1.46,4.64-3.06,10.27-4.72,16.73-1.68,6.46-3.34,13.75-4.93,21.69-3.19,15.9-5.99,34.45-7.89,54.32-.52,5.33-.96,10.76-1.34,16.25h47.97c-.38-5.49-.82-10.92-1.34-16.25-1.89-19.87-4.69-38.42-7.89-54.32-1.6-7.95-3.25-15.24-4.93-21.69-1.66-6.46-3.25-12.09-4.72-16.73Z"/>
          <path class="cls-47" d="m226.4,443.02c-.38-5.49-.82-10.92-1.34-16.25-1.89-19.87-4.69-38.42-7.89-54.32-1.6-7.95-3.25-15.24-4.93-21.69-1.66-6.46-3.25-12.09-4.72-16.73-1.16-3.76-6.22-4.47-8.85-2.13.61.55,1.1,1.26,1.37,2.13,1.46,4.64,3.06,10.27,4.72,16.73,1.68,6.46,3.34,13.75,4.93,21.69,3.19,15.9,5.99,34.45,7.89,54.32.52,5.33.96,10.76,1.34,16.25,1.03,14.99,1.54,30.5,1.58,46.02-.01,21.2-.93,42.4-2.85,62.27-1.88,19.87-4.68,38.42-7.88,54.32-3.18,15.9-6.78,29.15-9.69,38.42-.27.89-.77,1.6-1.4,2.15,2.65,2.32,7.72,1.6,8.88-2.15,2.91-9.27,6.51-22.52,9.69-38.42,3.2-15.9,6-34.45,7.88-54.32,1.92-19.87,2.84-41.07,2.85-62.27-.04-15.51-.55-31.02-1.58-46.02Z"/>
          <path class="cls-30" d="m166.46,326.54c-.29-4.98-.16-11.62,1.24-19.21.67-3.78,1.68-7.78,3.06-11.84,1.34-4.06,3.14-8.16,5.25-12.14,2.1-3.99,4.65-7.8,7.39-11.37,2.81-3.52,5.82-6.82,9.05-9.7l2.4-2.14,2.48-1.96c1.63-1.31,3.32-2.47,5-3.58,1.64-1.15,3.36-2.13,5.02-3.09,1.64-.99,3.32-1.83,4.96-2.63.81-.4,1.62-.8,2.42-1.19.81-.35,1.62-.69,2.41-1.04,1.6-.65,3.1-1.36,4.64-1.87,3.04-1.1,5.86-2.07,8.52-2.78,2.61-.8,5.04-1.36,7.18-1.84,1.06-.24,2.05-.47,2.97-.67.93-.17,1.78-.32,2.55-.46,3.04-.53,4.77-.84,4.77-.84,0,0-1.24,1.25-3.4,3.42-.53.54-1.12,1.14-1.76,1.79-.61.68-1.27,1.42-1.98,2.2-1.41,1.56-2.97,3.3-4.53,5.32-1.62,1.94-3.2,4.17-4.81,6.48-.83,1.13-1.54,2.41-2.31,3.63-.38.62-.75,1.24-1.14,1.87-.34.65-.69,1.3-1.04,1.95-.7,1.3-1.39,2.6-1.96,3.97-.6,1.35-1.22,2.68-1.67,4.07-.51,1.37-.99,2.72-1.33,4.11l-.55,2.03-.4,2.04c-.54,2.67-.7,5.3-.71,7.74.07,2.46.3,4.74.78,6.83.94,4.18,2.55,7.52,4.24,10,1.65,2.48,3.38,4.13,4.51,4.83.57.38,1,.45,1.21.34.05-.05.09-.1.12-.14.03-.06-.05-.4-.07-.52-.02-.08-.03-.16-.04-.22,0-.05.04.03.05.04.03.04.05.06.05.06l.15.18c12.61,15.23,10.49,37.8-4.74,50.41-15.23,12.61-39.08,11.36-51.03-4.39-7.05-9.29-9.06-23.4-8.93-29.7Z"/>
          <path class="cls-35" d="m240.46,239.49c-.92.21-1.91.43-2.97.67-2.14.48-4.57,1.04-7.18,1.84-2.66.71-5.48,1.69-8.52,2.78-1.54.51-3.04,1.22-4.64,1.87-.8.34-1.6.69-2.41,1.04-.8.39-1.61.79-2.42,1.19-1.64.8-3.32,1.64-4.96,2.63-1.66.96-3.38,1.94-5.02,3.09-1.68,1.11-3.37,2.27-5,3.58l-2.48,1.96-2.4,2.14c-3.23,2.88-6.24,6.18-9.05,9.7-1,1.3-1.96,2.65-2.9,4.01,3.47,2.3,8.19,2.85,13.46,1.81,11.11-2.19,9.1,16.94,18.05,17.39,1.85.09,4.89-.67,8.55-1.96-.2-1.41-.34-2.86-.38-4.42.01-2.44.18-5.07.71-7.74l.4-2.04.55-2.03c.34-1.39.82-2.74,1.33-4.11.46-1.39,1.07-2.72,1.67-4.07.57-1.37,1.26-2.67,1.96-3.97.35-.66.7-1.31,1.04-1.95.38-.63.76-1.25,1.14-1.87.78-1.22,1.48-2.5,2.31-3.63,1.61-2.31,3.19-4.54,4.81-6.48,1.56-2.02,3.12-3.77,4.53-5.32.71-.79,1.37-1.52,1.98-2.2.64-.65,1.23-1.25,1.76-1.79,2.16-2.18,3.4-3.42,3.4-3.42,0,0-1.74.3-4.77.84-.77.14-1.62.29-2.55.46Z"/>
          <path class="cls-47" d="m243.83,238.89c-.57.58-1.49,1.5-2.71,2.73-.53.54-1.12,1.14-1.76,1.79-.61.68-1.27,1.42-1.98,2.2-1.41,1.56-2.97,3.3-4.53,5.32-1.62,1.94-3.2,4.17-4.81,6.48-.83,1.13-1.54,2.41-2.31,3.63-.38.62-.75,1.24-1.14,1.87-.34.65-.69,1.3-1.04,1.95-.7,1.3-1.39,2.6-1.96,3.97-.6,1.35-1.22,2.68-1.67,4.07-.51,1.37-.99,2.72-1.33,4.11l-.55,2.03-.4,2.04c-.54,2.67-.7,5.3-.71,7.74.07,2.46.3,4.74.78,6.83.94,4.18,2.55,7.52,4.24,10,1.65,2.48,3.38,4.13,4.51,4.83.57.38,1,.45,1.21.34.05-.05.09-.1.12-.14.03-.06-.05-.4-.07-.52-.02-.08-.03-.16-.04-.22,0-.05.04.03.05.04.03.04.05.06.05.06l.15.18c12.61,15.23,10.49,37.8-4.74,50.41-6.42,5.32-14.37,8.16-22.32,8.5,9,.39,18.28-2.46,25.58-8.5,15.23-12.61,17.35-35.18,4.74-50.41l-.15-.18s-.02-.02-.05-.06c0,0-.06-.09-.05-.04.01.06.03.14.04.22.02.12.1.47.07.52-.04.04-.08.09-.12.14-.22.11-.64.05-1.21-.34-1.13-.7-2.86-2.35-4.51-4.83-1.69-2.48-3.3-5.83-4.24-10-.49-2.09-.71-4.37-.78-6.83.01-2.44.18-5.07.71-7.74l.4-2.04.55-2.03c.34-1.39.82-2.74,1.33-4.11.46-1.39,1.07-2.72,1.67-4.07.57-1.37,1.26-2.67,1.96-3.97.35-.66.7-1.31,1.04-1.95.38-.63.76-1.25,1.14-1.87.78-1.22,1.48-2.5,2.31-3.63,1.61-2.31,3.19-4.54,4.81-6.48,1.56-2.02,3.12-3.77,4.53-5.32.71-.79,1.37-1.52,1.98-2.2.64-.65,1.23-1.25,1.76-1.79,2.16-2.18,3.4-3.42,3.4-3.42,0,0-1.43.25-3.95.69Z"/>
        </g>
        <g class="cls-52">
          <path class="cls-4" d="m365.15,944.13v-2.54h0s-31.25,0-31.25,0v-.69h31.25v-2.54c-15.39-3.05-30.42-10.37-40.45-20.63l-15.56,10.03v26.97l15.56,10.03c10.03-10.26,25.07-17.57,40.45-20.63Zm-45.12-2.88c0-3.53,2.86-6.4,6.4-6.4s6.4,2.86,6.4,6.4-2.86,6.4-6.4,6.4-6.4-2.86-6.4-6.4Z"/>
          <rect class="cls-4" x="292.54" y="937.91" width="26.74" height="6.45" transform="translate(1247.05 635.22) rotate(90)"/>
          <rect class="cls-4" x="372.74" y="937.4" width="7.7" height="7.7" transform="translate(1317.84 564.66) rotate(90)"/>
          <rect class="cls-4" x="409.17" y="901.97" width="7.7" height="7.7" transform="translate(1318.84 492.8) rotate(90)"/>
          <rect class="cls-4" x="409.17" y="972.83" width="7.7" height="7.7" transform="translate(1389.7 563.66) rotate(90)"/>
          <path class="cls-4" d="m375.66,941.25c0-19.79,16.1-35.89,35.89-35.89v.92c-19.28,0-34.97,15.69-34.97,34.97s15.69,34.97,34.97,34.97v.92c-19.79,0-35.89-16.1-35.89-35.89Z"/>
          <rect class="cls-4" x="375.66" y="912.91" width=".92" height="56.69"/>
          <path class="cls-4" d="m373.66,971.6c0-1.36,1.11-2.46,2.46-2.46s2.46,1.11,2.46,2.46-1.11,2.46-2.46,2.46-2.46-1.11-2.46-2.46Zm4,0c0-.85-.69-1.54-1.54-1.54s-1.54.69-1.54,1.54.69,1.54,1.54,1.54,1.54-.69,1.54-1.54Z"/>
          <path class="cls-4" d="m373.66,910.91c0-1.36,1.11-2.46,2.46-2.46s2.46,1.11,2.46,2.46-1.11,2.46-2.46,2.46-2.46-1.11-2.46-2.46Zm4,0c0-.85-.69-1.54-1.54-1.54s-1.54.69-1.54,1.54.69,1.54,1.54,1.54,1.54-.69,1.54-1.54Z"/>
        </g>
        <g class="cls-52">
          <path class="cls-4" d="m1864.17,281.11h-2.99v36.88h-.82v-36.88h-2.99c-3.61,18.16-12.24,35.92-24.35,47.75l11.84,18.37h31.83l11.84-18.37c-12.11-11.84-20.75-29.59-24.35-47.75Zm-3.4,53.26c-4.17,0-7.55-3.38-7.55-7.55s3.38-7.55,7.55-7.55,7.55,3.38,7.55,7.55-3.38,7.55-7.55,7.55Z"/>
          <rect class="cls-4" x="1844.85" y="347.22" width="31.56" height="7.62"/>
          <rect class="cls-4" x="1856.22" y="269.47" width="9.09" height="9.09"/>
          <rect class="cls-4" x="1814.4" y="226.47" width="9.09" height="9.09"/>
          <rect class="cls-4" x="1898.05" y="226.47" width="9.09" height="9.09"/>
          <path class="cls-4" d="m1860.77,275.11c-23.36,0-42.37-19.01-42.37-42.37h1.09c0,22.76,18.52,41.28,41.28,41.28s41.28-18.52,41.28-41.28h1.09c0,23.36-19.01,42.37-42.37,42.37Z"/>
          <rect class="cls-4" x="1827.31" y="274.02" width="66.92" height="1.09"/>
          <path class="cls-4" d="m1896.59,277.47c-1.6,0-2.91-1.31-2.91-2.91s1.31-2.91,2.91-2.91,2.91,1.31,2.91,2.91-1.31,2.91-2.91,2.91Zm0-4.73c-1,0-1.82.82-1.82,1.82s.82,1.82,1.82,1.82,1.82-.82,1.82-1.82-.82-1.82-1.82-1.82Z"/>
          <path class="cls-4" d="m1824.95,277.47c-1.6,0-2.91-1.31-2.91-2.91s1.31-2.91,2.91-2.91,2.91,1.31,2.91,2.91-1.31,2.91-2.91,2.91Zm0-4.73c-1,0-1.82.82-1.82,1.82s.82,1.82,1.82,1.82,1.82-.82,1.82-1.82-.82-1.82-1.82-1.82Z"/>
        </g>
        <g>
          <rect class="cls-30" x="1474.01" y="689.32" width="233.6" height="55.31"/>
          <rect class="cls-20" x="1482.5" y="689.32" width="10.32" height="33.78"/>
          <rect class="cls-20" x="1523.76" y="689.32" width="10.32" height="33.78"/>
          <rect class="cls-20" x="1565.02" y="689.32" width="10.32" height="33.78"/>
          <rect class="cls-20" x="1606.28" y="689.32" width="10.32" height="33.78"/>
          <rect class="cls-20" x="1647.55" y="689.32" width="10.32" height="33.78"/>
          <rect class="cls-20" x="1688.81" y="689.32" width="10.32" height="33.78"/>
          <rect class="cls-20" x="1503.13" y="689.32" width="10.32" height="21.46"/>
          <rect class="cls-20" x="1544.39" y="689.32" width="10.32" height="21.46"/>
          <rect class="cls-20" x="1585.65" y="689.32" width="10.32" height="21.46"/>
          <rect class="cls-20" x="1626.91" y="689.32" width="10.32" height="21.46"/>
          <rect class="cls-20" x="1668.18" y="689.32" width="10.32" height="21.46"/>
          <rect class="cls-34" x="1474.01" y="736.03" width="233.6" height="8.6"/>
        </g>
        <g>
          <polygon class="cls-24" points="1188.84 643.81 1183.57 645.26 1187.8 656.38 1192.87 654.69 1188.84 643.81"/>
          <path class="cls-29" d="m1187.21,644.01l1.85,13.57-23.54,5.97c-3.98,1.01-8.18-.38-10.78-3.55h0c-2.38-2.91-3.03-6.85-1.73-10.37l.24-.64c1.65-4.43,6.04-7.23,10.75-6.85l23.2,1.88Z"/>
          <g class="cls-55">
            <polygon class="cls-42" points="1203.44 635.62 1206.92 634.45 1259.54 616.09 1204.58 616.27 1202.17 616.28 1147.21 616.46 1199.96 634.47 1203.44 635.62"/>
          </g>
          <g>
            <path class="cls-42" d="m1280.13,623.17h0c-1.86-4.33-6.14-7.14-10.85-7.12l-7.19.02-57.5.19h-2.41s-57.5.2-57.5.2l-7.19.02c-4.72.02-8.97,2.85-10.81,7.19h0c-1.74,4.11-.61,8.88,2.78,11.78h0c3.49,2.98,7.67,5.03,12.16,5.96l48.09,9.97,2,5.39,11.8-2.53,11.82,2.45,1.96-5.4,48.03-10.29c4.49-.96,8.65-3.04,12.12-6.05h0c3.37-2.92,4.46-7.7,2.7-11.8Z"/>
            <g class="cls-55">
              <polygon class="cls-28" points="1203.44 635.62 1206.92 634.45 1259.54 616.09 1204.58 616.27 1202.17 616.28 1147.21 616.46 1199.96 634.47 1203.44 635.62"/>
            </g>
          </g>
          <path class="cls-24" d="m1181.51,591.33s8.84,7.69,10.54,8.95c1.69,1.26,13.03,2.64,13.78,1.54.74-1.11-.16-3.88-.16-3.88l-8.17-4.35-2.76-6.65-10.86-1.53-2.36,5.92Z"/>
          <path class="cls-24" d="m1188.66,586.05l6.22.5s2.52,6.05,2.84,7.59c.32,1.54-4.38-1.03-4.54-2.59-1.42-.67-6.04-3.36-6.04-3.36l1.52-2.14Z"/>
          <path class="cls-24" d="m1225.1,591.18s-8.79,7.75-10.47,9.02c-1.68,1.28-13.02,2.73-13.76,1.63-.75-1.1.13-3.88.13-3.88l8.14-4.41,2.71-6.67,10.85-1.6,2.4,5.9Z"/>
          <path class="cls-23" d="m1257.96,561.02l-21.11-33.79c-2.31-3.69-6.21-6.08-10.55-6.46l-16.28-1.41-14.06.05-16.12,1.44c-4.35.39-8.26,2.8-10.56,6.52l-20.98,33.99c-2.86,4.63-1.62,10.68,2.82,13.81l25.25,17.83,1.12,23.37,51.78-.17.97-23.45,24.99-17.9c4.42-3.16,5.61-9.21,2.74-13.82Zm-95.03,3.51l11.31-15.58,1.42,29.55-12.05-9.26c-1.46-1.13-1.77-3.21-.68-4.71Zm79.63,4.56l-11.73,9.13,1.15-27.8,11.14,13.84c1.19,1.48.94,3.66-.56,4.83Z"/>
          <path class="cls-24" d="m1217.91,585.96l-6.22.55s-2.48,6.07-2.79,7.61c-.3,1.54,4.37-1.05,4.52-2.62,1.41-.68,6.02-3.4,6.02-3.4l-1.53-2.13Z"/>
          <path class="cls-43" d="m1210.02,519.33l-.68-5.53-12.61.04-.77,5.54c4.89,3.82,9.57,3.68,14.06-.05Z"/>
          <path class="cls-24" d="m1215.77,490.72c0,2.23,1.45,4.04,3.22,4.03,1.77,0,4.19-3.86,3.34-6.55-.56-1.75-2.71-1.58-4.48-1.57-1.77,0-2.09,1.85-2.08,4.08Z"/>
          <path class="cls-24" d="m1189.62,490.8c0,2.23-1.42,4.05-3.19,4.06-1.77,0-4.22-3.83-3.38-6.52.55-1.76,2.7-1.6,4.47-1.6,1.77,0,2.1,1.84,2.11,4.07Z"/>
          <path class="cls-24" d="m1202.82,473.42h0s15.87,2.99,16.86,12.28c0,0-.19,13.86-.75,15.94-.55,2.08-6.28,14.12-15.97,14.63h0c-9.69-.45-15.5-12.44-16.07-14.52s-.85-15.94-.85-15.94c-1.14-12.27,14.95-15.01,16.78-12.39Z"/>
          <path class="cls-3" d="m1193.11,477.28s13.62,3.32,21.56,7.45c1.66.86,4.12,1.02,4.99,2.01,3.56-3.97,4.18-17.99-9.41-22.53-9.59-3.2-17.79.09-20.37,4.05-3.32,1.52-8.34,8.5-3.82,20.07.47-4.01,3.55-8.83,7.04-11.05Z"/>
          <g>
            <path class="cls-32" d="m1209.03,493.81c0,.7.57,1.26,1.26,1.26.7,0,1.26-.57,1.26-1.26,0-.7-.57-1.26-1.26-1.26-.7,0-1.26.57-1.26,1.26Z"/>
            <path class="cls-32" d="m1194.18,493.86c0,.7.57,1.26,1.26,1.26.7,0,1.26-.57,1.26-1.26,0-.7-.57-1.26-1.26-1.26-.7,0-1.26.57-1.26,1.26Z"/>
          </g>
          <path class="cls-25" d="m1206.67,505.15c0,1.97-2.04,3.04-3.76,3.05-1.72,0-3.78-1.14-3.78-3.02l7.55-.03Z"/>
          <path class="cls-3" d="m1199.46,488.03l-.12,1.28-8.71.03s2.33-1.51,8.83-1.3Z"/>
          <path class="cls-3" d="m1205.84,488.01l.13,1.28,8.71-.03s-2.34-1.49-8.83-1.24Z"/>
          <polygon class="cls-3" points="1219.74 486.1 1219.52 493.31 1219.15 493.71 1219.12 485.14 1219.74 486.1"/>
          <polygon class="cls-3" points="1185.93 486.21 1186.2 493.42 1186.57 493.82 1186.54 485.25 1185.93 486.21"/>
          <path class="cls-36" d="m1238.72,623.79l-71.42.12c-1.83,0-3.36-1.36-3.58-3.17l-5.27-43.95c-.26-2.14,1.41-4.03,3.57-4.03l81.82-.14c2.16,0,3.83,1.88,3.58,4.02l-5.12,43.97c-.21,1.81-1.75,3.18-3.57,3.18Z"/>
          <polygon class="cls-24" points="1219.83 644.51 1225.1 645.96 1220.87 657.08 1215.8 655.39 1219.83 644.51"/>
          <path class="cls-29" d="m1220.46,644.01l-1.85,13.57,23.54,5.97c3.98,1.01,8.18-.38,10.78-3.55h0c2.38-2.91,3.03-6.85,1.73-10.37l-.24-.64c-1.65-4.43-6.04-7.23-10.75-6.85l-23.2,1.88Z"/>
          <path class="cls-6" d="m1163.63,620.01l.09.72c.22,1.81,1.76,3.18,3.58,3.17l71.42-.12c1.83,0,3.36-1.37,3.57-3.18l4.27-36.67c-14.99,25.41-57.75,33.34-82.93,36.08Z"/>
          <path class="cls-3" d="m1192.47,476.11s7.14,6.44,10.37,7.03c-2.13-1.42-6.14-8.62-6.14-8.62l-4.23,1.59Z"/>
          <path class="cls-3" d="m1197.1,476.84s9.93,7.71,13.15,8.3c-2.13-1.42-8.93-9.89-8.93-9.89l-4.23,1.59Z"/>
          <path class="cls-3" d="m1203.68,478.43s9.93,7.71,13.15,8.3c-2.13-1.42-8.93-9.89-8.93-9.89l-4.23,1.59Z"/>
        </g>
        <g>
          <path class="cls-24" d="m316.71,545.37l10.5,100.56-5.25,3.18s2.7,5.09,11.29,1.59c-.32-2.54,0-116.15,0-116.15l-16.54,10.81Z"/>
          <path class="cls-24" d="m352.22,545.37l-10.5,100.56,5.25,3.18s-2.7,5.09-11.29,1.59c.32-2.54,0-116.15,0-116.15l16.54,10.81Z"/>
          <path class="cls-2" d="m321.96,649.11l-10.37,3.62c-2.52.88-4.2,3.25-4.2,5.92h14.24l6.78-2.67h1.86v2.67h2.99v-7.95c-2.77,1.23-9.56.19-11.29-1.59Z"/>
          <path class="cls-2" d="m346.98,649.11l10.37,3.62c2.52.88,4.2,3.25,4.2,5.92h-14.24l-6.78-2.67h-1.86v2.67h-2.99v-7.95c2.37.93,7.93.61,11.29-1.59Z"/>
          <path class="cls-2" d="m355.8,545.37h-42.68l-4.87-31.1c-.97-10.69,1.25-24.18,6.38-33.61l4.21-7.74h31.24l4.2,7.74c5.13,9.43,7.35,22.92,6.38,33.61l-4.87,31.1Z"/>
          <path class="cls-11" d="m314.61,367.99c-4.88,1.71-11.85,24.62-6.55,54.03,4.54,2.07,23.22-7.28,28.74-8.04-.26-2.09-4.96-36.37-4.96-36.37l-17.22-9.62Z"/>
          <path class="cls-11" d="m351.48,368.14s11.57,26.36,4.27,55.68c-3.82,3.21-14.6-.85-20.12-.09-.31-2.08-.98-46.51-.98-46.51l16.83-9.08Z"/>
          <g>
            <path class="cls-23" d="m352.21,416.49l-11.07-1.67h-13.01l-10.99,1.67,1.47,56.83h31.73s4.59-32.07,5.24-33.36c-2.58-14.63-3.36-23.47-3.36-23.47Z"/>
            <circle class="cls-23" cx="348.53" cy="442.88" r="9.06"/>
          </g>
          <path class="cls-43" d="m340.64,409.72c-2.13-1.88-4.09-2.85-6.01-2.94-1.92.09-3.88,1.06-6.01,2.94l-.5,5.09c1.56,3.09,3.98,5.4,6.51,5.73,2.52-.34,4.94-2.65,6.51-5.73l-.5-5.09Z"/>
          <path class="cls-24" d="m322.02,392.17c.32,2.31-.91,4.38-2.74,4.63-1.83.25-4.89-3.38-4.4-6.28.32-1.89,2.57-2.02,4.4-2.27,1.83-.25,2.42,1.61,2.74,3.92Z"/>
          <path class="cls-24" d="m331.4,368.56h0s-11.52,15.44-14.85,19.01c.91,4.37,2.34,11.02,2.92,12.39.87,2.07,7.89,13.77,17.98,12.9l1.06-.15c9.95-1.86,12.51-14.87,12.8-17.1.29-2.23-.78-16.68-.78-16.68-.59-12.85-17.62-13.35-19.13-10.38Z"/>
          <g>
            <path class="cls-45" d="m330.36,391.32c.13.97-.55,1.87-1.52,2-.97.13-1.87-.55-2-1.52-.13-.97.55-1.87,1.52-2,.97-.13,1.87.55,2,1.52Z"/>
            <path class="cls-45" d="m345.71,389.22c.13.97-.55,1.87-1.52,2-.97.13-1.87-.55-2-1.52-.13-.97.55-1.87,1.52-2,.97-.13,1.87.55,2,1.52Z"/>
          </g>
          <path class="cls-11" d="m321.05,374c5.54,8.51,27.8,3.6,30.72,18.77.73.07,10.44-30.15-13.92-34.4-20.87-3.65-23.25,9.62-23.25,9.62-7.89,6.83,2.6,13.21,6.44,6.01Z"/>
          <path class="cls-25" d="m333.82,401.7c.33,2.38,2.58,3.39,4.33,3.15s3.64-1.92,3.33-4.19l-7.66,1.05Z"/>
          <g>
            <path class="cls-11" d="m330,384.15l.24.64-8.17,3.98s1.73-1.86,7.93-4.62Z"/>
            <path class="cls-11" d="m340.31,382.26l-.09.67,8.85,2.06s-2.1-1.42-8.76-2.74Z"/>
          </g>
          <path class="cls-24" d="m395.92,418.16s6.51-7.97,7.57-9.49c1.06-1.52,1.97-11.51.98-12.13-.99-.62-3.4.24-3.4.24l-3.6,7.29-4.93,6.23-2.28,5.28,5.65,2.57Z"/>
          <path class="cls-24" d="m391.06,414.81l-1.4-5.24s3.34-4.5,4.45-5.31c1.12-.81-.36,4.55-1.56,5.24-.02,1.38-.07,5.62-.07,5.62l-1.43-.31Z"/>
          <path class="cls-23" d="m361.31,420.98l13.28,19.27c.38.56,1.22.51,1.53-.09l14-26.35,6.78,4.52-15.31,31.51c-2.25,4.63-8.53,5.39-11.82,1.43l-19.98-24.02-3.18-9.5c5.05-2.53,11.18-1.18,14.7,3.24Z"/>
          <polygon class="cls-29" points="350.33 473.32 318.6 473.32 316.61 476.98 352.32 476.98 350.33 473.32"/>
          <path class="cls-24" d="m308.68,477.77s5.82-4.05,7.67-4.08,10.64,4.8,10.6,5.97-2.1,2.68-2.1,2.68l-8.05-1.09-4.14,3.06-5.33-3,1.35-3.54Z"/>
          <path class="cls-23" d="m317.14,416.49l-2.34,1.16c-2.58,1.28-4.76,3.23-6.33,5.64l-16.55,25.61c-1.67,2.59-1.75,5.9-.19,8.56l16.1,26.85,3.9-8.52-10.33-20.03c-.4-.86-.31-1.87.24-2.65l18.77-23.53-3.28-13.09Z"/>
        </g>
        <g>
          <polygon class="cls-35" points="648.93 235.6 668.23 232.11 682.74 232.11 702.14 235.6 702.14 320.54 648.71 320.54 648.93 235.6"/>
          <path class="cls-43" d="m668.23,232.11l.69-5.71h13.01l.81,5.71c-5.03,3.96-9.86,3.83-14.51,0Z"/>
          <path class="cls-24" d="m660.25,203.43c-.06,2.3-1.58,4.14-3.41,4.09-1.83-.04-4.24-4.07-3.3-6.83.61-1.8,2.83-1.57,4.65-1.52,1.83.04,2.11,1.96,2.06,4.26Z"/>
          <path class="cls-24" d="m687.23,204.09c-.06,2.3,1.38,4.21,3.2,4.25s4.44-3.86,3.63-6.66c-.52-1.82-2.75-1.71-4.57-1.75-1.83-.04-2.21,1.85-2.26,4.15Z"/>
          <path class="cls-24" d="m674,185.87h0s-16.44,2.74-17.66,12.3c0,0-.02,14.28.42,16.46,2.87,14.28,14.6,15.41,14.6,15.41,11.98-.12,17.42-11.52,18.05-13.66.63-2.13,1.64-17.36,1.64-17.36,1.45-12.64-15.1-15.82-17.04-13.15Z"/>
          <path class="cls-26" d="m683.93,190.06s-16.22,9.34-28.51,9.18c-.67.15-7.76-19.81,11.24-24.8,19.1-5.02,22.6,8.99,22.6,8.99,0,0,9.39,2.76,1.7,18.18-.39-4.14-8.55-6.39-7.02-11.56Z"/>
          <g>
            <path class="cls-32" d="m665.17,206.8c-.02.72-.61,1.29-1.33,1.27-.72-.02-1.29-.61-1.27-1.33.02-.72.61-1.29,1.33-1.27.72.02,1.29.61,1.27,1.33Z"/>
            <path class="cls-32" d="m680.49,207.17c-.02.72-.61,1.29-1.33,1.27-.72-.02-1.29-.61-1.27-1.33.02-.72.61-1.29,1.33-1.27.72.02,1.29.61,1.27,1.33Z"/>
          </g>
          <path class="cls-25" d="m667.34,219.23c-.05,2.03,2.04,3.18,3.82,3.23,1.78.04,3.92-1.09,3.97-3.03l-7.79-.19Z"/>
          <g>
            <path class="cls-58" d="m659.53,204.02h8.64c.54,0,.97.43.97.97v4.55c0,.54-.43.97-.97.97h-8.64c-.54,0-.97-.43-.97-.97v-4.55c0-.54.43-.97.97-.97Z" transform="translate(5.31 -16.29) rotate(1.41)"/>
            <rect class="cls-58" x="673.9" y="204.39" width="10.58" height="6.49" rx=".97" ry=".97" transform="translate(5.32 -16.66) rotate(1.41)"/>
          </g>
          <path class="cls-26" d="m675.01,199.59l.09,1.32,8.98.22s-2.37-1.6-9.08-1.54Z"/>
          <path class="cls-26" d="m668.42,199.43l-.16,1.31-8.98-.22s2.45-1.49,9.14-1.09Z"/>
          <rect class="cls-32" x="669.16" y="205.92" width="4.77" height="1.3" transform="translate(5.29 -16.49) rotate(1.41)"/>
          <polygon class="cls-26" points="656.26 198.58 656.33 206.02 656.7 206.44 656.92 197.6 656.26 198.58"/>
          <polygon class="cls-26" points="691.14 199.44 690.08 211.15 689.31 207.24 689.53 198.4 691.14 199.44"/>
          <rect class="cls-32" x="684.5" y="206.29" width="4.14" height="1.3" transform="translate(5.3 -16.85) rotate(1.41)"/>
          <rect class="cls-32" x="656.45" y="205.57" width="1.71" height="1.3" transform="translate(5.27 -16.1) rotate(1.41)"/>
          <polygon class="cls-24" points="646.57 277.77 641.24 300.75 600.98 299.81 610.67 290.77 618.15 294.1 629.29 289.26 633.03 277.77 646.57 277.77"/>
          <path class="cls-35" d="m648.93,235.6l-.64.3c-2.95,1.37-5.17,3.92-6.12,7.03l-13.23,43.18,15.32,6.82,4.87-21.72c2.6-11.74,2.92-23.59-.21-35.6Z"/>
          <polygon class="cls-24" points="717.31 277.77 719.32 302.87 669.67 317.79 642.5 320.17 661.61 310.18 668.23 309.23 709.02 296.02 703.77 277.77 717.31 277.77"/>
          <path class="cls-35" d="m706.5,295.32c.75-.27,1.17-1.06.99-1.83l-7.36-24.18,2.01-33.71h0c3.33,1.55,5.78,4.52,6.67,8.08l8.69,34.85h0l3.93,15.01c1.51,5.77-1.97,11.67-7.76,13.13l-44.01,11.12-1.43-8.56,38.27-13.91Z"/>
          <path class="cls-29" d="m589.03,418.76l15.8-91.51c.67-3.87,4.03-6.7,7.96-6.7h64.78v12.58c0,6.2-5.02,11.22-11.22,11.22h-40.39l-23.37,74.42h-13.55Z"/>
          <path class="cls-44" d="m589.03,418.76l15.8-91.51c.67-3.87,4.03-6.7,7.96-6.7h64.78v12.58c0,6.2-5.02,11.22-11.22,11.22h-40.39l-23.37,74.42h-13.55Z"/>
          <path class="cls-29" d="m613.6,418.76l15.22-88.13c1.01-5.83,6.06-10.08,11.97-10.08h61.35v12.58c0,6.2-5.02,11.22-11.22,11.22h-40.39l-23.37,74.42h-13.55Z"/>
          <path class="cls-15" d="m602.5,418.76v8.56h-32.41v-1.71c0-1.61,7.09-3.17,8.64-3.62l9.86-3.22h13.91Z"/>
          <rect class="cls-46" x="570.09" y="427.32" width="32.41" height="1.42" transform="translate(1172.6 856.06) rotate(180)"/>
          <path class="cls-44" d="m579.36,421.78l9.23-3.02h13.91v9.98h-32.41v-3.13c0-1.61,7.72-3.37,9.27-3.83Z"/>
          <path class="cls-15" d="m627.23,418.76v8.56h-32.41v-1.71c0-1.61,6.99-3.14,8.54-3.59l9.96-3.26h13.91Z"/>
          <rect class="cls-46" x="594.82" y="427.32" width="32.41" height="1.42" transform="translate(1222.05 856.06) rotate(180)"/>
          <path class="cls-19" d="m643.65,315.18h28.14v5.23h-25.29c-1.57,0-2.85-1.28-2.85-2.85v-2.38h0Z" transform="translate(1315.43 635.59) rotate(180)"/>
          <polygon class="cls-31" points="601.7 320.41 663.93 320.41 651.57 281.1 589.34 281.1 601.7 320.41"/>
          <path class="cls-12" d="m682.54,230.71s.89,12.49-7.49,12.26c-8.58-.24-6.68-12.26-6.68-12.26l7.06,4.31,7.12-4.31Z"/>
          <path class="cls-14" d="m682.54,230.71s.89,12.49-7.49,12.26c-8.58-.24-6.68-12.26-6.68-12.26l7.06,4.31,7.12-4.31Z"/>
          <polygon class="cls-12" points="682.54 230.71 675.49 235.03 680.07 243.94 691.38 233.66 682.54 230.71"/>
          <polygon class="cls-12" points="668.37 230.71 675.42 235.03 670.84 243.94 659.53 233.66 668.37 230.71"/>
        </g>
        <path class="cls-8" d="m1073.12,961.87c-1.33,0-2.58.37-3.66.99v-19.56h-19.23c1.61,1.33,2.64,3.35,2.64,5.6,0,4.01-3.25,7.26-7.26,7.26s-7.26-3.25-7.26-7.26c0-2.25,1.03-4.27,2.64-5.6h-23.17v19.58c1.08-.64,2.34-1.01,3.68-1.01,4.01,0,7.26,3.25,7.26,7.26,0,4.01-3.25,7.26-7.26,7.26-1.35,0-2.6-.37-3.68-1.01v19.58h23.17c-1.61-1.33-2.64-3.35-2.64-5.6,0-4.01,3.25-7.26,7.26-7.26s7.26,3.25,7.26,7.26c0,2.25-1.03,4.27-2.64,5.6h19.23v-19.56c1.07.63,2.32.99,3.66.99,4.01,0,7.26-3.25,7.26-7.26,0-4.01-3.25-7.26-7.26-7.26Z"/>
        <path class="cls-8" d="m71.6,464.08c-1.23,0-2.39.34-3.38.92v-18.08h-17.77c1.49,1.23,2.44,3.09,2.44,5.18,0,3.71-3.01,6.72-6.72,6.72s-6.72-3.01-6.72-6.72c0-2.08.95-3.94,2.44-5.18h-21.42v18.1c1-.59,2.16-.93,3.4-.93,3.71,0,6.71,3.01,6.72,6.71,0,3.71-3.01,6.71-6.72,6.71-1.24,0-2.4-.34-3.4-.93v18.1h21.42c-1.49-1.23-2.44-3.09-2.44-5.18,0-3.71,3.01-6.72,6.72-6.72s6.72,3.01,6.72,6.72c0,2.08-.95,3.94-2.44,5.18h17.77v-18.08c.99.58,2.15.92,3.38.92,3.71,0,6.71-3.01,6.72-6.71,0-3.71-3.01-6.71-6.72-6.71Z"/>
        <g>
          <path class="cls-24" d="m1539.89,432.21s4.41-8.98,5.32-10.54c.91-1.56,9.38-6.4,10.33-5.78.95.63,1.16,3.1,1.16,3.1l-4.99,6.14-1.95,4.83-5.32,6.2-4.56-3.96Z"/>
          <path class="cls-24" d="m1556.9,430.63l-.41-5.26s-4.52-3.05-5.81-3.43c-1.28-.38.55,3.8,1.87,4.05.47,1.26,3.13,5.39,3.13,5.39l1.21-.75Z"/>
          <path class="cls-24" d="m1613.08,538.22l-10.37,99.35,5.18,3.14s-2.67,5.03-11.15,1.57c.31-2.51,0-114.75,0-114.75l16.34,10.68Z"/>
          <path class="cls-24" d="m1577.99,538.22l10.37,99.35-5.18,3.14s2.67,5.03,11.15,1.57c-.31-2.51,0-114.75,0-114.75l-16.34,10.68Z"/>
          <path class="cls-29" d="m1607.89,640.71l10.25,3.58c2.49.87,4.15,3.21,4.15,5.85h-14.07l-6.7-2.64h-1.83v2.64h-2.95v-7.86c2.74,1.21,9.44.19,11.15-1.57Z"/>
          <path class="cls-29" d="m1583.17,640.71l-10.25,3.58c-2.49.87-4.15,3.21-4.15,5.85h14.07l6.7-2.64h1.83v2.64h2.95v-7.86c-2.34.92-7.84.61-11.15-1.57Z"/>
          <path class="cls-2" d="m1612.39,411.34l-10.69-1.63h-12.66l-8.49,1.28c-1.41.21-2.6,1.16-3.12,2.49l-12.93,33.04-11.3-23.7-3.93,15.35,10.88,15.17c2.06,2.88,6.39,2.72,8.24-.3l6.65-10.88c.45.89,1.05,1.69,1.77,2.37,1.48,9.51,3.28,22.1,3.28,22.1h30.87s.47-31.2,1.1-32.45c-.19-1.41.33-22.84.33-22.84Z"/>
          <g>
            <path class="cls-39" d="m1615.88,363.94s7.03,13.51-3.87,40.81c-4.1,2.59-10.42,3.13-15.84,3.13-.03-2.05,0-35.71,0-35.71l19.7-8.23Z"/>
            <path class="cls-39" d="m1575.98,362.46s-8.77,14.99,2.13,42.29c4.1,2.59,9.87,3.13,15.29,3.13.03-2.05,0-35.71,0-35.71l-17.42-9.71Z"/>
            <path class="cls-43" d="m1589.52,404.76c2.07-1.83,3.98-2.77,5.85-2.86,1.86.09,3.77,1.03,5.85,2.86l.48,4.95c-1.52,3-3.88,5.25-6.33,5.58-2.46-.33-4.81-2.57-6.33-5.58l.48-4.95Z"/>
            <path class="cls-24" d="m1608.64,384.76c0,2.27,1.46,4.11,3.25,4.11s4.27-3.9,3.41-6.63c-.56-1.78-2.74-1.61-4.54-1.61s-2.12,1.87-2.12,4.14Z"/>
            <path class="cls-24" d="m1595.39,363.39h0s16.1,3.09,17.07,12.52c0,0-.87,14.06-1.44,16.18-.57,2.11-5.79,14.31-15.63,14.8h-1.04c-9.84-.49-14.02-12.68-14.59-14.8-.57-2.11-1.44-16.18-1.44-16.18-1.12-12.46,15.23-15.19,17.07-12.52Z"/>
            <g>
              <path class="cls-45" d="m1599.4,385.19c0,.96.77,1.73,1.73,1.73s1.73-.77,1.73-1.73-.77-1.73-1.73-1.73-1.73.77-1.73,1.73Z"/>
              <path class="cls-45" d="m1584.32,385.19c0,.96.77,1.73,1.73,1.73s1.73-.77,1.73-1.73-.77-1.73-1.73-1.73-1.73.77-1.73,1.73Z"/>
            </g>
            <path class="cls-39" d="m1606.09,367.27c-4.22,8.94-26.32,7.13-27.14,22.14-.69.16-14.32-29.77,8.59-37.07,19.64-6.26,23.97,8.29,23.97,8.29,7.62.95,7.62,16.17-.19,30.54-.52-4.06-.58-17.46-5.23-23.89Z"/>
            <path class="cls-25" d="m1596.95,396.19c0,2-1.75,3.08-3.21,3.08s-3.21-1.17-3.21-3.08h6.43Z"/>
            <g>
              <path class="cls-39" d="m1597.25,379.68l.05.66,8.84.18s-2.29-.93-8.89-.84Z"/>
              <path class="cls-39" d="m1589.68,379.57v.66s-8.79.91-8.79.91c0,0,2.2-1.12,8.79-1.57Z"/>
            </g>
          </g>
          <path class="cls-29" d="m1574.45,538.22h42.16l4.81-30.73c.96-10.56-1.24-23.89-6.31-33.2l-4.16-7.65h-30.87l-4.15,7.65c-5.07,9.31-7.27,22.64-6.31,33.2l4.81,30.73Z"/>
          <polygon class="cls-16" points="1543.44 450.08 1587.33 450.08 1580.81 418.07 1534.75 418.07 1543.44 450.08"/>
          <path class="cls-49" d="m1534.75,418.07s15.87,30.65,52.59,32.01h-43.89l-8.7-32.01Z"/>
          <path class="cls-24" d="m1569.06,443.89s-9.81-1.97-11.55-2.45c-1.74-.48-8.59-7.43-8.23-8.51.36-1.08,2.7-1.92,2.7-1.92l7.21,3.25,7.55,1.63,4.98,2.56-2.66,5.42Z"/>
          <path class="cls-24" d="m1570.64,438.36l-2.18-4.8s-5.29-1.32-6.63-1.24,3.08,3.19,4.41,2.98c.87,1.02,3.52,4.18,3.52,4.18l.88-1.12Z"/>
          <path class="cls-2" d="m1612.39,411.33l-9.95,34.99c-.4,1.4-1.91,2.16-3.27,1.63l-28.42-10.93-2.3,7.58,28.3,12.76c6.23,2.81,13.5-.64,15.27-7.25l6.84-25.65c1.22-5.36-1.47-10.84-6.45-13.15h0Z"/>
          <path class="cls-13" d="m1612.39,411.33l-9.95,34.99c-.4,1.4-1.91,2.16-3.27,1.63l-28.42-10.93-2.3,7.58,28.3,12.76c6.23,2.81,13.5-.64,15.27-7.25l6.84-25.65c1.22-5.36-1.47-10.84-6.45-13.15h0Z"/>
        </g>
        <g class="cls-52">
          <path class="cls-33" d="m1352.1,868.83h-12.28v-61.41h22.37c14.04,0,22.37,8.33,22.37,21.06s-8.33,21.06-22.37,21.06h-10.09v19.3Zm0-51.32v21.93h10.09c5.26,0,9.65-4.39,9.65-10.97s-4.39-10.97-9.65-10.97h-10.09Z"/>
          <path class="cls-33" d="m1417.9,807.42c13.6,0,21.49,7.9,21.49,20.18,0,13.6-9.65,17.55-9.65,17.55v.44l14.04,23.25h-13.6l-12.28-21.06h-10.09v21.06h-12.28v-61.41h22.37Zm-10.09,30.27h10.09c4.82,0,8.77-3.95,8.77-10.09s-3.95-10.09-8.77-10.09h-10.09v20.18Z"/>
          <path class="cls-33" d="m1475.8,870.59c-14.92,0-26.76-11.84-26.76-32.46s11.84-32.46,26.76-32.46,26.76,11.84,26.76,32.46-11.84,32.46-26.76,32.46Zm0-54.39c-7.46,0-14.04,6.58-14.04,21.93s6.58,21.93,14.04,21.93,14.04-6.58,14.04-21.93-6.58-21.93-14.04-21.93Z"/>
          <path class="cls-33" d="m1534.15,868.83h-19.74v-61.41h19.74c15.35,0,26.76,11.41,26.76,30.71s-11.41,30.71-26.76,30.71Zm-7.46-51.32v41.23h7.46c7.9,0,14.04-6.14,14.04-20.62s-6.14-20.62-14.04-20.62h-7.46Z"/>
          <path class="cls-33" d="m1584.59,849.09c0,7.02,3.95,10.97,10.97,10.97s10.97-3.95,10.97-10.97v-41.67h12.28v41.67c0,12.28-9.21,21.49-23.25,21.49s-23.25-9.21-23.25-21.49v-41.67h12.28v41.67Z"/>
          <path class="cls-33" d="m1657.85,805.67c10.97,0,16.67,5.7,16.67,5.7l-5.26,8.33s-3.95-3.51-10.53-3.51c-9.21,0-15.79,6.58-15.79,21.93s6.58,21.93,15.79,21.93c7.46,0,11.41-4.39,11.41-4.39l5.26,8.33s-6.14,6.58-17.55,6.58c-15.79,0-27.63-11.84-27.63-32.46s11.84-32.46,27.63-32.46Z"/>
          <path class="cls-33" d="m1722.77,807.42v10.09h-15.79v51.32h-12.28v-51.32h-15.79v-10.09h43.86Z"/>
        </g>
      </g>
    </g>
  </g>
</svg>