<?xml version="1.0" encoding="UTF-8"?>
<svg id="Layer_1" data-name="Layer 1" xmlns="http://www.w3.org/2000/svg" viewBox="0 0 500 174.23">
  <defs>
    <style>
      .cls-1 {
        fill: #fff;
        stroke-width: 0px;
      }
    </style>
  </defs>
  <path class="cls-1" d="m0,0v174.22h500V0H0Zm12.06,42.95c0-1.6,1.29-2.89,2.88-2.89h103.24c1.6,0,2.89,1.29,2.89,2.89v.38c0,1.59-1.29,2.88-2.89,2.88H14.94c-1.59,0-2.88-1.29-2.88-2.88v-.38Zm138.9,118.59H12.06v-90.25h138.9v90.25ZM262.6,23.42c0,5.23-4.24,9.48-9.48,9.48H21.54c-5.24,0-9.48-4.25-9.48-9.48v-1.26c0-5.24,4.24-9.48,9.48-9.48h231.58c5.24,0,9.48,4.24,9.48,9.48v1.26Zm225.35,138.12h-169.38V12.68h169.38v148.86Z"/>
</svg>